{"glyphs":{"0":{"ha":608,"x_min":87,"x_max":521,"o":"m 347 87 l 434 87 l 434 0 l 347 0 l 260 0 l 174 0 l 174 87 l 260 87 l 347 87 m 434 87 l 434 174 l 434 260 l 434 347 l 434 434 l 434 521 l 434 608 l 434 694 l 521 694 l 521 608 l 521 521 l 521 434 l 521 347 l 521 260 l 521 174 l 521 87 l 434 87 m 174 87 l 87 87 l 87 174 l 87 260 l 87 347 l 87 434 l 87 521 l 87 608 l 87 694 l 174 694 l 174 608 l 174 521 l 174 434 l 174 347 l 174 260 l 174 174 l 174 87 m 434 694 l 347 694 l 260 694 l 174 694 l 174 781 l 260 781 l 347 781 l 434 781 l 434 694 z "},"1":{"ha":434,"x_min":87,"x_max":347,"o":"m 260 0 l 174 0 l 87 0 l 87 87 l 174 87 l 174 174 l 174 260 l 174 347 l 174 434 l 174 521 l 174 608 l 87 608 l 87 694 l 174 694 l 174 781 l 260 781 l 260 694 l 260 608 l 260 521 l 260 434 l 260 347 l 260 260 l 260 174 l 260 87 l 347 87 l 347 0 l 260 0 z "},"2":{"ha":608,"x_min":87,"x_max":521,"o":"m 87 608 l 87 694 l 174 694 l 174 608 l 87 608 m 434 87 l 521 87 l 521 0 l 434 0 l 347 0 l 260 0 l 174 0 l 87 0 l 87 87 l 87 174 l 174 174 l 174 87 l 260 87 l 347 87 l 434 87 m 174 174 l 174 260 l 260 260 l 260 174 l 174 174 m 260 260 l 260 347 l 347 347 l 347 260 l 260 260 m 347 347 l 347 434 l 434 434 l 434 347 l 347 347 m 434 434 l 434 521 l 434 608 l 434 694 l 521 694 l 521 608 l 521 521 l 521 434 l 434 434 m 434 694 l 347 694 l 260 694 l 174 694 l 174 781 l 260 781 l 347 781 l 434 781 l 434 694 z "},"3":{"ha":608,"x_min":87,"x_max":521,"o":"m 87 608 l 87 694 l 174 694 l 174 608 l 87 608 m 347 87 l 434 87 l 434 0 l 347 0 l 260 0 l 174 0 l 174 87 l 260 87 l 347 87 m 434 87 l 434 174 l 434 260 l 434 347 l 434 434 l 521 434 l 521 347 l 521 260 l 521 174 l 521 87 l 434 87 m 174 87 l 87 87 l 87 174 l 174 174 l 174 87 m 434 434 l 347 434 l 260 434 l 260 521 l 347 521 l 434 521 l 434 434 m 434 521 l 434 608 l 434 694 l 521 694 l 521 608 l 521 521 l 434 521 m 434 694 l 347 694 l 260 694 l 174 694 l 174 781 l 260 781 l 347 781 l 434 781 l 434 694 z "},"4":{"ha":521,"x_min":87,"x_max":434,"o":"m 347 0 l 347 87 l 347 174 l 347 260 l 260 260 l 174 260 l 87 260 l 87 347 l 87 434 l 87 521 l 87 608 l 87 694 l 174 694 l 174 608 l 174 521 l 174 434 l 174 347 l 260 347 l 347 347 l 347 434 l 347 521 l 347 608 l 347 694 l 347 781 l 434 781 l 434 694 l 434 608 l 434 521 l 434 434 l 434 347 l 434 260 l 434 174 l 434 87 l 434 0 l 347 0 z "},"5":{"ha":608,"x_min":87,"x_max":521,"o":"m 347 87 l 434 87 l 434 0 l 347 0 l 260 0 l 174 0 l 174 87 l 260 87 l 347 87 m 434 87 l 434 174 l 434 260 l 434 347 l 434 434 l 521 434 l 521 347 l 521 260 l 521 174 l 521 87 l 434 87 m 174 87 l 87 87 l 87 174 l 174 174 l 174 87 m 434 434 l 347 434 l 260 434 l 174 434 l 87 434 l 87 521 l 87 608 l 87 694 l 174 694 l 174 608 l 174 521 l 260 521 l 347 521 l 434 521 l 434 434 m 434 781 l 521 781 l 521 694 l 434 694 l 347 694 l 260 694 l 174 694 l 174 781 l 260 781 l 347 781 l 434 781 z "},"6":{"ha":608,"x_min":87,"x_max":521,"o":"m 434 608 l 434 694 l 521 694 l 521 608 l 434 608 m 347 87 l 434 87 l 434 0 l 347 0 l 260 0 l 174 0 l 174 87 l 260 87 l 347 87 m 434 87 l 434 174 l 434 260 l 434 347 l 434 434 l 521 434 l 521 347 l 521 260 l 521 174 l 521 87 l 434 87 m 174 87 l 87 87 l 87 174 l 87 260 l 87 347 l 87 434 l 87 521 l 87 608 l 87 694 l 174 694 l 174 608 l 174 521 l 260 521 l 347 521 l 434 521 l 434 434 l 347 434 l 260 434 l 174 434 l 174 347 l 174 260 l 174 174 l 174 87 m 434 694 l 347 694 l 260 694 l 174 694 l 174 781 l 260 781 l 347 781 l 434 781 l 434 694 z "},"7":{"ha":608,"x_min":87,"x_max":521,"o":"m 260 0 l 260 87 l 260 174 l 260 260 l 260 347 l 347 347 l 347 260 l 347 174 l 347 87 l 347 0 l 260 0 m 347 347 l 347 434 l 434 434 l 434 347 l 347 347 m 434 434 l 434 521 l 434 608 l 434 694 l 521 694 l 521 608 l 521 521 l 521 434 l 434 434 m 434 694 l 347 694 l 260 694 l 174 694 l 87 694 l 87 781 l 174 781 l 260 781 l 347 781 l 434 781 l 434 694 z "},"8":{"ha":608,"x_min":87,"x_max":521,"o":"m 347 87 l 434 87 l 434 0 l 347 0 l 260 0 l 174 0 l 174 87 l 260 87 l 347 87 m 434 87 l 434 174 l 434 260 l 434 347 l 521 347 l 521 260 l 521 174 l 521 87 l 434 87 m 174 87 l 87 87 l 87 174 l 87 260 l 87 347 l 174 347 l 174 260 l 174 174 l 174 87 m 434 347 l 347 347 l 260 347 l 174 347 l 174 434 l 260 434 l 347 434 l 434 434 l 434 347 m 434 434 l 434 521 l 434 608 l 434 694 l 521 694 l 521 608 l 521 521 l 521 434 l 434 434 m 174 434 l 87 434 l 87 521 l 87 608 l 87 694 l 174 694 l 174 608 l 174 521 l 174 434 m 434 694 l 347 694 l 260 694 l 174 694 l 174 781 l 260 781 l 347 781 l 434 781 l 434 694 z "},"9":{"ha":608,"x_min":87,"x_max":521,"o":"m 347 87 l 434 87 l 434 0 l 347 0 l 260 0 l 174 0 l 174 87 l 260 87 l 347 87 m 434 87 l 434 174 l 434 260 l 434 347 l 347 347 l 260 347 l 174 347 l 174 434 l 260 434 l 347 434 l 434 434 l 434 521 l 434 608 l 434 694 l 521 694 l 521 608 l 521 521 l 521 434 l 521 347 l 521 260 l 521 174 l 521 87 l 434 87 m 174 87 l 87 87 l 87 174 l 174 174 l 174 87 m 174 434 l 87 434 l 87 521 l 87 608 l 87 694 l 174 694 l 174 608 l 174 521 l 174 434 m 434 694 l 347 694 l 260 694 l 174 694 l 174 781 l 260 781 l 347 781 l 434 781 l 434 694 z "}," ":{"ha":434,"x_min":0,"x_max":0,"o":""},"!":{"ha":347,"x_min":0,"x_max":260,"o":"m 87 0 l 87 87 l 174 87 l 174 0 l 87 0 m 87 260 l 87 347 l 87 434 l 87 521 l 87 608 l 87 694 l 87 781 l 174 781 l 174 694 l 174 608 l 174 521 l 174 434 l 174 347 l 174 260 l 87 260 m 174 87 l 174 174 l 260 174 l 260 87 l 174 87 m 87 87 l 0 87 l 0 174 l 87 174 l 87 87 z "},"\"":{"ha":434,"x_min":0,"x_max":347,"o":"m 174 521 l 174 608 l 260 608 l 260 521 l 174 521 m 0 521 l 0 608 l 87 608 l 87 521 l 0 521 m 260 608 l 260 694 l 260 781 l 347 781 l 347 694 l 347 608 l 260 608 m 174 608 l 87 608 l 87 694 l 87 781 l 174 781 l 174 694 l 174 608 z "},"#":{"ha":694,"x_min":0,"x_max":608,"o":"m 347 87 l 347 174 l 347 260 l 260 260 l 174 260 l 174 174 l 174 87 l 87 87 l 87 174 l 87 260 l 0 260 l 0 347 l 87 347 l 87 434 l 87 521 l 0 521 l 0 608 l 87 608 l 87 694 l 87 781 l 174 781 l 174 694 l 174 608 l 260 608 l 347 608 l 347 694 l 347 781 l 434 781 l 434 694 l 434 608 l 521 608 l 608 608 l 608 521 l 521 521 l 434 521 l 434 434 l 434 347 l 521 347 l 608 347 l 608 260 l 521 260 l 434 260 l 434 174 l 434 87 l 347 87 m 260 347 l 347 347 l 347 434 l 347 521 l 260 521 l 174 521 l 174 434 l 174 347 l 260 347 z "},"$":{"ha":608,"x_min":0,"x_max":521,"o":"m 260 -87 l 260 0 l 174 0 l 87 0 l 87 87 l 174 87 l 260 87 l 260 174 l 260 260 l 260 347 l 260 434 l 174 434 l 87 434 l 87 521 l 0 521 l 0 608 l 0 694 l 87 694 l 87 781 l 174 781 l 260 781 l 260 868 l 347 868 l 347 781 l 434 781 l 434 694 l 521 694 l 521 608 l 434 608 l 434 694 l 347 694 l 347 608 l 347 521 l 434 521 l 434 434 l 521 434 l 521 347 l 521 260 l 521 174 l 521 87 l 434 87 l 434 174 l 434 260 l 434 347 l 434 434 l 347 434 l 347 347 l 347 260 l 347 174 l 347 87 l 434 87 l 434 0 l 347 0 l 347 -87 l 260 -87 m 87 87 l 0 87 l 0 174 l 0 260 l 87 260 l 87 174 l 87 87 m 174 521 l 260 521 l 260 608 l 260 694 l 174 694 l 87 694 l 87 608 l 87 521 l 174 521 z "},"%":{"ha":955,"x_min":0,"x_max":868,"o":"m 174 0 l 174 87 l 260 87 l 260 0 l 174 0 m 694 87 l 781 87 l 781 0 l 694 0 l 608 0 l 608 87 l 694 87 m 781 87 l 781 174 l 781 260 l 868 260 l 868 174 l 868 87 l 781 87 m 608 87 l 521 87 l 521 174 l 521 260 l 608 260 l 608 174 l 608 87 m 260 87 l 260 174 l 260 260 l 347 260 l 347 174 l 347 87 l 260 87 m 781 260 l 694 260 l 608 260 l 608 347 l 694 347 l 781 347 l 781 260 m 347 260 l 347 347 l 347 434 l 434 434 l 434 347 l 434 260 l 347 260 m 434 434 l 434 521 l 434 608 l 521 608 l 521 521 l 521 434 l 434 434 m 174 521 l 260 521 l 260 434 l 174 434 l 87 434 l 87 521 l 174 521 m 260 521 l 260 608 l 260 694 l 347 694 l 347 608 l 347 521 l 260 521 m 87 521 l 0 521 l 0 608 l 0 694 l 87 694 l 87 608 l 87 521 m 521 608 l 521 694 l 608 694 l 608 608 l 521 608 m 260 694 l 174 694 l 87 694 l 87 781 l 174 781 l 260 781 l 260 694 z "},"&":{"ha":694,"x_min":0,"x_max":608,"o":"m 521 0 l 521 87 l 608 87 l 608 0 l 521 0 m 174 87 l 260 87 l 260 0 l 174 0 l 87 0 l 87 87 l 174 87 m 521 87 l 434 87 l 434 174 l 521 174 l 521 87 m 260 87 l 260 174 l 347 174 l 347 87 l 260 87 m 87 87 l 0 87 l 0 174 l 0 260 l 87 260 l 87 174 l 87 87 m 434 174 l 347 174 l 347 260 l 434 260 l 434 174 m 434 260 l 434 347 l 521 347 l 521 260 l 434 260 m 347 260 l 260 260 l 260 347 l 347 347 l 347 260 m 87 260 l 87 347 l 174 347 l 174 260 l 87 260 m 260 347 l 174 347 l 174 434 l 260 434 l 260 347 m 260 434 l 260 521 l 347 521 l 347 434 l 260 434 m 174 434 l 87 434 l 87 521 l 174 521 l 174 434 m 347 521 l 347 608 l 347 694 l 434 694 l 434 608 l 434 521 l 347 521 m 87 521 l 0 521 l 0 608 l 0 694 l 87 694 l 87 608 l 87 521 m 347 694 l 260 694 l 174 694 l 87 694 l 87 781 l 174 781 l 260 781 l 347 781 l 347 694 z "},"'":{"ha":260,"x_min":0,"x_max":174,"o":"m 0 521 l 0 608 l 87 608 l 87 521 l 0 521 m 87 608 l 87 694 l 87 781 l 174 781 l 174 694 l 174 608 l 87 608 z "},"(":{"ha":347,"x_min":0,"x_max":260,"o":"m 174 -174 l 174 -87 l 260 -87 l 260 -174 l 174 -174 m 174 -87 l 87 -87 l 87 0 l 174 0 l 174 -87 m 87 0 l 0 0 l 0 87 l 0 174 l 0 260 l 0 347 l 0 434 l 0 521 l 0 608 l 87 608 l 87 521 l 87 434 l 87 347 l 87 260 l 87 174 l 87 87 l 87 0 m 87 608 l 87 694 l 174 694 l 174 608 l 87 608 m 174 694 l 174 781 l 260 781 l 260 694 l 174 694 z "},")":{"ha":347,"x_min":0,"x_max":260,"o":"m 0 -174 l 0 -87 l 87 -87 l 87 -174 l 0 -174 m 87 -87 l 87 0 l 174 0 l 174 -87 l 87 -87 m 174 0 l 174 87 l 174 174 l 174 260 l 174 347 l 174 434 l 174 521 l 174 608 l 260 608 l 260 521 l 260 434 l 260 347 l 260 260 l 260 174 l 260 87 l 260 0 l 174 0 m 174 608 l 87 608 l 87 694 l 174 694 l 174 608 m 87 694 l 0 694 l 0 781 l 87 781 l 87 694 z "},"*":{"ha":521,"x_min":0,"x_max":434,"o":"m 260 434 l 260 521 l 174 521 l 174 434 l 87 434 l 87 521 l 0 521 l 0 608 l 87 608 l 87 694 l 0 694 l 0 781 l 87 781 l 87 868 l 174 868 l 174 781 l 260 781 l 260 868 l 347 868 l 347 781 l 434 781 l 434 694 l 347 694 l 347 608 l 434 608 l 434 521 l 347 521 l 347 434 l 260 434 z "},"+":{"ha":608,"x_min":87,"x_max":521,"o":"m 260 174 l 260 260 l 260 347 l 174 347 l 87 347 l 87 434 l 174 434 l 260 434 l 260 521 l 260 608 l 347 608 l 347 521 l 347 434 l 434 434 l 521 434 l 521 347 l 434 347 l 347 347 l 347 260 l 347 174 l 260 174 z "},",":{"ha":260,"x_min":0,"x_max":174,"o":"m 0 -87 l 0 0 l 87 0 l 87 -87 l 0 -87 m 87 0 l 87 87 l 174 87 l 174 0 l 87 0 z "},"-":{"ha":434,"x_min":0,"x_max":347,"o":"m 260 347 l 347 347 l 347 260 l 260 260 l 174 260 l 87 260 l 0 260 l 0 347 l 87 347 l 174 347 l 260 347 z "},".":{"ha":174,"x_min":0,"x_max":87,"o":"m 0 0 l 0 87 l 87 87 l 87 0 l 0 0 z "},"/":{"ha":521,"x_min":0,"x_max":434,"o":"m 0 0 l 0 87 l 87 87 l 87 0 l 0 0 m 87 87 l 87 174 l 87 260 l 174 260 l 174 174 l 174 87 l 87 87 m 174 260 l 174 347 l 174 434 l 260 434 l 260 347 l 260 260 l 174 260 m 260 434 l 260 521 l 260 608 l 347 608 l 347 521 l 347 434 l 260 434 m 347 608 l 347 694 l 347 781 l 434 781 l 434 694 l 434 608 l 347 608 z "},":":{"ha":174,"x_min":0,"x_max":87,"o":"m 0 0 l 0 87 l 87 87 l 87 0 l 0 0 m 0 434 l 0 521 l 87 521 l 87 434 l 0 434 z "},";":{"ha":174,"x_min":-87,"x_max":87,"o":"m -87 -174 l -87 -87 l 0 -87 l 0 -174 l -87 -174 m 0 434 l 0 521 l 87 521 l 87 434 l 0 434 m 0 -87 l 0 0 l 0 87 l 87 87 l 87 0 l 87 -87 l 0 -87 z "},"<":{"ha":521,"x_min":0,"x_max":434,"o":"m 347 260 l 434 260 l 434 174 l 347 174 l 260 174 l 260 260 l 347 260 m 260 260 l 174 260 l 87 260 l 87 347 l 174 347 l 260 347 l 260 260 m 87 347 l 0 347 l 0 434 l 87 434 l 87 347 m 174 521 l 260 521 l 260 434 l 174 434 l 87 434 l 87 521 l 174 521 m 347 608 l 434 608 l 434 521 l 347 521 l 260 521 l 260 608 l 347 608 z "},"=":{"ha":521,"x_min":0,"x_max":434,"o":"m 347 347 l 434 347 l 434 260 l 347 260 l 260 260 l 174 260 l 87 260 l 0 260 l 0 347 l 87 347 l 174 347 l 260 347 l 347 347 m 347 608 l 434 608 l 434 521 l 347 521 l 260 521 l 174 521 l 87 521 l 0 521 l 0 608 l 87 608 l 174 608 l 260 608 l 347 608 z "},">":{"ha":521,"x_min":0,"x_max":434,"o":"m 87 260 l 174 260 l 174 174 l 87 174 l 0 174 l 0 260 l 87 260 m 260 347 l 347 347 l 347 260 l 260 260 l 174 260 l 174 347 l 260 347 m 347 347 l 347 434 l 434 434 l 434 347 l 347 347 m 347 434 l 260 434 l 174 434 l 174 521 l 260 521 l 347 521 l 347 434 m 174 521 l 87 521 l 0 521 l 0 608 l 87 608 l 174 608 l 174 521 z "},"?":{"ha":521,"x_min":0,"x_max":434,"o":"m 174 0 l 174 87 l 260 87 l 260 0 l 174 0 m 174 260 l 174 347 l 174 434 l 260 434 l 260 347 l 260 260 l 174 260 m 0 521 l 0 608 l 0 694 l 87 694 l 87 608 l 87 521 l 0 521 m 260 87 l 260 174 l 347 174 l 347 87 l 260 87 m 174 87 l 87 87 l 87 174 l 174 174 l 174 87 m 260 434 l 260 521 l 347 521 l 347 434 l 260 434 m 347 521 l 347 608 l 347 694 l 434 694 l 434 608 l 434 521 l 347 521 m 347 694 l 260 694 l 174 694 l 87 694 l 87 781 l 174 781 l 260 781 l 347 781 l 347 694 z "},"@":{"ha":868,"x_min":0,"x_max":781,"o":"m 608 87 l 608 174 l 694 174 l 694 87 l 608 87 m 608 0 l 694 0 l 694 -87 l 608 -87 l 521 -87 l 434 -87 l 347 -87 l 260 -87 l 174 -87 l 174 0 l 260 0 l 347 0 l 434 0 l 521 0 l 608 0 m 174 0 l 87 0 l 87 87 l 174 87 l 174 0 m 434 174 l 521 174 l 521 87 l 434 87 l 347 87 l 260 87 l 260 174 l 347 174 l 434 174 m 87 87 l 0 87 l 0 174 l 0 260 l 0 347 l 0 434 l 0 521 l 0 608 l 87 608 l 87 521 l 87 434 l 87 347 l 87 260 l 87 174 l 87 87 m 694 174 l 694 260 l 694 347 l 694 434 l 694 521 l 694 608 l 781 608 l 781 521 l 781 434 l 781 347 l 781 260 l 781 174 l 694 174 m 608 174 l 521 174 l 521 260 l 521 347 l 521 434 l 521 521 l 608 521 l 608 434 l 608 347 l 608 260 l 608 174 m 260 174 l 174 174 l 174 260 l 174 347 l 174 434 l 174 521 l 260 521 l 260 434 l 260 347 l 260 260 l 260 174 m 521 521 l 434 521 l 347 521 l 260 521 l 260 608 l 347 608 l 434 608 l 521 608 l 521 521 m 694 608 l 608 608 l 608 694 l 694 694 l 694 608 m 87 608 l 87 694 l 174 694 l 174 608 l 87 608 m 608 694 l 521 694 l 434 694 l 347 694 l 260 694 l 174 694 l 174 781 l 260 781 l 347 781 l 434 781 l 521 781 l 608 781 l 608 694 z "},"A":{"ha":694,"x_min":87,"x_max":608,"o":"m 521 0 l 521 87 l 521 174 l 521 260 l 521 347 l 434 347 l 347 347 l 260 347 l 174 347 l 174 260 l 174 174 l 174 87 l 174 0 l 87 0 l 87 87 l 87 174 l 87 260 l 87 347 l 87 434 l 87 521 l 87 608 l 174 608 l 174 521 l 174 434 l 260 434 l 347 434 l 434 434 l 521 434 l 521 521 l 521 608 l 608 608 l 608 521 l 608 434 l 608 347 l 608 260 l 608 174 l 608 87 l 608 0 l 521 0 m 521 608 l 434 608 l 434 694 l 521 694 l 521 608 m 174 608 l 174 694 l 260 694 l 260 608 l 174 608 m 434 694 l 347 694 l 260 694 l 260 781 l 347 781 l 434 781 l 434 694 z "},"B":{"ha":694,"x_min":87,"x_max":608,"o":"m 434 87 l 521 87 l 521 0 l 434 0 l 347 0 l 260 0 l 174 0 l 174 87 l 260 87 l 347 87 l 434 87 m 521 87 l 521 174 l 521 260 l 521 347 l 608 347 l 608 260 l 608 174 l 608 87 l 521 87 m 174 87 l 87 87 l 87 174 l 87 260 l 87 347 l 87 434 l 87 521 l 87 608 l 87 694 l 174 694 l 174 608 l 174 521 l 174 434 l 260 434 l 347 434 l 434 434 l 521 434 l 521 347 l 434 347 l 347 347 l 260 347 l 174 347 l 174 260 l 174 174 l 174 87 m 521 434 l 521 521 l 521 608 l 521 694 l 608 694 l 608 608 l 608 521 l 608 434 l 521 434 m 521 694 l 434 694 l 347 694 l 260 694 l 174 694 l 174 781 l 260 781 l 347 781 l 434 781 l 521 781 l 521 694 z "},"C":{"ha":781,"x_min":87,"x_max":694,"o":"m 608 608 l 608 694 l 694 694 l 694 608 l 608 608 m 521 87 l 608 87 l 608 0 l 521 0 l 434 0 l 347 0 l 260 0 l 260 87 l 347 87 l 434 87 l 521 87 m 608 87 l 608 174 l 694 174 l 694 87 l 608 87 m 260 87 l 174 87 l 174 174 l 260 174 l 260 87 m 174 174 l 87 174 l 87 260 l 87 347 l 87 434 l 87 521 l 87 608 l 174 608 l 174 521 l 174 434 l 174 347 l 174 260 l 174 174 m 174 608 l 174 694 l 260 694 l 260 608 l 174 608 m 608 694 l 521 694 l 434 694 l 347 694 l 260 694 l 260 781 l 347 781 l 434 781 l 521 781 l 608 781 l 608 694 z "},"D":{"ha":781,"x_min":87,"x_max":694,"o":"m 434 87 l 521 87 l 521 0 l 434 0 l 347 0 l 260 0 l 174 0 l 174 87 l 260 87 l 347 87 l 434 87 m 521 87 l 521 174 l 608 174 l 608 87 l 521 87 m 174 87 l 87 87 l 87 174 l 87 260 l 87 347 l 87 434 l 87 521 l 87 608 l 87 694 l 174 694 l 174 608 l 174 521 l 174 434 l 174 347 l 174 260 l 174 174 l 174 87 m 608 174 l 608 260 l 608 347 l 608 434 l 608 521 l 608 608 l 694 608 l 694 521 l 694 434 l 694 347 l 694 260 l 694 174 l 608 174 m 608 608 l 521 608 l 521 694 l 608 694 l 608 608 m 521 694 l 434 694 l 347 694 l 260 694 l 174 694 l 174 781 l 260 781 l 347 781 l 434 781 l 521 781 l 521 694 z "},"E":{"ha":694,"x_min":87,"x_max":608,"o":"m 521 87 l 608 87 l 608 0 l 521 0 l 434 0 l 347 0 l 260 0 l 174 0 l 174 87 l 260 87 l 347 87 l 434 87 l 521 87 m 174 87 l 87 87 l 87 174 l 87 260 l 87 347 l 87 434 l 87 521 l 87 608 l 87 694 l 174 694 l 174 608 l 174 521 l 174 434 l 260 434 l 347 434 l 434 434 l 521 434 l 521 347 l 434 347 l 347 347 l 260 347 l 174 347 l 174 260 l 174 174 l 174 87 m 521 781 l 608 781 l 608 694 l 521 694 l 434 694 l 347 694 l 260 694 l 174 694 l 174 781 l 260 781 l 347 781 l 434 781 l 521 781 z "},"F":{"ha":694,"x_min":87,"x_max":608,"o":"m 87 0 l 87 87 l 87 174 l 87 260 l 87 347 l 87 434 l 87 521 l 87 608 l 87 694 l 174 694 l 174 608 l 174 521 l 174 434 l 260 434 l 347 434 l 434 434 l 521 434 l 521 347 l 434 347 l 347 347 l 260 347 l 174 347 l 174 260 l 174 174 l 174 87 l 174 0 l 87 0 m 521 781 l 608 781 l 608 694 l 521 694 l 434 694 l 347 694 l 260 694 l 174 694 l 174 781 l 260 781 l 347 781 l 434 781 l 521 781 z "},"G":{"ha":781,"x_min":87,"x_max":694,"o":"m 608 608 l 608 694 l 694 694 l 694 608 l 608 608 m 521 87 l 608 87 l 608 0 l 521 0 l 434 0 l 347 0 l 260 0 l 174 0 l 174 87 l 260 87 l 347 87 l 434 87 l 521 87 m 608 87 l 608 174 l 608 260 l 608 347 l 694 347 l 694 260 l 694 174 l 694 87 l 608 87 m 174 87 l 87 87 l 87 174 l 87 260 l 87 347 l 87 434 l 87 521 l 87 608 l 87 694 l 174 694 l 174 608 l 174 521 l 174 434 l 174 347 l 174 260 l 174 174 l 174 87 m 608 347 l 521 347 l 434 347 l 347 347 l 347 434 l 434 434 l 521 434 l 608 434 l 608 347 m 608 694 l 521 694 l 434 694 l 347 694 l 260 694 l 174 694 l 174 781 l 260 781 l 347 781 l 434 781 l 521 781 l 608 781 l 608 694 z "},"H":{"ha":781,"x_min":87,"x_max":694,"o":"m 608 0 l 608 87 l 608 174 l 608 260 l 608 347 l 608 434 l 521 434 l 434 434 l 347 434 l 260 434 l 260 521 l 347 521 l 434 521 l 521 521 l 608 521 l 608 608 l 608 694 l 608 781 l 694 781 l 694 694 l 694 608 l 694 521 l 694 434 l 694 347 l 694 260 l 694 174 l 694 87 l 694 0 l 608 0 m 87 0 l 87 87 l 87 174 l 87 260 l 87 347 l 87 434 l 87 521 l 87 608 l 87 694 l 87 781 l 174 781 l 174 694 l 174 608 l 174 521 l 174 434 l 174 347 l 174 260 l 174 174 l 174 87 l 174 0 l 87 0 z "},"I":{"ha":347,"x_min":0,"x_max":260,"o":"m 174 0 l 87 0 l 0 0 l 0 87 l 87 87 l 87 174 l 87 260 l 87 347 l 87 434 l 87 521 l 87 608 l 87 694 l 0 694 l 0 781 l 87 781 l 174 781 l 260 781 l 260 694 l 174 694 l 174 608 l 174 521 l 174 434 l 174 347 l 174 260 l 174 174 l 174 87 l 260 87 l 260 0 l 174 0 z "},"J":{"ha":608,"x_min":87,"x_max":521,"o":"m 260 87 l 347 87 l 347 0 l 260 0 l 174 0 l 174 87 l 260 87 m 347 87 l 347 174 l 347 260 l 347 347 l 347 434 l 347 521 l 347 608 l 347 694 l 260 694 l 260 781 l 347 781 l 434 781 l 521 781 l 521 694 l 434 694 l 434 608 l 434 521 l 434 434 l 434 347 l 434 260 l 434 174 l 434 87 l 347 87 m 174 87 l 87 87 l 87 174 l 87 260 l 174 260 l 174 174 l 174 87 z "},"K":{"ha":781,"x_min":87,"x_max":694,"o":"m 608 0 l 608 87 l 608 174 l 694 174 l 694 87 l 694 0 l 608 0 m 87 0 l 87 87 l 87 174 l 87 260 l 87 347 l 87 434 l 87 521 l 87 608 l 87 694 l 87 781 l 174 781 l 174 694 l 174 608 l 174 521 l 174 434 l 174 347 l 174 260 l 174 174 l 174 87 l 174 0 l 87 0 m 608 174 l 521 174 l 521 260 l 608 260 l 608 174 m 521 260 l 434 260 l 434 347 l 521 347 l 521 260 m 434 347 l 347 347 l 260 347 l 260 434 l 347 434 l 434 434 l 434 347 m 434 434 l 434 521 l 521 521 l 521 434 l 434 434 m 521 521 l 521 608 l 608 608 l 608 521 l 521 521 m 608 608 l 608 694 l 608 781 l 694 781 l 694 694 l 694 608 l 608 608 z "},"L":{"ha":608,"x_min":87,"x_max":521,"o":"m 434 87 l 521 87 l 521 0 l 434 0 l 347 0 l 260 0 l 174 0 l 174 87 l 260 87 l 347 87 l 434 87 m 174 87 l 87 87 l 87 174 l 87 260 l 87 347 l 87 434 l 87 521 l 87 608 l 87 694 l 87 781 l 174 781 l 174 694 l 174 608 l 174 521 l 174 434 l 174 347 l 174 260 l 174 174 l 174 87 z "},"M":{"ha":868,"x_min":87,"x_max":781,"o":"m 694 0 l 694 87 l 694 174 l 694 260 l 694 347 l 694 434 l 694 521 l 694 608 l 694 694 l 781 694 l 781 608 l 781 521 l 781 434 l 781 347 l 781 260 l 781 174 l 781 87 l 781 0 l 694 0 m 87 0 l 87 87 l 87 174 l 87 260 l 87 347 l 87 434 l 87 521 l 87 608 l 87 694 l 174 694 l 174 608 l 174 521 l 174 434 l 174 347 l 174 260 l 174 174 l 174 87 l 174 0 l 87 0 m 434 347 l 434 434 l 434 521 l 434 608 l 434 694 l 521 694 l 521 608 l 521 521 l 521 434 l 521 347 l 434 347 m 694 694 l 608 694 l 521 694 l 521 781 l 608 781 l 694 781 l 694 694 m 434 694 l 347 694 l 260 694 l 174 694 l 174 781 l 260 781 l 347 781 l 434 781 l 434 694 z "},"N":{"ha":781,"x_min":87,"x_max":694,"o":"m 521 0 l 521 87 l 608 87 l 608 0 l 521 0 m 87 0 l 87 87 l 87 174 l 87 260 l 87 347 l 87 434 l 87 521 l 87 608 l 87 694 l 174 694 l 174 608 l 174 521 l 174 434 l 174 347 l 174 260 l 174 174 l 174 87 l 174 0 l 87 0 m 608 87 l 608 174 l 608 260 l 608 347 l 608 434 l 608 521 l 608 608 l 608 694 l 608 781 l 694 781 l 694 694 l 694 608 l 694 521 l 694 434 l 694 347 l 694 260 l 694 174 l 694 87 l 608 87 m 521 87 l 434 87 l 434 174 l 434 260 l 521 260 l 521 174 l 521 87 m 434 260 l 347 260 l 347 347 l 347 434 l 347 521 l 434 521 l 434 434 l 434 347 l 434 260 m 347 521 l 260 521 l 260 608 l 260 694 l 347 694 l 347 608 l 347 521 m 260 694 l 174 694 l 174 781 l 260 781 l 260 694 z "},"O":{"ha":868,"x_min":87,"x_max":781,"o":"m 521 87 l 608 87 l 608 0 l 521 0 l 434 0 l 347 0 l 260 0 l 260 87 l 347 87 l 434 87 l 521 87 m 608 87 l 608 174 l 694 174 l 694 87 l 608 87 m 260 87 l 174 87 l 174 174 l 260 174 l 260 87 m 694 174 l 694 260 l 694 347 l 694 434 l 694 521 l 694 608 l 781 608 l 781 521 l 781 434 l 781 347 l 781 260 l 781 174 l 694 174 m 174 174 l 87 174 l 87 260 l 87 347 l 87 434 l 87 521 l 87 608 l 174 608 l 174 521 l 174 434 l 174 347 l 174 260 l 174 174 m 694 608 l 608 608 l 608 694 l 694 694 l 694 608 m 174 608 l 174 694 l 260 694 l 260 608 l 174 608 m 608 694 l 521 694 l 434 694 l 347 694 l 260 694 l 260 781 l 347 781 l 434 781 l 521 781 l 608 781 l 608 694 z "},"P":{"ha":694,"x_min":87,"x_max":608,"o":"m 87 0 l 87 87 l 87 174 l 87 260 l 87 347 l 87 434 l 87 521 l 87 608 l 87 694 l 174 694 l 174 608 l 174 521 l 174 434 l 260 434 l 347 434 l 434 434 l 521 434 l 521 347 l 434 347 l 347 347 l 260 347 l 174 347 l 174 260 l 174 174 l 174 87 l 174 0 l 87 0 m 521 434 l 521 521 l 521 608 l 521 694 l 608 694 l 608 608 l 608 521 l 608 434 l 521 434 m 521 694 l 434 694 l 347 694 l 260 694 l 174 694 l 174 781 l 260 781 l 347 781 l 434 781 l 521 781 l 521 694 z "},"Q":{"ha":955,"x_min":87,"x_max":868,"o":"m 781 87 l 868 87 l 868 0 l 781 0 l 694 0 l 694 87 l 781 87 m 521 87 l 608 87 l 608 0 l 521 0 l 434 0 l 347 0 l 260 0 l 260 87 l 347 87 l 434 87 l 521 87 m 694 87 l 608 87 l 608 174 l 694 174 l 694 87 m 260 87 l 174 87 l 174 174 l 260 174 l 260 87 m 694 174 l 694 260 l 694 347 l 694 434 l 694 521 l 694 608 l 781 608 l 781 521 l 781 434 l 781 347 l 781 260 l 781 174 l 694 174 m 608 174 l 521 174 l 521 260 l 608 260 l 608 174 m 174 174 l 87 174 l 87 260 l 87 347 l 87 434 l 87 521 l 87 608 l 174 608 l 174 521 l 174 434 l 174 347 l 174 260 l 174 174 m 694 608 l 608 608 l 608 694 l 694 694 l 694 608 m 174 608 l 174 694 l 260 694 l 260 608 l 174 608 m 608 694 l 521 694 l 434 694 l 347 694 l 260 694 l 260 781 l 347 781 l 434 781 l 521 781 l 608 781 l 608 694 z "},"R":{"ha":868,"x_min":87,"x_max":781,"o":"m 87 0 l 87 87 l 87 174 l 87 260 l 87 347 l 87 434 l 87 521 l 87 608 l 87 694 l 174 694 l 174 608 l 174 521 l 174 434 l 174 347 l 174 260 l 174 174 l 174 87 l 174 0 l 87 0 m 694 0 l 608 0 l 608 87 l 608 174 l 608 260 l 608 347 l 694 347 l 694 260 l 694 174 l 694 87 l 781 87 l 781 0 l 694 0 m 608 347 l 521 347 l 434 347 l 347 347 l 260 347 l 260 434 l 347 434 l 434 434 l 521 434 l 608 434 l 608 347 m 608 434 l 608 521 l 608 608 l 608 694 l 694 694 l 694 608 l 694 521 l 694 434 l 608 434 m 608 694 l 521 694 l 434 694 l 347 694 l 260 694 l 174 694 l 174 781 l 260 781 l 347 781 l 434 781 l 521 781 l 608 781 l 608 694 z "},"S":{"ha":781,"x_min":87,"x_max":694,"o":"m 608 608 l 608 694 l 694 694 l 694 608 l 608 608 m 521 87 l 608 87 l 608 0 l 521 0 l 434 0 l 347 0 l 260 0 l 174 0 l 174 87 l 260 87 l 347 87 l 434 87 l 521 87 m 608 87 l 608 174 l 608 260 l 608 347 l 608 434 l 694 434 l 694 347 l 694 260 l 694 174 l 694 87 l 608 87 m 174 87 l 87 87 l 87 174 l 87 260 l 174 260 l 174 174 l 174 87 m 608 434 l 521 434 l 434 434 l 347 434 l 260 434 l 174 434 l 174 521 l 260 521 l 347 521 l 434 521 l 521 521 l 608 521 l 608 434 m 174 521 l 87 521 l 87 608 l 87 694 l 174 694 l 174 608 l 174 521 m 608 694 l 521 694 l 434 694 l 347 694 l 260 694 l 174 694 l 174 781 l 260 781 l 347 781 l 434 781 l 521 781 l 608 781 l 608 694 z "},"T":{"ha":781,"x_min":87,"x_max":694,"o":"m 347 0 l 347 87 l 347 174 l 347 260 l 347 347 l 347 434 l 347 521 l 347 608 l 347 694 l 260 694 l 174 694 l 87 694 l 87 781 l 174 781 l 260 781 l 347 781 l 434 781 l 521 781 l 608 781 l 694 781 l 694 694 l 608 694 l 521 694 l 434 694 l 434 608 l 434 521 l 434 434 l 434 347 l 434 260 l 434 174 l 434 87 l 434 0 l 347 0 z "},"U":{"ha":781,"x_min":87,"x_max":694,"o":"m 434 87 l 521 87 l 521 0 l 434 0 l 347 0 l 260 0 l 260 87 l 347 87 l 434 87 m 521 87 l 521 174 l 608 174 l 608 87 l 521 87 m 260 87 l 174 87 l 174 174 l 260 174 l 260 87 m 608 174 l 608 260 l 608 347 l 608 434 l 608 521 l 608 608 l 608 694 l 608 781 l 694 781 l 694 694 l 694 608 l 694 521 l 694 434 l 694 347 l 694 260 l 694 174 l 608 174 m 174 174 l 87 174 l 87 260 l 87 347 l 87 434 l 87 521 l 87 608 l 87 694 l 87 781 l 174 781 l 174 694 l 174 608 l 174 521 l 174 434 l 174 347 l 174 260 l 174 174 z "},"V":{"ha":781,"x_min":87,"x_max":694,"o":"m 347 0 l 347 87 l 434 87 l 434 0 l 347 0 m 434 87 l 434 174 l 521 174 l 521 87 l 434 87 m 347 87 l 260 87 l 260 174 l 347 174 l 347 87 m 521 174 l 521 260 l 521 347 l 608 347 l 608 260 l 608 174 l 521 174 m 260 174 l 174 174 l 174 260 l 174 347 l 260 347 l 260 260 l 260 174 m 608 347 l 608 434 l 608 521 l 608 608 l 608 694 l 608 781 l 694 781 l 694 694 l 694 608 l 694 521 l 694 434 l 694 347 l 608 347 m 174 347 l 87 347 l 87 434 l 87 521 l 87 608 l 87 694 l 87 781 l 174 781 l 174 694 l 174 608 l 174 521 l 174 434 l 174 347 z "},"W":{"ha":868,"x_min":87,"x_max":781,"o":"m 608 87 l 694 87 l 694 0 l 608 0 l 521 0 l 521 87 l 608 87 m 347 87 l 434 87 l 434 0 l 347 0 l 260 0 l 174 0 l 174 87 l 260 87 l 347 87 m 694 87 l 694 174 l 694 260 l 694 347 l 694 434 l 694 521 l 694 608 l 694 694 l 694 781 l 781 781 l 781 694 l 781 608 l 781 521 l 781 434 l 781 347 l 781 260 l 781 174 l 781 87 l 694 87 m 521 87 l 434 87 l 434 174 l 434 260 l 434 347 l 434 434 l 521 434 l 521 347 l 521 260 l 521 174 l 521 87 m 174 87 l 87 87 l 87 174 l 87 260 l 87 347 l 87 434 l 87 521 l 87 608 l 87 694 l 87 781 l 174 781 l 174 694 l 174 608 l 174 521 l 174 434 l 174 347 l 174 260 l 174 174 l 174 87 z "},"X":{"ha":694,"x_min":87,"x_max":608,"o":"m 521 0 l 521 87 l 521 174 l 521 260 l 521 347 l 608 347 l 608 260 l 608 174 l 608 87 l 608 0 l 521 0 m 87 0 l 87 87 l 87 174 l 87 260 l 87 347 l 174 347 l 174 260 l 174 174 l 174 87 l 174 0 l 87 0 m 521 347 l 434 347 l 434 434 l 521 434 l 521 347 m 174 347 l 174 434 l 260 434 l 260 347 l 174 347 m 434 434 l 347 434 l 260 434 l 260 521 l 347 521 l 434 521 l 434 434 m 434 521 l 434 608 l 521 608 l 521 521 l 434 521 m 260 521 l 174 521 l 174 608 l 260 608 l 260 521 m 521 608 l 521 694 l 521 781 l 608 781 l 608 694 l 608 608 l 521 608 m 174 608 l 87 608 l 87 694 l 87 781 l 174 781 l 174 694 l 174 608 z "},"Y":{"ha":781,"x_min":87,"x_max":694,"o":"m 347 0 l 347 87 l 347 174 l 347 260 l 347 347 l 434 347 l 434 260 l 434 174 l 434 87 l 434 0 l 347 0 m 434 347 l 434 434 l 521 434 l 521 347 l 434 347 m 347 347 l 260 347 l 260 434 l 347 434 l 347 347 m 521 434 l 521 521 l 608 521 l 608 434 l 521 434 m 260 434 l 174 434 l 174 521 l 260 521 l 260 434 m 608 521 l 608 608 l 608 694 l 608 781 l 694 781 l 694 694 l 694 608 l 694 521 l 608 521 m 174 521 l 87 521 l 87 608 l 87 694 l 87 781 l 174 781 l 174 694 l 174 608 l 174 521 z "},"Z":{"ha":694,"x_min":87,"x_max":608,"o":"m 521 87 l 608 87 l 608 0 l 521 0 l 434 0 l 347 0 l 260 0 l 174 0 l 174 87 l 260 87 l 347 87 l 434 87 l 521 87 m 174 87 l 87 87 l 87 174 l 87 260 l 174 260 l 174 174 l 174 87 m 174 260 l 174 347 l 260 347 l 260 260 l 174 260 m 260 347 l 260 434 l 347 434 l 347 347 l 260 347 m 347 434 l 347 521 l 434 521 l 434 434 l 347 434 m 434 521 l 434 608 l 521 608 l 521 521 l 434 521 m 521 608 l 521 694 l 608 694 l 608 608 l 521 608 m 521 694 l 434 694 l 347 694 l 260 694 l 174 694 l 87 694 l 87 781 l 174 781 l 260 781 l 347 781 l 434 781 l 521 781 l 521 694 z "},"[":{"ha":347,"x_min":0,"x_max":260,"o":"m 174 -87 l 260 -87 l 260 -174 l 174 -174 l 87 -174 l 87 -87 l 174 -87 m 87 -87 l 0 -87 l 0 0 l 0 87 l 0 174 l 0 260 l 0 347 l 0 434 l 0 521 l 0 608 l 0 694 l 87 694 l 87 608 l 87 521 l 87 434 l 87 347 l 87 260 l 87 174 l 87 87 l 87 0 l 87 -87 m 174 781 l 260 781 l 260 694 l 174 694 l 87 694 l 87 781 l 174 781 z "},"\\":{"ha":521,"x_min":0,"x_max":434,"o":"m 347 0 l 347 87 l 434 87 l 434 0 l 347 0 m 347 87 l 260 87 l 260 174 l 260 260 l 347 260 l 347 174 l 347 87 m 260 260 l 174 260 l 174 347 l 174 434 l 260 434 l 260 347 l 260 260 m 174 434 l 87 434 l 87 521 l 87 608 l 174 608 l 174 521 l 174 434 m 87 608 l 0 608 l 0 694 l 0 781 l 87 781 l 87 694 l 87 608 z "},"]":{"ha":347,"x_min":0,"x_max":260,"o":"m 87 -87 l 174 -87 l 174 -174 l 87 -174 l 0 -174 l 0 -87 l 87 -87 m 174 -87 l 174 0 l 174 87 l 174 174 l 174 260 l 174 347 l 174 434 l 174 521 l 174 608 l 174 694 l 260 694 l 260 608 l 260 521 l 260 434 l 260 347 l 260 260 l 260 174 l 260 87 l 260 0 l 260 -87 l 174 -87 m 174 694 l 87 694 l 0 694 l 0 781 l 87 781 l 174 781 l 174 694 z "},"^":{"ha":521,"x_min":0,"x_max":434,"o":"m 347 521 l 347 608 l 434 608 l 434 521 l 347 521 m 0 521 l 0 608 l 87 608 l 87 521 l 0 521 m 347 608 l 260 608 l 260 694 l 347 694 l 347 608 m 87 608 l 87 694 l 174 694 l 174 608 l 87 608 m 260 694 l 174 694 l 174 781 l 260 781 l 260 694 z "},"_":{"ha":694,"x_min":0,"x_max":608,"o":"m 521 -87 l 608 -87 l 608 -174 l 521 -174 l 434 -174 l 347 -174 l 260 -174 l 174 -174 l 87 -174 l 0 -174 l 0 -87 l 87 -87 l 174 -87 l 260 -87 l 347 -87 l 434 -87 l 521 -87 z "},"`":{"ha":347,"x_min":87,"x_max":260,"o":"m 174 608 l 174 694 l 260 694 l 260 608 l 174 608 m 174 694 l 87 694 l 87 781 l 174 781 l 174 694 z "},"a":{"ha":694,"x_min":87,"x_max":608,"o":"m 521 0 l 521 87 l 608 87 l 608 0 l 521 0 m 347 87 l 434 87 l 434 0 l 347 0 l 260 0 l 174 0 l 174 87 l 260 87 l 347 87 m 521 87 l 434 87 l 434 174 l 434 260 l 434 347 l 434 434 l 521 434 l 521 347 l 521 260 l 521 174 l 521 87 m 174 87 l 87 87 l 87 174 l 87 260 l 87 347 l 87 434 l 174 434 l 174 347 l 174 260 l 174 174 l 174 87 m 434 434 l 347 434 l 260 434 l 174 434 l 174 521 l 260 521 l 347 521 l 434 521 l 434 434 z "},"b":{"ha":608,"x_min":87,"x_max":521,"o":"m 347 87 l 434 87 l 434 0 l 347 0 l 260 0 l 174 0 l 174 87 l 260 87 l 347 87 m 434 87 l 434 174 l 434 260 l 434 347 l 434 434 l 521 434 l 521 347 l 521 260 l 521 174 l 521 87 l 434 87 m 174 87 l 87 87 l 87 174 l 87 260 l 87 347 l 87 434 l 87 521 l 87 608 l 87 694 l 87 781 l 174 781 l 174 694 l 174 608 l 174 521 l 260 521 l 347 521 l 434 521 l 434 434 l 347 434 l 260 434 l 174 434 l 174 347 l 174 260 l 174 174 l 174 87 z "},"c":{"ha":608,"x_min":87,"x_max":521,"o":"m 434 347 l 434 434 l 521 434 l 521 347 l 434 347 m 347 87 l 434 87 l 434 0 l 347 0 l 260 0 l 174 0 l 174 87 l 260 87 l 347 87 m 434 87 l 434 174 l 521 174 l 521 87 l 434 87 m 174 87 l 87 87 l 87 174 l 87 260 l 87 347 l 87 434 l 174 434 l 174 347 l 174 260 l 174 174 l 174 87 m 434 434 l 347 434 l 260 434 l 174 434 l 174 521 l 260 521 l 347 521 l 434 521 l 434 434 z "},"d":{"ha":608,"x_min":87,"x_max":521,"o":"m 347 87 l 434 87 l 434 0 l 347 0 l 260 0 l 174 0 l 174 87 l 260 87 l 347 87 m 434 87 l 434 174 l 434 260 l 434 347 l 434 434 l 347 434 l 260 434 l 174 434 l 174 347 l 174 260 l 174 174 l 174 87 l 87 87 l 87 174 l 87 260 l 87 347 l 87 434 l 174 434 l 174 521 l 260 521 l 347 521 l 434 521 l 434 608 l 434 694 l 434 781 l 521 781 l 521 694 l 521 608 l 521 521 l 521 434 l 521 347 l 521 260 l 521 174 l 521 87 l 434 87 z "},"e":{"ha":608,"x_min":87,"x_max":521,"o":"m 347 87 l 434 87 l 434 0 l 347 0 l 260 0 l 174 0 l 174 87 l 260 87 l 347 87 m 434 87 l 434 174 l 521 174 l 521 87 l 434 87 m 174 87 l 87 87 l 87 174 l 87 260 l 87 347 l 87 434 l 174 434 l 174 347 l 260 347 l 347 347 l 434 347 l 434 260 l 347 260 l 260 260 l 174 260 l 174 174 l 174 87 m 434 347 l 434 434 l 521 434 l 521 347 l 434 347 m 434 434 l 347 434 l 260 434 l 174 434 l 174 521 l 260 521 l 347 521 l 434 521 l 434 434 z "},"f":{"ha":608,"x_min":0,"x_max":521,"o":"m 87 -260 l 87 -174 l 174 -174 l 174 -260 l 87 -260 m 434 521 l 434 608 l 521 608 l 521 521 l 434 521 m 174 -174 l 174 -87 l 174 0 l 174 87 l 174 174 l 174 260 l 174 347 l 87 347 l 87 434 l 174 434 l 174 521 l 174 608 l 260 608 l 260 521 l 260 434 l 347 434 l 347 347 l 260 347 l 260 260 l 260 174 l 260 87 l 260 0 l 260 -87 l 260 -174 l 174 -174 m 87 -174 l 0 -174 l 0 -87 l 87 -87 l 87 -174 m 434 608 l 347 608 l 260 608 l 260 694 l 347 694 l 434 694 l 434 608 z "},"g":{"ha":608,"x_min":87,"x_max":521,"o":"m 347 -174 l 434 -174 l 434 -260 l 347 -260 l 260 -260 l 174 -260 l 174 -174 l 260 -174 l 347 -174 m 434 -174 l 434 -87 l 434 0 l 434 87 l 347 87 l 260 87 l 174 87 l 174 174 l 260 174 l 347 174 l 434 174 l 434 260 l 434 347 l 434 434 l 521 434 l 521 347 l 521 260 l 521 174 l 521 87 l 521 0 l 521 -87 l 521 -174 l 434 -174 m 174 -174 l 87 -174 l 87 -87 l 174 -87 l 174 -174 m 174 174 l 87 174 l 87 260 l 87 347 l 87 434 l 174 434 l 174 347 l 174 260 l 174 174 m 434 434 l 347 434 l 260 434 l 174 434 l 174 521 l 260 521 l 347 521 l 434 521 l 434 434 z "},"h":{"ha":608,"x_min":87,"x_max":521,"o":"m 434 0 l 434 87 l 434 174 l 434 260 l 434 347 l 434 434 l 521 434 l 521 347 l 521 260 l 521 174 l 521 87 l 521 0 l 434 0 m 87 0 l 87 87 l 87 174 l 87 260 l 87 347 l 87 434 l 87 521 l 87 608 l 87 694 l 87 781 l 174 781 l 174 694 l 174 608 l 174 521 l 260 521 l 347 521 l 434 521 l 434 434 l 347 434 l 260 434 l 174 434 l 174 347 l 174 260 l 174 174 l 174 87 l 174 0 l 87 0 z "},"i":{"ha":347,"x_min":0,"x_max":260,"o":"m 87 0 l 87 87 l 87 174 l 87 260 l 87 347 l 87 434 l 87 521 l 174 521 l 174 434 l 174 347 l 174 260 l 174 174 l 174 87 l 174 0 l 87 0 m 87 608 l 87 694 l 174 694 l 174 608 l 87 608 m 174 694 l 174 781 l 260 781 l 260 694 l 174 694 m 87 694 l 0 694 l 0 781 l 87 781 l 87 694 z "},"j":{"ha":347,"x_min":-87,"x_max":260,"o":"m 0 -260 l 0 -174 l 87 -174 l 87 -260 l 0 -260 m 87 608 l 87 694 l 174 694 l 174 608 l 87 608 m 87 -174 l 87 -87 l 87 0 l 87 87 l 87 174 l 87 260 l 87 347 l 87 434 l 87 521 l 174 521 l 174 434 l 174 347 l 174 260 l 174 174 l 174 87 l 174 0 l 174 -87 l 174 -174 l 87 -174 m 0 -174 l -87 -174 l -87 -87 l 0 -87 l 0 -174 m 174 694 l 174 781 l 260 781 l 260 694 l 174 694 m 87 694 l 0 694 l 0 781 l 87 781 l 87 694 z "},"k":{"ha":608,"x_min":87,"x_max":521,"o":"m 434 0 l 434 87 l 434 174 l 521 174 l 521 87 l 521 0 l 434 0 m 87 0 l 87 87 l 87 174 l 87 260 l 87 347 l 87 434 l 87 521 l 87 608 l 87 694 l 87 781 l 174 781 l 174 694 l 174 608 l 174 521 l 174 434 l 174 347 l 260 347 l 347 347 l 347 260 l 434 260 l 434 174 l 347 174 l 347 260 l 260 260 l 174 260 l 174 174 l 174 87 l 174 0 l 87 0 m 347 347 l 347 434 l 434 434 l 434 347 l 347 347 m 434 434 l 434 521 l 521 521 l 521 434 l 434 434 z "},"l":{"ha":434,"x_min":87,"x_max":347,"o":"m 174 0 l 174 87 l 260 87 l 260 0 l 174 0 m 260 87 l 260 174 l 347 174 l 347 87 l 260 87 m 174 87 l 87 87 l 87 174 l 87 260 l 87 347 l 87 434 l 87 521 l 87 608 l 87 694 l 87 781 l 174 781 l 174 694 l 174 608 l 174 521 l 174 434 l 174 347 l 174 260 l 174 174 l 174 87 z "},"m":{"ha":868,"x_min":87,"x_max":781,"o":"m 694 0 l 694 87 l 694 174 l 694 260 l 694 347 l 694 434 l 781 434 l 781 347 l 781 260 l 781 174 l 781 87 l 781 0 l 694 0 m 434 0 l 434 87 l 434 174 l 434 260 l 434 347 l 434 434 l 521 434 l 521 347 l 521 260 l 521 174 l 521 87 l 521 0 l 434 0 m 87 0 l 87 87 l 87 174 l 87 260 l 87 347 l 87 434 l 174 434 l 174 347 l 174 260 l 174 174 l 174 87 l 174 0 l 87 0 m 694 434 l 608 434 l 521 434 l 521 521 l 608 521 l 694 521 l 694 434 m 434 434 l 347 434 l 260 434 l 174 434 l 174 521 l 260 521 l 347 521 l 434 521 l 434 434 z "},"n":{"ha":608,"x_min":87,"x_max":521,"o":"m 434 0 l 434 87 l 434 174 l 434 260 l 434 347 l 434 434 l 521 434 l 521 347 l 521 260 l 521 174 l 521 87 l 521 0 l 434 0 m 87 0 l 87 87 l 87 174 l 87 260 l 87 347 l 87 434 l 174 434 l 174 347 l 174 260 l 174 174 l 174 87 l 174 0 l 87 0 m 434 434 l 347 434 l 260 434 l 174 434 l 174 521 l 260 521 l 347 521 l 434 521 l 434 434 z "},"o":{"ha":608,"x_min":87,"x_max":521,"o":"m 347 87 l 434 87 l 434 0 l 347 0 l 260 0 l 174 0 l 174 87 l 260 87 l 347 87 m 434 87 l 434 174 l 434 260 l 434 347 l 434 434 l 521 434 l 521 347 l 521 260 l 521 174 l 521 87 l 434 87 m 174 87 l 87 87 l 87 174 l 87 260 l 87 347 l 87 434 l 174 434 l 174 347 l 174 260 l 174 174 l 174 87 m 434 434 l 347 434 l 260 434 l 174 434 l 174 521 l 260 521 l 347 521 l 434 521 l 434 434 z "},"p":{"ha":608,"x_min":87,"x_max":521,"o":"m 87 -260 l 87 -174 l 87 -87 l 87 0 l 87 87 l 87 174 l 87 260 l 87 347 l 87 434 l 174 434 l 174 347 l 174 260 l 174 174 l 174 87 l 260 87 l 347 87 l 434 87 l 434 0 l 347 0 l 260 0 l 174 0 l 174 -87 l 174 -174 l 174 -260 l 87 -260 m 434 87 l 434 174 l 434 260 l 434 347 l 434 434 l 521 434 l 521 347 l 521 260 l 521 174 l 521 87 l 434 87 m 434 434 l 347 434 l 260 434 l 174 434 l 174 521 l 260 521 l 347 521 l 434 521 l 434 434 z "},"q":{"ha":608,"x_min":87,"x_max":521,"o":"m 434 -260 l 434 -174 l 434 -87 l 434 0 l 347 0 l 260 0 l 174 0 l 174 87 l 260 87 l 347 87 l 434 87 l 434 174 l 434 260 l 434 347 l 434 434 l 521 434 l 521 347 l 521 260 l 521 174 l 521 87 l 521 0 l 521 -87 l 521 -174 l 521 -260 l 434 -260 m 174 87 l 87 87 l 87 174 l 87 260 l 87 347 l 87 434 l 174 434 l 174 347 l 174 260 l 174 174 l 174 87 m 434 434 l 347 434 l 260 434 l 174 434 l 174 521 l 260 521 l 347 521 l 434 521 l 434 434 z "},"r":{"ha":521,"x_min":87,"x_max":434,"o":"m 87 0 l 87 87 l 87 174 l 87 260 l 87 347 l 87 434 l 87 521 l 174 521 l 174 434 l 260 434 l 260 347 l 174 347 l 174 260 l 174 174 l 174 87 l 174 0 l 87 0 m 347 521 l 434 521 l 434 434 l 347 434 l 260 434 l 260 521 l 347 521 z "},"s":{"ha":608,"x_min":87,"x_max":521,"o":"m 347 87 l 434 87 l 434 0 l 347 0 l 260 0 l 174 0 l 174 87 l 260 87 l 347 87 m 434 87 l 434 174 l 434 260 l 521 260 l 521 174 l 521 87 l 434 87 m 174 87 l 87 87 l 87 174 l 174 174 l 174 87 m 434 260 l 347 260 l 260 260 l 174 260 l 174 347 l 260 347 l 347 347 l 434 347 l 434 260 m 174 347 l 87 347 l 87 434 l 174 434 l 174 347 m 347 521 l 434 521 l 434 434 l 347 434 l 260 434 l 174 434 l 174 521 l 260 521 l 347 521 z "},"t":{"ha":434,"x_min":0,"x_max":347,"o":"m 260 87 l 347 87 l 347 0 l 260 0 l 174 0 l 174 87 l 260 87 m 174 87 l 87 87 l 87 174 l 87 260 l 87 347 l 87 434 l 0 434 l 0 521 l 87 521 l 87 608 l 87 694 l 174 694 l 174 608 l 174 521 l 260 521 l 347 521 l 347 434 l 260 434 l 174 434 l 174 347 l 174 260 l 174 174 l 174 87 z "},"u":{"ha":608,"x_min":87,"x_max":521,"o":"m 434 0 l 434 87 l 347 87 l 347 0 l 260 0 l 174 0 l 174 87 l 260 87 l 347 87 l 347 174 l 434 174 l 434 260 l 434 347 l 434 434 l 434 521 l 521 521 l 521 434 l 521 347 l 521 260 l 521 174 l 521 87 l 521 0 l 434 0 m 174 87 l 87 87 l 87 174 l 87 260 l 87 347 l 87 434 l 87 521 l 174 521 l 174 434 l 174 347 l 174 260 l 174 174 l 174 87 z "},"v":{"ha":608,"x_min":87,"x_max":521,"o":"m 260 0 l 260 87 l 347 87 l 347 0 l 260 0 m 347 87 l 347 174 l 347 260 l 434 260 l 434 174 l 434 87 l 347 87 m 260 87 l 174 87 l 174 174 l 174 260 l 260 260 l 260 174 l 260 87 m 434 260 l 434 347 l 434 434 l 434 521 l 521 521 l 521 434 l 521 347 l 521 260 l 434 260 m 174 260 l 87 260 l 87 347 l 87 434 l 87 521 l 174 521 l 174 434 l 174 347 l 174 260 z "},"w":{"ha":868,"x_min":87,"x_max":781,"o":"m 608 87 l 694 87 l 694 0 l 608 0 l 521 0 l 521 87 l 608 87 m 347 87 l 434 87 l 434 0 l 347 0 l 260 0 l 174 0 l 174 87 l 260 87 l 347 87 m 694 87 l 694 174 l 694 260 l 694 347 l 694 434 l 694 521 l 781 521 l 781 434 l 781 347 l 781 260 l 781 174 l 781 87 l 694 87 m 521 87 l 434 87 l 434 174 l 434 260 l 434 347 l 434 434 l 434 521 l 521 521 l 521 434 l 521 347 l 521 260 l 521 174 l 521 87 m 174 87 l 87 87 l 87 174 l 87 260 l 87 347 l 87 434 l 87 521 l 174 521 l 174 434 l 174 347 l 174 260 l 174 174 l 174 87 z "},"x":{"ha":608,"x_min":87,"x_max":521,"o":"m 434 0 l 434 87 l 434 174 l 434 260 l 521 260 l 521 174 l 521 87 l 521 0 l 434 0 m 87 0 l 87 87 l 87 174 l 87 260 l 174 260 l 174 174 l 174 87 l 174 0 l 87 0 m 434 260 l 347 260 l 260 260 l 174 260 l 174 347 l 260 347 l 347 347 l 434 347 l 434 260 m 434 347 l 434 434 l 434 521 l 521 521 l 521 434 l 521 347 l 434 347 m 174 347 l 87 347 l 87 434 l 87 521 l 174 521 l 174 434 l 174 347 z "},"y":{"ha":608,"x_min":87,"x_max":521,"o":"m 347 -174 l 434 -174 l 434 -260 l 347 -260 l 260 -260 l 174 -260 l 174 -174 l 260 -174 l 347 -174 m 434 -174 l 434 -87 l 434 0 l 434 87 l 347 87 l 260 87 l 174 87 l 174 174 l 260 174 l 347 174 l 434 174 l 434 260 l 434 347 l 434 434 l 434 521 l 521 521 l 521 434 l 521 347 l 521 260 l 521 174 l 521 87 l 521 0 l 521 -87 l 521 -174 l 434 -174 m 174 -174 l 87 -174 l 87 -87 l 174 -87 l 174 -174 m 174 174 l 87 174 l 87 260 l 87 347 l 87 434 l 87 521 l 174 521 l 174 434 l 174 347 l 174 260 l 174 174 z "},"z":{"ha":608,"x_min":87,"x_max":521,"o":"m 434 87 l 521 87 l 521 0 l 434 0 l 347 0 l 260 0 l 174 0 l 87 0 l 87 87 l 174 87 l 174 174 l 260 174 l 260 87 l 347 87 l 434 87 m 260 174 l 260 260 l 347 260 l 347 174 l 260 174 m 347 260 l 347 347 l 434 347 l 434 260 l 347 260 m 434 347 l 434 434 l 521 434 l 521 347 l 434 347 m 434 434 l 347 434 l 260 434 l 174 434 l 87 434 l 87 521 l 174 521 l 260 521 l 347 521 l 434 521 l 434 434 z "},"{":{"ha":347,"x_min":0,"x_max":260,"o":"m 174 -174 l 174 -87 l 260 -87 l 260 -174 l 174 -174 m 174 -87 l 87 -87 l 87 0 l 87 87 l 87 174 l 87 260 l 174 260 l 174 174 l 174 87 l 174 0 l 174 -87 m 87 260 l 0 260 l 0 347 l 87 347 l 87 260 m 87 347 l 87 434 l 87 521 l 87 608 l 87 694 l 174 694 l 174 608 l 174 521 l 174 434 l 174 347 l 87 347 m 174 694 l 174 781 l 260 781 l 260 694 l 174 694 z "},"|":{"ha":260,"x_min":87,"x_max":174,"o":"m 87 -260 l 87 -174 l 87 -87 l 87 0 l 87 87 l 87 174 l 87 260 l 87 347 l 87 434 l 87 521 l 87 608 l 87 694 l 87 781 l 87 868 l 174 868 l 174 781 l 174 694 l 174 608 l 174 521 l 174 434 l 174 347 l 174 260 l 174 174 l 174 87 l 174 0 l 174 -87 l 174 -174 l 174 -260 l 87 -260 z "},"}":{"ha":347,"x_min":0,"x_max":260,"o":"m 0 -174 l 0 -87 l 87 -87 l 87 -174 l 0 -174 m 87 -87 l 87 0 l 87 87 l 87 174 l 87 260 l 174 260 l 174 174 l 174 87 l 174 0 l 174 -87 l 87 -87 m 174 260 l 174 347 l 260 347 l 260 260 l 174 260 m 174 347 l 87 347 l 87 434 l 87 521 l 87 608 l 87 694 l 174 694 l 174 608 l 174 521 l 174 434 l 174 347 m 87 694 l 0 694 l 0 781 l 87 781 l 87 694 z "},"~":{"ha":608,"x_min":0,"x_max":521,"o":"m 0 347 l 0 434 l 87 434 l 87 347 l 0 347 m 347 434 l 434 434 l 434 347 l 347 347 l 260 347 l 260 434 l 347 434 m 434 434 l 434 521 l 521 521 l 521 434 l 434 434 m 260 434 l 174 434 l 87 434 l 87 521 l 174 521 l 260 521 l 260 434 z "},"¡":{"ha":1042,"x_min":0,"x_max":955,"o":"m 434 0 l 434 87 l 521 87 l 521 0 l 434 0 m 434 521 l 434 608 l 521 608 l 521 521 l 434 521 m 521 87 l 521 174 l 608 174 l 608 87 l 521 87 m 434 87 l 347 87 l 347 174 l 434 174 l 434 87 m 608 174 l 608 260 l 694 260 l 694 174 l 608 174 m 347 174 l 260 174 l 260 260 l 347 260 l 347 174 m 694 260 l 694 347 l 781 347 l 781 260 l 694 260 m 260 260 l 174 260 l 174 347 l 260 347 l 260 260 m 781 347 l 781 434 l 868 434 l 868 347 l 781 347 m 174 347 l 87 347 l 87 434 l 174 434 l 174 347 m 868 434 l 868 521 l 868 608 l 868 694 l 955 694 l 955 608 l 955 521 l 955 434 l 868 434 m 87 434 l 0 434 l 0 521 l 0 608 l 0 694 l 87 694 l 87 608 l 87 521 l 87 434 m 521 608 l 521 694 l 608 694 l 608 608 l 521 608 m 434 608 l 347 608 l 347 694 l 434 694 l 434 608 m 868 694 l 781 694 l 694 694 l 608 694 l 608 781 l 694 781 l 781 781 l 868 781 l 868 694 m 347 694 l 260 694 l 174 694 l 87 694 l 87 781 l 174 781 l 260 781 l 347 781 l 347 694 z "},"¢":{"ha":1042,"x_min":0,"x_max":955,"o":"m 434 0 l 434 87 l 521 87 l 521 0 l 434 0 m 434 521 l 434 608 l 521 608 l 521 521 l 434 521 m 521 87 l 521 174 l 608 174 l 608 87 l 521 87 m 434 87 l 347 87 l 347 174 l 434 174 l 434 87 m 608 174 l 608 260 l 694 260 l 694 174 l 608 174 m 347 174 l 260 174 l 260 260 l 347 260 l 347 174 m 694 260 l 694 347 l 781 347 l 781 260 l 694 260 m 260 260 l 174 260 l 174 347 l 260 347 l 260 260 m 781 347 l 781 434 l 868 434 l 868 347 l 781 347 m 174 347 l 87 347 l 87 434 l 174 434 l 174 347 m 868 434 l 868 521 l 868 608 l 868 694 l 955 694 l 955 608 l 955 521 l 955 434 l 868 434 m 87 434 l 0 434 l 0 521 l 0 608 l 0 694 l 87 694 l 87 608 l 87 521 l 87 434 m 521 608 l 521 694 l 608 694 l 608 608 l 521 608 m 434 608 l 347 608 l 347 694 l 434 694 l 434 608 m 868 694 l 781 694 l 694 694 l 608 694 l 608 781 l 694 781 l 781 781 l 868 781 l 868 694 m 347 694 l 260 694 l 174 694 l 87 694 l 87 781 l 174 781 l 260 781 l 347 781 l 347 694 z "},"£":{"ha":1042,"x_min":0,"x_max":955,"o":"m 434 0 l 434 87 l 521 87 l 521 0 l 434 0 m 434 521 l 434 608 l 521 608 l 521 521 l 434 521 m 521 87 l 521 174 l 608 174 l 608 87 l 521 87 m 434 87 l 347 87 l 347 174 l 434 174 l 434 87 m 608 174 l 608 260 l 694 260 l 694 174 l 608 174 m 347 174 l 260 174 l 260 260 l 347 260 l 347 174 m 694 260 l 694 347 l 781 347 l 781 260 l 694 260 m 260 260 l 174 260 l 174 347 l 260 347 l 260 260 m 781 347 l 781 434 l 868 434 l 868 347 l 781 347 m 174 347 l 87 347 l 87 434 l 174 434 l 174 347 m 868 434 l 868 521 l 868 608 l 868 694 l 955 694 l 955 608 l 955 521 l 955 434 l 868 434 m 87 434 l 0 434 l 0 521 l 0 608 l 0 694 l 87 694 l 87 608 l 87 521 l 87 434 m 521 608 l 521 694 l 608 694 l 608 608 l 521 608 m 434 608 l 347 608 l 347 694 l 434 694 l 434 608 m 868 694 l 781 694 l 694 694 l 608 694 l 608 781 l 694 781 l 781 781 l 868 781 l 868 694 m 347 694 l 260 694 l 174 694 l 87 694 l 87 781 l 174 781 l 260 781 l 347 781 l 347 694 z "},"¤":{"ha":1042,"x_min":0,"x_max":955,"o":"m 434 0 l 434 87 l 521 87 l 521 0 l 434 0 m 434 521 l 434 608 l 521 608 l 521 521 l 434 521 m 521 87 l 521 174 l 608 174 l 608 87 l 521 87 m 434 87 l 347 87 l 347 174 l 434 174 l 434 87 m 608 174 l 608 260 l 694 260 l 694 174 l 608 174 m 347 174 l 260 174 l 260 260 l 347 260 l 347 174 m 694 260 l 694 347 l 781 347 l 781 260 l 694 260 m 260 260 l 174 260 l 174 347 l 260 347 l 260 260 m 781 347 l 781 434 l 868 434 l 868 347 l 781 347 m 174 347 l 87 347 l 87 434 l 174 434 l 174 347 m 868 434 l 868 521 l 868 608 l 868 694 l 955 694 l 955 608 l 955 521 l 955 434 l 868 434 m 87 434 l 0 434 l 0 521 l 0 608 l 0 694 l 87 694 l 87 608 l 87 521 l 87 434 m 521 608 l 521 694 l 608 694 l 608 608 l 521 608 m 434 608 l 347 608 l 347 694 l 434 694 l 434 608 m 868 694 l 781 694 l 694 694 l 608 694 l 608 781 l 694 781 l 781 781 l 868 781 l 868 694 m 347 694 l 260 694 l 174 694 l 87 694 l 87 781 l 174 781 l 260 781 l 347 781 l 347 694 z "},"¥":{"ha":1042,"x_min":0,"x_max":955,"o":"m 434 0 l 434 87 l 521 87 l 521 0 l 434 0 m 434 521 l 434 608 l 521 608 l 521 521 l 434 521 m 521 87 l 521 174 l 608 174 l 608 87 l 521 87 m 434 87 l 347 87 l 347 174 l 434 174 l 434 87 m 608 174 l 608 260 l 694 260 l 694 174 l 608 174 m 347 174 l 260 174 l 260 260 l 347 260 l 347 174 m 694 260 l 694 347 l 781 347 l 781 260 l 694 260 m 260 260 l 174 260 l 174 347 l 260 347 l 260 260 m 781 347 l 781 434 l 868 434 l 868 347 l 781 347 m 174 347 l 87 347 l 87 434 l 174 434 l 174 347 m 868 434 l 868 521 l 868 608 l 868 694 l 955 694 l 955 608 l 955 521 l 955 434 l 868 434 m 87 434 l 0 434 l 0 521 l 0 608 l 0 694 l 87 694 l 87 608 l 87 521 l 87 434 m 521 608 l 521 694 l 608 694 l 608 608 l 521 608 m 434 608 l 347 608 l 347 694 l 434 694 l 434 608 m 868 694 l 781 694 l 694 694 l 608 694 l 608 781 l 694 781 l 781 781 l 868 781 l 868 694 m 347 694 l 260 694 l 174 694 l 87 694 l 87 781 l 174 781 l 260 781 l 347 781 l 347 694 z "},"¦":{"ha":1042,"x_min":0,"x_max":955,"o":"m 434 0 l 434 87 l 521 87 l 521 0 l 434 0 m 434 521 l 434 608 l 521 608 l 521 521 l 434 521 m 521 87 l 521 174 l 608 174 l 608 87 l 521 87 m 434 87 l 347 87 l 347 174 l 434 174 l 434 87 m 608 174 l 608 260 l 694 260 l 694 174 l 608 174 m 347 174 l 260 174 l 260 260 l 347 260 l 347 174 m 694 260 l 694 347 l 781 347 l 781 260 l 694 260 m 260 260 l 174 260 l 174 347 l 260 347 l 260 260 m 781 347 l 781 434 l 868 434 l 868 347 l 781 347 m 174 347 l 87 347 l 87 434 l 174 434 l 174 347 m 868 434 l 868 521 l 868 608 l 868 694 l 955 694 l 955 608 l 955 521 l 955 434 l 868 434 m 87 434 l 0 434 l 0 521 l 0 608 l 0 694 l 87 694 l 87 608 l 87 521 l 87 434 m 521 608 l 521 694 l 608 694 l 608 608 l 521 608 m 434 608 l 347 608 l 347 694 l 434 694 l 434 608 m 868 694 l 781 694 l 694 694 l 608 694 l 608 781 l 694 781 l 781 781 l 868 781 l 868 694 m 347 694 l 260 694 l 174 694 l 87 694 l 87 781 l 174 781 l 260 781 l 347 781 l 347 694 z "},"§":{"ha":1042,"x_min":0,"x_max":955,"o":"m 434 0 l 434 87 l 521 87 l 521 0 l 434 0 m 434 521 l 434 608 l 521 608 l 521 521 l 434 521 m 521 87 l 521 174 l 608 174 l 608 87 l 521 87 m 434 87 l 347 87 l 347 174 l 434 174 l 434 87 m 608 174 l 608 260 l 694 260 l 694 174 l 608 174 m 347 174 l 260 174 l 260 260 l 347 260 l 347 174 m 694 260 l 694 347 l 781 347 l 781 260 l 694 260 m 260 260 l 174 260 l 174 347 l 260 347 l 260 260 m 781 347 l 781 434 l 868 434 l 868 347 l 781 347 m 174 347 l 87 347 l 87 434 l 174 434 l 174 347 m 868 434 l 868 521 l 868 608 l 868 694 l 955 694 l 955 608 l 955 521 l 955 434 l 868 434 m 87 434 l 0 434 l 0 521 l 0 608 l 0 694 l 87 694 l 87 608 l 87 521 l 87 434 m 521 608 l 521 694 l 608 694 l 608 608 l 521 608 m 434 608 l 347 608 l 347 694 l 434 694 l 434 608 m 868 694 l 781 694 l 694 694 l 608 694 l 608 781 l 694 781 l 781 781 l 868 781 l 868 694 m 347 694 l 260 694 l 174 694 l 87 694 l 87 781 l 174 781 l 260 781 l 347 781 l 347 694 z "},"¨":{"ha":1042,"x_min":0,"x_max":955,"o":"m 434 0 l 434 87 l 521 87 l 521 0 l 434 0 m 434 521 l 434 608 l 521 608 l 521 521 l 434 521 m 521 87 l 521 174 l 608 174 l 608 87 l 521 87 m 434 87 l 347 87 l 347 174 l 434 174 l 434 87 m 608 174 l 608 260 l 694 260 l 694 174 l 608 174 m 347 174 l 260 174 l 260 260 l 347 260 l 347 174 m 694 260 l 694 347 l 781 347 l 781 260 l 694 260 m 260 260 l 174 260 l 174 347 l 260 347 l 260 260 m 781 347 l 781 434 l 868 434 l 868 347 l 781 347 m 174 347 l 87 347 l 87 434 l 174 434 l 174 347 m 868 434 l 868 521 l 868 608 l 868 694 l 955 694 l 955 608 l 955 521 l 955 434 l 868 434 m 87 434 l 0 434 l 0 521 l 0 608 l 0 694 l 87 694 l 87 608 l 87 521 l 87 434 m 521 608 l 521 694 l 608 694 l 608 608 l 521 608 m 434 608 l 347 608 l 347 694 l 434 694 l 434 608 m 868 694 l 781 694 l 694 694 l 608 694 l 608 781 l 694 781 l 781 781 l 868 781 l 868 694 m 347 694 l 260 694 l 174 694 l 87 694 l 87 781 l 174 781 l 260 781 l 347 781 l 347 694 z "},"©":{"ha":868,"x_min":0,"x_max":781,"o":"m 521 521 l 521 608 l 608 608 l 608 521 l 521 521 m 521 87 l 608 87 l 608 0 l 521 0 l 434 0 l 347 0 l 260 0 l 174 0 l 174 87 l 260 87 l 347 87 l 434 87 l 521 87 m 608 87 l 608 174 l 694 174 l 694 87 l 608 87 m 174 87 l 87 87 l 87 174 l 174 174 l 174 87 m 694 174 l 694 260 l 694 347 l 694 434 l 694 521 l 694 608 l 694 694 l 781 694 l 781 608 l 781 521 l 781 434 l 781 347 l 781 260 l 781 174 l 694 174 m 434 260 l 521 260 l 521 174 l 434 174 l 347 174 l 260 174 l 260 260 l 347 260 l 434 260 m 87 174 l 0 174 l 0 260 l 0 347 l 0 434 l 0 521 l 0 608 l 0 694 l 87 694 l 87 608 l 87 521 l 87 434 l 87 347 l 87 260 l 87 174 m 521 260 l 521 347 l 608 347 l 608 260 l 521 260 m 260 260 l 174 260 l 174 347 l 174 434 l 174 521 l 174 608 l 260 608 l 260 521 l 260 434 l 260 347 l 260 260 m 521 608 l 434 608 l 347 608 l 260 608 l 260 694 l 347 694 l 434 694 l 521 694 l 521 608 m 694 694 l 608 694 l 608 781 l 694 781 l 694 694 m 87 694 l 87 781 l 174 781 l 174 694 l 87 694 m 608 781 l 521 781 l 434 781 l 347 781 l 260 781 l 174 781 l 174 868 l 260 868 l 347 868 l 434 868 l 521 868 l 608 868 l 608 781 z "},"ª":{"ha":1042,"x_min":0,"x_max":955,"o":"m 434 0 l 434 87 l 521 87 l 521 0 l 434 0 m 434 521 l 434 608 l 521 608 l 521 521 l 434 521 m 521 87 l 521 174 l 608 174 l 608 87 l 521 87 m 434 87 l 347 87 l 347 174 l 434 174 l 434 87 m 608 174 l 608 260 l 694 260 l 694 174 l 608 174 m 347 174 l 260 174 l 260 260 l 347 260 l 347 174 m 694 260 l 694 347 l 781 347 l 781 260 l 694 260 m 260 260 l 174 260 l 174 347 l 260 347 l 260 260 m 781 347 l 781 434 l 868 434 l 868 347 l 781 347 m 174 347 l 87 347 l 87 434 l 174 434 l 174 347 m 868 434 l 868 521 l 868 608 l 868 694 l 955 694 l 955 608 l 955 521 l 955 434 l 868 434 m 87 434 l 0 434 l 0 521 l 0 608 l 0 694 l 87 694 l 87 608 l 87 521 l 87 434 m 521 608 l 521 694 l 608 694 l 608 608 l 521 608 m 434 608 l 347 608 l 347 694 l 434 694 l 434 608 m 868 694 l 781 694 l 694 694 l 608 694 l 608 781 l 694 781 l 781 781 l 868 781 l 868 694 m 347 694 l 260 694 l 174 694 l 87 694 l 87 781 l 174 781 l 260 781 l 347 781 l 347 694 z "},"«":{"ha":1042,"x_min":0,"x_max":955,"o":"m 434 0 l 434 87 l 521 87 l 521 0 l 434 0 m 434 521 l 434 608 l 521 608 l 521 521 l 434 521 m 521 87 l 521 174 l 608 174 l 608 87 l 521 87 m 434 87 l 347 87 l 347 174 l 434 174 l 434 87 m 608 174 l 608 260 l 694 260 l 694 174 l 608 174 m 347 174 l 260 174 l 260 260 l 347 260 l 347 174 m 694 260 l 694 347 l 781 347 l 781 260 l 694 260 m 260 260 l 174 260 l 174 347 l 260 347 l 260 260 m 781 347 l 781 434 l 868 434 l 868 347 l 781 347 m 174 347 l 87 347 l 87 434 l 174 434 l 174 347 m 868 434 l 868 521 l 868 608 l 868 694 l 955 694 l 955 608 l 955 521 l 955 434 l 868 434 m 87 434 l 0 434 l 0 521 l 0 608 l 0 694 l 87 694 l 87 608 l 87 521 l 87 434 m 521 608 l 521 694 l 608 694 l 608 608 l 521 608 m 434 608 l 347 608 l 347 694 l 434 694 l 434 608 m 868 694 l 781 694 l 694 694 l 608 694 l 608 781 l 694 781 l 781 781 l 868 781 l 868 694 m 347 694 l 260 694 l 174 694 l 87 694 l 87 781 l 174 781 l 260 781 l 347 781 l 347 694 z "},"¬":{"ha":1042,"x_min":0,"x_max":955,"o":"m 434 0 l 434 87 l 521 87 l 521 0 l 434 0 m 434 521 l 434 608 l 521 608 l 521 521 l 434 521 m 521 87 l 521 174 l 608 174 l 608 87 l 521 87 m 434 87 l 347 87 l 347 174 l 434 174 l 434 87 m 608 174 l 608 260 l 694 260 l 694 174 l 608 174 m 347 174 l 260 174 l 260 260 l 347 260 l 347 174 m 694 260 l 694 347 l 781 347 l 781 260 l 694 260 m 260 260 l 174 260 l 174 347 l 260 347 l 260 260 m 781 347 l 781 434 l 868 434 l 868 347 l 781 347 m 174 347 l 87 347 l 87 434 l 174 434 l 174 347 m 868 434 l 868 521 l 868 608 l 868 694 l 955 694 l 955 608 l 955 521 l 955 434 l 868 434 m 87 434 l 0 434 l 0 521 l 0 608 l 0 694 l 87 694 l 87 608 l 87 521 l 87 434 m 521 608 l 521 694 l 608 694 l 608 608 l 521 608 m 434 608 l 347 608 l 347 694 l 434 694 l 434 608 m 868 694 l 781 694 l 694 694 l 608 694 l 608 781 l 694 781 l 781 781 l 868 781 l 868 694 m 347 694 l 260 694 l 174 694 l 87 694 l 87 781 l 174 781 l 260 781 l 347 781 l 347 694 z "},"®":{"ha":868,"x_min":0,"x_max":781,"o":"m 260 260 l 260 347 l 260 434 l 260 521 l 260 608 l 347 608 l 347 521 l 434 521 l 434 434 l 347 434 l 347 347 l 347 260 l 260 260 m 521 434 l 521 521 l 608 521 l 608 434 l 521 434 m 521 87 l 608 87 l 608 0 l 521 0 l 434 0 l 347 0 l 260 0 l 174 0 l 174 87 l 260 87 l 347 87 l 434 87 l 521 87 m 608 87 l 608 174 l 694 174 l 694 87 l 608 87 m 174 87 l 87 87 l 87 174 l 174 174 l 174 87 m 694 174 l 694 260 l 694 347 l 694 434 l 694 521 l 694 608 l 694 694 l 781 694 l 781 608 l 781 521 l 781 434 l 781 347 l 781 260 l 781 174 l 694 174 m 87 174 l 0 174 l 0 260 l 0 347 l 0 434 l 0 521 l 0 608 l 0 694 l 87 694 l 87 608 l 87 521 l 87 434 l 87 347 l 87 260 l 87 174 m 521 521 l 434 521 l 434 608 l 521 608 l 521 521 m 694 694 l 608 694 l 608 781 l 694 781 l 694 694 m 87 694 l 87 781 l 174 781 l 174 694 l 87 694 m 608 781 l 521 781 l 434 781 l 347 781 l 260 781 l 174 781 l 174 868 l 260 868 l 347 868 l 434 868 l 521 868 l 608 868 l 608 781 z "},"¯":{"ha":1042,"x_min":0,"x_max":955,"o":"m 434 0 l 434 87 l 521 87 l 521 0 l 434 0 m 434 521 l 434 608 l 521 608 l 521 521 l 434 521 m 521 87 l 521 174 l 608 174 l 608 87 l 521 87 m 434 87 l 347 87 l 347 174 l 434 174 l 434 87 m 608 174 l 608 260 l 694 260 l 694 174 l 608 174 m 347 174 l 260 174 l 260 260 l 347 260 l 347 174 m 694 260 l 694 347 l 781 347 l 781 260 l 694 260 m 260 260 l 174 260 l 174 347 l 260 347 l 260 260 m 781 347 l 781 434 l 868 434 l 868 347 l 781 347 m 174 347 l 87 347 l 87 434 l 174 434 l 174 347 m 868 434 l 868 521 l 868 608 l 868 694 l 955 694 l 955 608 l 955 521 l 955 434 l 868 434 m 87 434 l 0 434 l 0 521 l 0 608 l 0 694 l 87 694 l 87 608 l 87 521 l 87 434 m 521 608 l 521 694 l 608 694 l 608 608 l 521 608 m 434 608 l 347 608 l 347 694 l 434 694 l 434 608 m 868 694 l 781 694 l 694 694 l 608 694 l 608 781 l 694 781 l 781 781 l 868 781 l 868 694 m 347 694 l 260 694 l 174 694 l 87 694 l 87 781 l 174 781 l 260 781 l 347 781 l 347 694 z "},"°":{"ha":1042,"x_min":0,"x_max":955,"o":"m 434 0 l 434 87 l 521 87 l 521 0 l 434 0 m 434 521 l 434 608 l 521 608 l 521 521 l 434 521 m 521 87 l 521 174 l 608 174 l 608 87 l 521 87 m 434 87 l 347 87 l 347 174 l 434 174 l 434 87 m 608 174 l 608 260 l 694 260 l 694 174 l 608 174 m 347 174 l 260 174 l 260 260 l 347 260 l 347 174 m 694 260 l 694 347 l 781 347 l 781 260 l 694 260 m 260 260 l 174 260 l 174 347 l 260 347 l 260 260 m 781 347 l 781 434 l 868 434 l 868 347 l 781 347 m 174 347 l 87 347 l 87 434 l 174 434 l 174 347 m 868 434 l 868 521 l 868 608 l 868 694 l 955 694 l 955 608 l 955 521 l 955 434 l 868 434 m 87 434 l 0 434 l 0 521 l 0 608 l 0 694 l 87 694 l 87 608 l 87 521 l 87 434 m 521 608 l 521 694 l 608 694 l 608 608 l 521 608 m 434 608 l 347 608 l 347 694 l 434 694 l 434 608 m 868 694 l 781 694 l 694 694 l 608 694 l 608 781 l 694 781 l 781 781 l 868 781 l 868 694 m 347 694 l 260 694 l 174 694 l 87 694 l 87 781 l 174 781 l 260 781 l 347 781 l 347 694 z "},"±":{"ha":1042,"x_min":0,"x_max":955,"o":"m 434 0 l 434 87 l 521 87 l 521 0 l 434 0 m 434 521 l 434 608 l 521 608 l 521 521 l 434 521 m 521 87 l 521 174 l 608 174 l 608 87 l 521 87 m 434 87 l 347 87 l 347 174 l 434 174 l 434 87 m 608 174 l 608 260 l 694 260 l 694 174 l 608 174 m 347 174 l 260 174 l 260 260 l 347 260 l 347 174 m 694 260 l 694 347 l 781 347 l 781 260 l 694 260 m 260 260 l 174 260 l 174 347 l 260 347 l 260 260 m 781 347 l 781 434 l 868 434 l 868 347 l 781 347 m 174 347 l 87 347 l 87 434 l 174 434 l 174 347 m 868 434 l 868 521 l 868 608 l 868 694 l 955 694 l 955 608 l 955 521 l 955 434 l 868 434 m 87 434 l 0 434 l 0 521 l 0 608 l 0 694 l 87 694 l 87 608 l 87 521 l 87 434 m 521 608 l 521 694 l 608 694 l 608 608 l 521 608 m 434 608 l 347 608 l 347 694 l 434 694 l 434 608 m 868 694 l 781 694 l 694 694 l 608 694 l 608 781 l 694 781 l 781 781 l 868 781 l 868 694 m 347 694 l 260 694 l 174 694 l 87 694 l 87 781 l 174 781 l 260 781 l 347 781 l 347 694 z "},"²":{"ha":1042,"x_min":0,"x_max":955,"o":"m 434 0 l 434 87 l 521 87 l 521 0 l 434 0 m 434 521 l 434 608 l 521 608 l 521 521 l 434 521 m 521 87 l 521 174 l 608 174 l 608 87 l 521 87 m 434 87 l 347 87 l 347 174 l 434 174 l 434 87 m 608 174 l 608 260 l 694 260 l 694 174 l 608 174 m 347 174 l 260 174 l 260 260 l 347 260 l 347 174 m 694 260 l 694 347 l 781 347 l 781 260 l 694 260 m 260 260 l 174 260 l 174 347 l 260 347 l 260 260 m 781 347 l 781 434 l 868 434 l 868 347 l 781 347 m 174 347 l 87 347 l 87 434 l 174 434 l 174 347 m 868 434 l 868 521 l 868 608 l 868 694 l 955 694 l 955 608 l 955 521 l 955 434 l 868 434 m 87 434 l 0 434 l 0 521 l 0 608 l 0 694 l 87 694 l 87 608 l 87 521 l 87 434 m 521 608 l 521 694 l 608 694 l 608 608 l 521 608 m 434 608 l 347 608 l 347 694 l 434 694 l 434 608 m 868 694 l 781 694 l 694 694 l 608 694 l 608 781 l 694 781 l 781 781 l 868 781 l 868 694 m 347 694 l 260 694 l 174 694 l 87 694 l 87 781 l 174 781 l 260 781 l 347 781 l 347 694 z "},"³":{"ha":1042,"x_min":0,"x_max":955,"o":"m 434 0 l 434 87 l 521 87 l 521 0 l 434 0 m 434 521 l 434 608 l 521 608 l 521 521 l 434 521 m 521 87 l 521 174 l 608 174 l 608 87 l 521 87 m 434 87 l 347 87 l 347 174 l 434 174 l 434 87 m 608 174 l 608 260 l 694 260 l 694 174 l 608 174 m 347 174 l 260 174 l 260 260 l 347 260 l 347 174 m 694 260 l 694 347 l 781 347 l 781 260 l 694 260 m 260 260 l 174 260 l 174 347 l 260 347 l 260 260 m 781 347 l 781 434 l 868 434 l 868 347 l 781 347 m 174 347 l 87 347 l 87 434 l 174 434 l 174 347 m 868 434 l 868 521 l 868 608 l 868 694 l 955 694 l 955 608 l 955 521 l 955 434 l 868 434 m 87 434 l 0 434 l 0 521 l 0 608 l 0 694 l 87 694 l 87 608 l 87 521 l 87 434 m 521 608 l 521 694 l 608 694 l 608 608 l 521 608 m 434 608 l 347 608 l 347 694 l 434 694 l 434 608 m 868 694 l 781 694 l 694 694 l 608 694 l 608 781 l 694 781 l 781 781 l 868 781 l 868 694 m 347 694 l 260 694 l 174 694 l 87 694 l 87 781 l 174 781 l 260 781 l 347 781 l 347 694 z "},"´":{"ha":1042,"x_min":0,"x_max":955,"o":"m 434 0 l 434 87 l 521 87 l 521 0 l 434 0 m 434 521 l 434 608 l 521 608 l 521 521 l 434 521 m 521 87 l 521 174 l 608 174 l 608 87 l 521 87 m 434 87 l 347 87 l 347 174 l 434 174 l 434 87 m 608 174 l 608 260 l 694 260 l 694 174 l 608 174 m 347 174 l 260 174 l 260 260 l 347 260 l 347 174 m 694 260 l 694 347 l 781 347 l 781 260 l 694 260 m 260 260 l 174 260 l 174 347 l 260 347 l 260 260 m 781 347 l 781 434 l 868 434 l 868 347 l 781 347 m 174 347 l 87 347 l 87 434 l 174 434 l 174 347 m 868 434 l 868 521 l 868 608 l 868 694 l 955 694 l 955 608 l 955 521 l 955 434 l 868 434 m 87 434 l 0 434 l 0 521 l 0 608 l 0 694 l 87 694 l 87 608 l 87 521 l 87 434 m 521 608 l 521 694 l 608 694 l 608 608 l 521 608 m 434 608 l 347 608 l 347 694 l 434 694 l 434 608 m 868 694 l 781 694 l 694 694 l 608 694 l 608 781 l 694 781 l 781 781 l 868 781 l 868 694 m 347 694 l 260 694 l 174 694 l 87 694 l 87 781 l 174 781 l 260 781 l 347 781 l 347 694 z "},"µ":{"ha":1042,"x_min":0,"x_max":955,"o":"m 434 0 l 434 87 l 521 87 l 521 0 l 434 0 m 434 521 l 434 608 l 521 608 l 521 521 l 434 521 m 521 87 l 521 174 l 608 174 l 608 87 l 521 87 m 434 87 l 347 87 l 347 174 l 434 174 l 434 87 m 608 174 l 608 260 l 694 260 l 694 174 l 608 174 m 347 174 l 260 174 l 260 260 l 347 260 l 347 174 m 694 260 l 694 347 l 781 347 l 781 260 l 694 260 m 260 260 l 174 260 l 174 347 l 260 347 l 260 260 m 781 347 l 781 434 l 868 434 l 868 347 l 781 347 m 174 347 l 87 347 l 87 434 l 174 434 l 174 347 m 868 434 l 868 521 l 868 608 l 868 694 l 955 694 l 955 608 l 955 521 l 955 434 l 868 434 m 87 434 l 0 434 l 0 521 l 0 608 l 0 694 l 87 694 l 87 608 l 87 521 l 87 434 m 521 608 l 521 694 l 608 694 l 608 608 l 521 608 m 434 608 l 347 608 l 347 694 l 434 694 l 434 608 m 868 694 l 781 694 l 694 694 l 608 694 l 608 781 l 694 781 l 781 781 l 868 781 l 868 694 m 347 694 l 260 694 l 174 694 l 87 694 l 87 781 l 174 781 l 260 781 l 347 781 l 347 694 z "},"¶":{"ha":1042,"x_min":0,"x_max":955,"o":"m 434 0 l 434 87 l 521 87 l 521 0 l 434 0 m 434 521 l 434 608 l 521 608 l 521 521 l 434 521 m 521 87 l 521 174 l 608 174 l 608 87 l 521 87 m 434 87 l 347 87 l 347 174 l 434 174 l 434 87 m 608 174 l 608 260 l 694 260 l 694 174 l 608 174 m 347 174 l 260 174 l 260 260 l 347 260 l 347 174 m 694 260 l 694 347 l 781 347 l 781 260 l 694 260 m 260 260 l 174 260 l 174 347 l 260 347 l 260 260 m 781 347 l 781 434 l 868 434 l 868 347 l 781 347 m 174 347 l 87 347 l 87 434 l 174 434 l 174 347 m 868 434 l 868 521 l 868 608 l 868 694 l 955 694 l 955 608 l 955 521 l 955 434 l 868 434 m 87 434 l 0 434 l 0 521 l 0 608 l 0 694 l 87 694 l 87 608 l 87 521 l 87 434 m 521 608 l 521 694 l 608 694 l 608 608 l 521 608 m 434 608 l 347 608 l 347 694 l 434 694 l 434 608 m 868 694 l 781 694 l 694 694 l 608 694 l 608 781 l 694 781 l 781 781 l 868 781 l 868 694 m 347 694 l 260 694 l 174 694 l 87 694 l 87 781 l 174 781 l 260 781 l 347 781 l 347 694 z "},"·":{"ha":1042,"x_min":0,"x_max":955,"o":"m 434 0 l 434 87 l 521 87 l 521 0 l 434 0 m 434 521 l 434 608 l 521 608 l 521 521 l 434 521 m 521 87 l 521 174 l 608 174 l 608 87 l 521 87 m 434 87 l 347 87 l 347 174 l 434 174 l 434 87 m 608 174 l 608 260 l 694 260 l 694 174 l 608 174 m 347 174 l 260 174 l 260 260 l 347 260 l 347 174 m 694 260 l 694 347 l 781 347 l 781 260 l 694 260 m 260 260 l 174 260 l 174 347 l 260 347 l 260 260 m 781 347 l 781 434 l 868 434 l 868 347 l 781 347 m 174 347 l 87 347 l 87 434 l 174 434 l 174 347 m 868 434 l 868 521 l 868 608 l 868 694 l 955 694 l 955 608 l 955 521 l 955 434 l 868 434 m 87 434 l 0 434 l 0 521 l 0 608 l 0 694 l 87 694 l 87 608 l 87 521 l 87 434 m 521 608 l 521 694 l 608 694 l 608 608 l 521 608 m 434 608 l 347 608 l 347 694 l 434 694 l 434 608 m 868 694 l 781 694 l 694 694 l 608 694 l 608 781 l 694 781 l 781 781 l 868 781 l 868 694 m 347 694 l 260 694 l 174 694 l 87 694 l 87 781 l 174 781 l 260 781 l 347 781 l 347 694 z "},"¸":{"ha":1042,"x_min":0,"x_max":955,"o":"m 434 0 l 434 87 l 521 87 l 521 0 l 434 0 m 434 521 l 434 608 l 521 608 l 521 521 l 434 521 m 521 87 l 521 174 l 608 174 l 608 87 l 521 87 m 434 87 l 347 87 l 347 174 l 434 174 l 434 87 m 608 174 l 608 260 l 694 260 l 694 174 l 608 174 m 347 174 l 260 174 l 260 260 l 347 260 l 347 174 m 694 260 l 694 347 l 781 347 l 781 260 l 694 260 m 260 260 l 174 260 l 174 347 l 260 347 l 260 260 m 781 347 l 781 434 l 868 434 l 868 347 l 781 347 m 174 347 l 87 347 l 87 434 l 174 434 l 174 347 m 868 434 l 868 521 l 868 608 l 868 694 l 955 694 l 955 608 l 955 521 l 955 434 l 868 434 m 87 434 l 0 434 l 0 521 l 0 608 l 0 694 l 87 694 l 87 608 l 87 521 l 87 434 m 521 608 l 521 694 l 608 694 l 608 608 l 521 608 m 434 608 l 347 608 l 347 694 l 434 694 l 434 608 m 868 694 l 781 694 l 694 694 l 608 694 l 608 781 l 694 781 l 781 781 l 868 781 l 868 694 m 347 694 l 260 694 l 174 694 l 87 694 l 87 781 l 174 781 l 260 781 l 347 781 l 347 694 z "},"¹":{"ha":1042,"x_min":0,"x_max":955,"o":"m 434 0 l 434 87 l 521 87 l 521 0 l 434 0 m 434 521 l 434 608 l 521 608 l 521 521 l 434 521 m 521 87 l 521 174 l 608 174 l 608 87 l 521 87 m 434 87 l 347 87 l 347 174 l 434 174 l 434 87 m 608 174 l 608 260 l 694 260 l 694 174 l 608 174 m 347 174 l 260 174 l 260 260 l 347 260 l 347 174 m 694 260 l 694 347 l 781 347 l 781 260 l 694 260 m 260 260 l 174 260 l 174 347 l 260 347 l 260 260 m 781 347 l 781 434 l 868 434 l 868 347 l 781 347 m 174 347 l 87 347 l 87 434 l 174 434 l 174 347 m 868 434 l 868 521 l 868 608 l 868 694 l 955 694 l 955 608 l 955 521 l 955 434 l 868 434 m 87 434 l 0 434 l 0 521 l 0 608 l 0 694 l 87 694 l 87 608 l 87 521 l 87 434 m 521 608 l 521 694 l 608 694 l 608 608 l 521 608 m 434 608 l 347 608 l 347 694 l 434 694 l 434 608 m 868 694 l 781 694 l 694 694 l 608 694 l 608 781 l 694 781 l 781 781 l 868 781 l 868 694 m 347 694 l 260 694 l 174 694 l 87 694 l 87 781 l 174 781 l 260 781 l 347 781 l 347 694 z "},"º":{"ha":1042,"x_min":0,"x_max":955,"o":"m 434 0 l 434 87 l 521 87 l 521 0 l 434 0 m 434 521 l 434 608 l 521 608 l 521 521 l 434 521 m 521 87 l 521 174 l 608 174 l 608 87 l 521 87 m 434 87 l 347 87 l 347 174 l 434 174 l 434 87 m 608 174 l 608 260 l 694 260 l 694 174 l 608 174 m 347 174 l 260 174 l 260 260 l 347 260 l 347 174 m 694 260 l 694 347 l 781 347 l 781 260 l 694 260 m 260 260 l 174 260 l 174 347 l 260 347 l 260 260 m 781 347 l 781 434 l 868 434 l 868 347 l 781 347 m 174 347 l 87 347 l 87 434 l 174 434 l 174 347 m 868 434 l 868 521 l 868 608 l 868 694 l 955 694 l 955 608 l 955 521 l 955 434 l 868 434 m 87 434 l 0 434 l 0 521 l 0 608 l 0 694 l 87 694 l 87 608 l 87 521 l 87 434 m 521 608 l 521 694 l 608 694 l 608 608 l 521 608 m 434 608 l 347 608 l 347 694 l 434 694 l 434 608 m 868 694 l 781 694 l 694 694 l 608 694 l 608 781 l 694 781 l 781 781 l 868 781 l 868 694 m 347 694 l 260 694 l 174 694 l 87 694 l 87 781 l 174 781 l 260 781 l 347 781 l 347 694 z "},"»":{"ha":1042,"x_min":0,"x_max":955,"o":"m 434 0 l 434 87 l 521 87 l 521 0 l 434 0 m 434 521 l 434 608 l 521 608 l 521 521 l 434 521 m 521 87 l 521 174 l 608 174 l 608 87 l 521 87 m 434 87 l 347 87 l 347 174 l 434 174 l 434 87 m 608 174 l 608 260 l 694 260 l 694 174 l 608 174 m 347 174 l 260 174 l 260 260 l 347 260 l 347 174 m 694 260 l 694 347 l 781 347 l 781 260 l 694 260 m 260 260 l 174 260 l 174 347 l 260 347 l 260 260 m 781 347 l 781 434 l 868 434 l 868 347 l 781 347 m 174 347 l 87 347 l 87 434 l 174 434 l 174 347 m 868 434 l 868 521 l 868 608 l 868 694 l 955 694 l 955 608 l 955 521 l 955 434 l 868 434 m 87 434 l 0 434 l 0 521 l 0 608 l 0 694 l 87 694 l 87 608 l 87 521 l 87 434 m 521 608 l 521 694 l 608 694 l 608 608 l 521 608 m 434 608 l 347 608 l 347 694 l 434 694 l 434 608 m 868 694 l 781 694 l 694 694 l 608 694 l 608 781 l 694 781 l 781 781 l 868 781 l 868 694 m 347 694 l 260 694 l 174 694 l 87 694 l 87 781 l 174 781 l 260 781 l 347 781 l 347 694 z "},"¼":{"ha":1042,"x_min":0,"x_max":955,"o":"m 434 0 l 434 87 l 521 87 l 521 0 l 434 0 m 434 521 l 434 608 l 521 608 l 521 521 l 434 521 m 521 87 l 521 174 l 608 174 l 608 87 l 521 87 m 434 87 l 347 87 l 347 174 l 434 174 l 434 87 m 608 174 l 608 260 l 694 260 l 694 174 l 608 174 m 347 174 l 260 174 l 260 260 l 347 260 l 347 174 m 694 260 l 694 347 l 781 347 l 781 260 l 694 260 m 260 260 l 174 260 l 174 347 l 260 347 l 260 260 m 781 347 l 781 434 l 868 434 l 868 347 l 781 347 m 174 347 l 87 347 l 87 434 l 174 434 l 174 347 m 868 434 l 868 521 l 868 608 l 868 694 l 955 694 l 955 608 l 955 521 l 955 434 l 868 434 m 87 434 l 0 434 l 0 521 l 0 608 l 0 694 l 87 694 l 87 608 l 87 521 l 87 434 m 521 608 l 521 694 l 608 694 l 608 608 l 521 608 m 434 608 l 347 608 l 347 694 l 434 694 l 434 608 m 868 694 l 781 694 l 694 694 l 608 694 l 608 781 l 694 781 l 781 781 l 868 781 l 868 694 m 347 694 l 260 694 l 174 694 l 87 694 l 87 781 l 174 781 l 260 781 l 347 781 l 347 694 z "},"½":{"ha":1042,"x_min":0,"x_max":955,"o":"m 434 0 l 434 87 l 521 87 l 521 0 l 434 0 m 434 521 l 434 608 l 521 608 l 521 521 l 434 521 m 521 87 l 521 174 l 608 174 l 608 87 l 521 87 m 434 87 l 347 87 l 347 174 l 434 174 l 434 87 m 608 174 l 608 260 l 694 260 l 694 174 l 608 174 m 347 174 l 260 174 l 260 260 l 347 260 l 347 174 m 694 260 l 694 347 l 781 347 l 781 260 l 694 260 m 260 260 l 174 260 l 174 347 l 260 347 l 260 260 m 781 347 l 781 434 l 868 434 l 868 347 l 781 347 m 174 347 l 87 347 l 87 434 l 174 434 l 174 347 m 868 434 l 868 521 l 868 608 l 868 694 l 955 694 l 955 608 l 955 521 l 955 434 l 868 434 m 87 434 l 0 434 l 0 521 l 0 608 l 0 694 l 87 694 l 87 608 l 87 521 l 87 434 m 521 608 l 521 694 l 608 694 l 608 608 l 521 608 m 434 608 l 347 608 l 347 694 l 434 694 l 434 608 m 868 694 l 781 694 l 694 694 l 608 694 l 608 781 l 694 781 l 781 781 l 868 781 l 868 694 m 347 694 l 260 694 l 174 694 l 87 694 l 87 781 l 174 781 l 260 781 l 347 781 l 347 694 z "},"¾":{"ha":1042,"x_min":0,"x_max":955,"o":"m 434 0 l 434 87 l 521 87 l 521 0 l 434 0 m 434 521 l 434 608 l 521 608 l 521 521 l 434 521 m 521 87 l 521 174 l 608 174 l 608 87 l 521 87 m 434 87 l 347 87 l 347 174 l 434 174 l 434 87 m 608 174 l 608 260 l 694 260 l 694 174 l 608 174 m 347 174 l 260 174 l 260 260 l 347 260 l 347 174 m 694 260 l 694 347 l 781 347 l 781 260 l 694 260 m 260 260 l 174 260 l 174 347 l 260 347 l 260 260 m 781 347 l 781 434 l 868 434 l 868 347 l 781 347 m 174 347 l 87 347 l 87 434 l 174 434 l 174 347 m 868 434 l 868 521 l 868 608 l 868 694 l 955 694 l 955 608 l 955 521 l 955 434 l 868 434 m 87 434 l 0 434 l 0 521 l 0 608 l 0 694 l 87 694 l 87 608 l 87 521 l 87 434 m 521 608 l 521 694 l 608 694 l 608 608 l 521 608 m 434 608 l 347 608 l 347 694 l 434 694 l 434 608 m 868 694 l 781 694 l 694 694 l 608 694 l 608 781 l 694 781 l 781 781 l 868 781 l 868 694 m 347 694 l 260 694 l 174 694 l 87 694 l 87 781 l 174 781 l 260 781 l 347 781 l 347 694 z "},"¿":{"ha":1042,"x_min":0,"x_max":955,"o":"m 434 0 l 434 87 l 521 87 l 521 0 l 434 0 m 434 521 l 434 608 l 521 608 l 521 521 l 434 521 m 521 87 l 521 174 l 608 174 l 608 87 l 521 87 m 434 87 l 347 87 l 347 174 l 434 174 l 434 87 m 608 174 l 608 260 l 694 260 l 694 174 l 608 174 m 347 174 l 260 174 l 260 260 l 347 260 l 347 174 m 694 260 l 694 347 l 781 347 l 781 260 l 694 260 m 260 260 l 174 260 l 174 347 l 260 347 l 260 260 m 781 347 l 781 434 l 868 434 l 868 347 l 781 347 m 174 347 l 87 347 l 87 434 l 174 434 l 174 347 m 868 434 l 868 521 l 868 608 l 868 694 l 955 694 l 955 608 l 955 521 l 955 434 l 868 434 m 87 434 l 0 434 l 0 521 l 0 608 l 0 694 l 87 694 l 87 608 l 87 521 l 87 434 m 521 608 l 521 694 l 608 694 l 608 608 l 521 608 m 434 608 l 347 608 l 347 694 l 434 694 l 434 608 m 868 694 l 781 694 l 694 694 l 608 694 l 608 781 l 694 781 l 781 781 l 868 781 l 868 694 m 347 694 l 260 694 l 174 694 l 87 694 l 87 781 l 174 781 l 260 781 l 347 781 l 347 694 z "},"À":{"ha":694,"x_min":87,"x_max":608,"o":"m 521 0 l 521 87 l 521 174 l 521 260 l 521 347 l 434 347 l 347 347 l 260 347 l 174 347 l 174 260 l 174 174 l 174 87 l 174 0 l 87 0 l 87 87 l 87 174 l 87 260 l 87 347 l 87 434 l 87 521 l 87 608 l 174 608 l 174 521 l 174 434 l 260 434 l 347 434 l 434 434 l 521 434 l 521 521 l 521 608 l 608 608 l 608 521 l 608 434 l 608 347 l 608 260 l 608 174 l 608 87 l 608 0 l 521 0 m 347 868 l 347 955 l 434 955 l 434 868 l 347 868 m 521 608 l 434 608 l 434 694 l 521 694 l 521 608 m 174 608 l 174 694 l 260 694 l 260 608 l 174 608 m 434 694 l 347 694 l 260 694 l 260 781 l 347 781 l 434 781 l 434 694 m 347 955 l 260 955 l 260 1042 l 347 1042 l 347 955 z "},"Á":{"ha":694,"x_min":87,"x_max":608,"o":"m 521 0 l 521 87 l 521 174 l 521 260 l 521 347 l 434 347 l 347 347 l 260 347 l 174 347 l 174 260 l 174 174 l 174 87 l 174 0 l 87 0 l 87 87 l 87 174 l 87 260 l 87 347 l 87 434 l 87 521 l 87 608 l 174 608 l 174 521 l 174 434 l 260 434 l 347 434 l 434 434 l 521 434 l 521 521 l 521 608 l 608 608 l 608 521 l 608 434 l 608 347 l 608 260 l 608 174 l 608 87 l 608 0 l 521 0 m 347 868 l 347 955 l 434 955 l 434 868 l 347 868 m 521 608 l 434 608 l 434 694 l 521 694 l 521 608 m 174 608 l 174 694 l 260 694 l 260 608 l 174 608 m 434 694 l 347 694 l 260 694 l 260 781 l 347 781 l 434 781 l 434 694 m 434 955 l 434 1042 l 521 1042 l 521 955 l 434 955 z "},"Â":{"ha":694,"x_min":87,"x_max":608,"o":"m 521 0 l 521 87 l 521 174 l 521 260 l 521 347 l 434 347 l 347 347 l 260 347 l 174 347 l 174 260 l 174 174 l 174 87 l 174 0 l 87 0 l 87 87 l 87 174 l 87 260 l 87 347 l 87 434 l 87 521 l 87 608 l 174 608 l 174 521 l 174 434 l 260 434 l 347 434 l 434 434 l 521 434 l 521 521 l 521 608 l 608 608 l 608 521 l 608 434 l 608 347 l 608 260 l 608 174 l 608 87 l 608 0 l 521 0 m 434 868 l 434 955 l 521 955 l 521 868 l 434 868 m 174 868 l 174 955 l 260 955 l 260 868 l 174 868 m 521 608 l 434 608 l 434 694 l 521 694 l 521 608 m 174 608 l 174 694 l 260 694 l 260 608 l 174 608 m 434 694 l 347 694 l 260 694 l 260 781 l 347 781 l 434 781 l 434 694 m 434 955 l 347 955 l 260 955 l 260 1042 l 347 1042 l 434 1042 l 434 955 z "},"Ã":{"ha":694,"x_min":87,"x_max":608,"o":"m 521 0 l 521 87 l 521 174 l 521 260 l 521 347 l 434 347 l 347 347 l 260 347 l 174 347 l 174 260 l 174 174 l 174 87 l 174 0 l 87 0 l 87 87 l 87 174 l 87 260 l 87 347 l 87 434 l 87 521 l 87 608 l 174 608 l 174 521 l 174 434 l 260 434 l 347 434 l 434 434 l 521 434 l 521 521 l 521 608 l 608 608 l 608 521 l 608 434 l 608 347 l 608 260 l 608 174 l 608 87 l 608 0 l 521 0 m 347 868 l 347 955 l 434 955 l 434 868 l 347 868 m 174 868 l 174 955 l 260 955 l 260 868 l 174 868 m 521 608 l 434 608 l 434 694 l 521 694 l 521 608 m 174 608 l 174 694 l 260 694 l 260 608 l 174 608 m 434 694 l 347 694 l 260 694 l 260 781 l 347 781 l 434 781 l 434 694 m 434 955 l 434 1042 l 521 1042 l 521 955 l 434 955 m 347 955 l 260 955 l 260 1042 l 347 1042 l 347 955 z "},"Ä":{"ha":694,"x_min":87,"x_max":608,"o":"m 521 0 l 521 87 l 521 174 l 521 260 l 521 347 l 434 347 l 347 347 l 260 347 l 174 347 l 174 260 l 174 174 l 174 87 l 174 0 l 87 0 l 87 87 l 87 174 l 87 260 l 87 347 l 87 434 l 87 521 l 87 608 l 174 608 l 174 521 l 174 434 l 260 434 l 347 434 l 434 434 l 521 434 l 521 521 l 521 608 l 608 608 l 608 521 l 608 434 l 608 347 l 608 260 l 608 174 l 608 87 l 608 0 l 521 0 m 434 868 l 434 955 l 521 955 l 521 868 l 434 868 m 174 868 l 174 955 l 260 955 l 260 868 l 174 868 m 521 608 l 434 608 l 434 694 l 521 694 l 521 608 m 174 608 l 174 694 l 260 694 l 260 608 l 174 608 m 434 694 l 347 694 l 260 694 l 260 781 l 347 781 l 434 781 l 434 694 z "},"Å":{"ha":694,"x_min":87,"x_max":608,"o":"m 521 0 l 521 87 l 521 174 l 521 260 l 521 347 l 434 347 l 347 347 l 260 347 l 174 347 l 174 260 l 174 174 l 174 87 l 174 0 l 87 0 l 87 87 l 87 174 l 87 260 l 87 347 l 87 434 l 87 521 l 87 608 l 174 608 l 174 521 l 174 434 l 260 434 l 347 434 l 434 434 l 521 434 l 521 521 l 521 608 l 608 608 l 608 521 l 608 434 l 608 347 l 608 260 l 608 174 l 608 87 l 608 0 l 521 0 m 521 608 l 434 608 l 434 694 l 521 694 l 521 608 m 174 608 l 174 694 l 260 694 l 260 608 l 174 608 m 434 694 l 347 694 l 260 694 l 260 781 l 347 781 l 434 781 l 434 694 m 434 781 l 434 868 l 434 955 l 521 955 l 521 868 l 521 781 l 434 781 m 260 781 l 174 781 l 174 868 l 174 955 l 260 955 l 260 868 l 260 781 m 434 955 l 347 955 l 260 955 l 260 1042 l 347 1042 l 434 1042 l 434 955 z "},"Ç":{"ha":781,"x_min":87,"x_max":694,"o":"m 347 -260 l 347 -174 l 434 -174 l 434 -260 l 347 -260 m 608 608 l 608 694 l 694 694 l 694 608 l 608 608 m 434 -174 l 434 -87 l 521 -87 l 521 -174 l 434 -174 m 434 -87 l 347 -87 l 347 0 l 260 0 l 260 87 l 347 87 l 434 87 l 521 87 l 608 87 l 608 0 l 521 0 l 434 0 l 434 -87 m 608 87 l 608 174 l 694 174 l 694 87 l 608 87 m 260 87 l 174 87 l 174 174 l 260 174 l 260 87 m 174 174 l 87 174 l 87 260 l 87 347 l 87 434 l 87 521 l 87 608 l 174 608 l 174 521 l 174 434 l 174 347 l 174 260 l 174 174 m 174 608 l 174 694 l 260 694 l 260 608 l 174 608 m 608 694 l 521 694 l 434 694 l 347 694 l 260 694 l 260 781 l 347 781 l 434 781 l 521 781 l 608 781 l 608 694 z "},"È":{"ha":694,"x_min":87,"x_max":608,"o":"m 347 868 l 347 955 l 434 955 l 434 868 l 347 868 m 521 87 l 608 87 l 608 0 l 521 0 l 434 0 l 347 0 l 260 0 l 174 0 l 174 87 l 260 87 l 347 87 l 434 87 l 521 87 m 174 87 l 87 87 l 87 174 l 87 260 l 87 347 l 87 434 l 87 521 l 87 608 l 87 694 l 174 694 l 174 608 l 174 521 l 174 434 l 260 434 l 347 434 l 434 434 l 521 434 l 521 347 l 434 347 l 347 347 l 260 347 l 174 347 l 174 260 l 174 174 l 174 87 m 521 781 l 608 781 l 608 694 l 521 694 l 434 694 l 347 694 l 260 694 l 174 694 l 174 781 l 260 781 l 347 781 l 434 781 l 521 781 m 347 955 l 260 955 l 260 1042 l 347 1042 l 347 955 z "},"É":{"ha":694,"x_min":87,"x_max":608,"o":"m 347 868 l 347 955 l 434 955 l 434 868 l 347 868 m 521 87 l 608 87 l 608 0 l 521 0 l 434 0 l 347 0 l 260 0 l 174 0 l 174 87 l 260 87 l 347 87 l 434 87 l 521 87 m 174 87 l 87 87 l 87 174 l 87 260 l 87 347 l 87 434 l 87 521 l 87 608 l 87 694 l 174 694 l 174 608 l 174 521 l 174 434 l 260 434 l 347 434 l 434 434 l 521 434 l 521 347 l 434 347 l 347 347 l 260 347 l 174 347 l 174 260 l 174 174 l 174 87 m 521 781 l 608 781 l 608 694 l 521 694 l 434 694 l 347 694 l 260 694 l 174 694 l 174 781 l 260 781 l 347 781 l 434 781 l 521 781 m 434 955 l 434 1042 l 521 1042 l 521 955 l 434 955 z "},"Ê":{"ha":694,"x_min":87,"x_max":608,"o":"m 434 868 l 434 955 l 521 955 l 521 868 l 434 868 m 260 868 l 260 955 l 347 955 l 347 868 l 260 868 m 521 87 l 608 87 l 608 0 l 521 0 l 434 0 l 347 0 l 260 0 l 174 0 l 174 87 l 260 87 l 347 87 l 434 87 l 521 87 m 174 87 l 87 87 l 87 174 l 87 260 l 87 347 l 87 434 l 87 521 l 87 608 l 87 694 l 174 694 l 174 608 l 174 521 l 174 434 l 260 434 l 347 434 l 434 434 l 521 434 l 521 347 l 434 347 l 347 347 l 260 347 l 174 347 l 174 260 l 174 174 l 174 87 m 521 781 l 608 781 l 608 694 l 521 694 l 434 694 l 347 694 l 260 694 l 174 694 l 174 781 l 260 781 l 347 781 l 434 781 l 521 781 m 434 955 l 347 955 l 347 1042 l 434 1042 l 434 955 z "},"Ë":{"ha":694,"x_min":87,"x_max":608,"o":"m 434 868 l 434 955 l 521 955 l 521 868 l 434 868 m 260 868 l 260 955 l 347 955 l 347 868 l 260 868 m 521 87 l 608 87 l 608 0 l 521 0 l 434 0 l 347 0 l 260 0 l 174 0 l 174 87 l 260 87 l 347 87 l 434 87 l 521 87 m 174 87 l 87 87 l 87 174 l 87 260 l 87 347 l 87 434 l 87 521 l 87 608 l 87 694 l 174 694 l 174 608 l 174 521 l 174 434 l 260 434 l 347 434 l 434 434 l 521 434 l 521 347 l 434 347 l 347 347 l 260 347 l 174 347 l 174 260 l 174 174 l 174 87 m 521 781 l 608 781 l 608 694 l 521 694 l 434 694 l 347 694 l 260 694 l 174 694 l 174 781 l 260 781 l 347 781 l 434 781 l 521 781 z "},"Ì":{"ha":347,"x_min":0,"x_max":260,"o":"m 87 868 l 87 955 l 174 955 l 174 868 l 87 868 m 174 0 l 87 0 l 0 0 l 0 87 l 87 87 l 87 174 l 87 260 l 87 347 l 87 434 l 87 521 l 87 608 l 87 694 l 0 694 l 0 781 l 87 781 l 174 781 l 260 781 l 260 694 l 174 694 l 174 608 l 174 521 l 174 434 l 174 347 l 174 260 l 174 174 l 174 87 l 260 87 l 260 0 l 174 0 m 87 955 l 0 955 l 0 1042 l 87 1042 l 87 955 z "},"Í":{"ha":347,"x_min":0,"x_max":260,"o":"m 87 868 l 87 955 l 174 955 l 174 868 l 87 868 m 174 0 l 87 0 l 0 0 l 0 87 l 87 87 l 87 174 l 87 260 l 87 347 l 87 434 l 87 521 l 87 608 l 87 694 l 0 694 l 0 781 l 87 781 l 174 781 l 260 781 l 260 694 l 174 694 l 174 608 l 174 521 l 174 434 l 174 347 l 174 260 l 174 174 l 174 87 l 260 87 l 260 0 l 174 0 m 174 955 l 174 1042 l 260 1042 l 260 955 l 174 955 z "},"Î":{"ha":347,"x_min":0,"x_max":260,"o":"m 174 868 l 174 955 l 260 955 l 260 868 l 174 868 m 0 868 l 0 955 l 87 955 l 87 868 l 0 868 m 174 0 l 87 0 l 0 0 l 0 87 l 87 87 l 87 174 l 87 260 l 87 347 l 87 434 l 87 521 l 87 608 l 87 694 l 0 694 l 0 781 l 87 781 l 174 781 l 260 781 l 260 694 l 174 694 l 174 608 l 174 521 l 174 434 l 174 347 l 174 260 l 174 174 l 174 87 l 260 87 l 260 0 l 174 0 m 174 955 l 87 955 l 87 1042 l 174 1042 l 174 955 z "},"Ï":{"ha":347,"x_min":0,"x_max":260,"o":"m 174 868 l 174 955 l 260 955 l 260 868 l 174 868 m 0 868 l 0 955 l 87 955 l 87 868 l 0 868 m 174 0 l 87 0 l 0 0 l 0 87 l 87 87 l 87 174 l 87 260 l 87 347 l 87 434 l 87 521 l 87 608 l 87 694 l 0 694 l 0 781 l 87 781 l 174 781 l 260 781 l 260 694 l 174 694 l 174 608 l 174 521 l 174 434 l 174 347 l 174 260 l 174 174 l 174 87 l 260 87 l 260 0 l 174 0 z "},"Ð":{"ha":781,"x_min":0,"x_max":694,"o":"m 434 87 l 521 87 l 521 0 l 434 0 l 347 0 l 260 0 l 174 0 l 174 87 l 260 87 l 347 87 l 434 87 m 521 87 l 521 174 l 608 174 l 608 87 l 521 87 m 174 87 l 87 87 l 87 174 l 87 260 l 87 347 l 0 347 l 0 434 l 87 434 l 87 521 l 87 608 l 87 694 l 174 694 l 174 608 l 174 521 l 174 434 l 260 434 l 347 434 l 434 434 l 434 347 l 347 347 l 260 347 l 174 347 l 174 260 l 174 174 l 174 87 m 608 174 l 608 260 l 608 347 l 608 434 l 608 521 l 608 608 l 694 608 l 694 521 l 694 434 l 694 347 l 694 260 l 694 174 l 608 174 m 608 608 l 521 608 l 521 694 l 608 694 l 608 608 m 521 694 l 434 694 l 347 694 l 260 694 l 174 694 l 174 781 l 260 781 l 347 781 l 434 781 l 521 781 l 521 694 z "},"Ñ":{"ha":781,"x_min":87,"x_max":694,"o":"m 521 0 l 521 87 l 608 87 l 608 0 l 521 0 m 87 0 l 87 87 l 87 174 l 87 260 l 87 347 l 87 434 l 87 521 l 87 608 l 87 694 l 174 694 l 174 608 l 174 521 l 174 434 l 174 347 l 174 260 l 174 174 l 174 87 l 174 0 l 87 0 m 434 868 l 434 955 l 521 955 l 521 868 l 434 868 m 260 868 l 260 955 l 347 955 l 347 868 l 260 868 m 608 87 l 608 174 l 608 260 l 608 347 l 608 434 l 608 521 l 608 608 l 608 694 l 608 781 l 694 781 l 694 694 l 694 608 l 694 521 l 694 434 l 694 347 l 694 260 l 694 174 l 694 87 l 608 87 m 521 87 l 434 87 l 434 174 l 434 260 l 521 260 l 521 174 l 521 87 m 434 260 l 347 260 l 347 347 l 347 434 l 347 521 l 434 521 l 434 434 l 434 347 l 434 260 m 347 521 l 260 521 l 260 608 l 260 694 l 347 694 l 347 608 l 347 521 m 260 694 l 174 694 l 174 781 l 260 781 l 260 694 m 521 955 l 521 1042 l 608 1042 l 608 955 l 521 955 m 434 955 l 347 955 l 347 1042 l 434 1042 l 434 955 z "},"Ò":{"ha":868,"x_min":87,"x_max":781,"o":"m 434 868 l 434 955 l 521 955 l 521 868 l 434 868 m 521 87 l 608 87 l 608 0 l 521 0 l 434 0 l 347 0 l 260 0 l 260 87 l 347 87 l 434 87 l 521 87 m 608 87 l 608 174 l 694 174 l 694 87 l 608 87 m 260 87 l 174 87 l 174 174 l 260 174 l 260 87 m 694 174 l 694 260 l 694 347 l 694 434 l 694 521 l 694 608 l 781 608 l 781 521 l 781 434 l 781 347 l 781 260 l 781 174 l 694 174 m 174 174 l 87 174 l 87 260 l 87 347 l 87 434 l 87 521 l 87 608 l 174 608 l 174 521 l 174 434 l 174 347 l 174 260 l 174 174 m 694 608 l 608 608 l 608 694 l 694 694 l 694 608 m 174 608 l 174 694 l 260 694 l 260 608 l 174 608 m 608 694 l 521 694 l 434 694 l 347 694 l 260 694 l 260 781 l 347 781 l 434 781 l 521 781 l 608 781 l 608 694 m 434 955 l 347 955 l 347 1042 l 434 1042 l 434 955 z "},"Ó":{"ha":868,"x_min":87,"x_max":781,"o":"m 347 868 l 347 955 l 434 955 l 434 868 l 347 868 m 521 87 l 608 87 l 608 0 l 521 0 l 434 0 l 347 0 l 260 0 l 260 87 l 347 87 l 434 87 l 521 87 m 608 87 l 608 174 l 694 174 l 694 87 l 608 87 m 260 87 l 174 87 l 174 174 l 260 174 l 260 87 m 694 174 l 694 260 l 694 347 l 694 434 l 694 521 l 694 608 l 781 608 l 781 521 l 781 434 l 781 347 l 781 260 l 781 174 l 694 174 m 174 174 l 87 174 l 87 260 l 87 347 l 87 434 l 87 521 l 87 608 l 174 608 l 174 521 l 174 434 l 174 347 l 174 260 l 174 174 m 694 608 l 608 608 l 608 694 l 694 694 l 694 608 m 174 608 l 174 694 l 260 694 l 260 608 l 174 608 m 608 694 l 521 694 l 434 694 l 347 694 l 260 694 l 260 781 l 347 781 l 434 781 l 521 781 l 608 781 l 608 694 m 434 955 l 434 1042 l 521 1042 l 521 955 l 434 955 z "},"Ô":{"ha":868,"x_min":87,"x_max":781,"o":"m 521 868 l 521 955 l 608 955 l 608 868 l 521 868 m 260 868 l 260 955 l 347 955 l 347 868 l 260 868 m 521 87 l 608 87 l 608 0 l 521 0 l 434 0 l 347 0 l 260 0 l 260 87 l 347 87 l 434 87 l 521 87 m 608 87 l 608 174 l 694 174 l 694 87 l 608 87 m 260 87 l 174 87 l 174 174 l 260 174 l 260 87 m 694 174 l 694 260 l 694 347 l 694 434 l 694 521 l 694 608 l 781 608 l 781 521 l 781 434 l 781 347 l 781 260 l 781 174 l 694 174 m 174 174 l 87 174 l 87 260 l 87 347 l 87 434 l 87 521 l 87 608 l 174 608 l 174 521 l 174 434 l 174 347 l 174 260 l 174 174 m 694 608 l 608 608 l 608 694 l 694 694 l 694 608 m 174 608 l 174 694 l 260 694 l 260 608 l 174 608 m 608 694 l 521 694 l 434 694 l 347 694 l 260 694 l 260 781 l 347 781 l 434 781 l 521 781 l 608 781 l 608 694 m 521 955 l 434 955 l 347 955 l 347 1042 l 434 1042 l 521 1042 l 521 955 z "},"Õ":{"ha":868,"x_min":87,"x_max":781,"o":"m 434 868 l 434 955 l 521 955 l 521 868 l 434 868 m 260 868 l 260 955 l 347 955 l 347 868 l 260 868 m 521 87 l 608 87 l 608 0 l 521 0 l 434 0 l 347 0 l 260 0 l 260 87 l 347 87 l 434 87 l 521 87 m 608 87 l 608 174 l 694 174 l 694 87 l 608 87 m 260 87 l 174 87 l 174 174 l 260 174 l 260 87 m 694 174 l 694 260 l 694 347 l 694 434 l 694 521 l 694 608 l 781 608 l 781 521 l 781 434 l 781 347 l 781 260 l 781 174 l 694 174 m 174 174 l 87 174 l 87 260 l 87 347 l 87 434 l 87 521 l 87 608 l 174 608 l 174 521 l 174 434 l 174 347 l 174 260 l 174 174 m 694 608 l 608 608 l 608 694 l 694 694 l 694 608 m 174 608 l 174 694 l 260 694 l 260 608 l 174 608 m 608 694 l 521 694 l 434 694 l 347 694 l 260 694 l 260 781 l 347 781 l 434 781 l 521 781 l 608 781 l 608 694 m 521 955 l 521 1042 l 608 1042 l 608 955 l 521 955 m 434 955 l 347 955 l 347 1042 l 434 1042 l 434 955 z "},"Ö":{"ha":868,"x_min":87,"x_max":781,"o":"m 521 868 l 521 955 l 608 955 l 608 868 l 521 868 m 260 868 l 260 955 l 347 955 l 347 868 l 260 868 m 521 87 l 608 87 l 608 0 l 521 0 l 434 0 l 347 0 l 260 0 l 260 87 l 347 87 l 434 87 l 521 87 m 608 87 l 608 174 l 694 174 l 694 87 l 608 87 m 260 87 l 174 87 l 174 174 l 260 174 l 260 87 m 694 174 l 694 260 l 694 347 l 694 434 l 694 521 l 694 608 l 781 608 l 781 521 l 781 434 l 781 347 l 781 260 l 781 174 l 694 174 m 174 174 l 87 174 l 87 260 l 87 347 l 87 434 l 87 521 l 87 608 l 174 608 l 174 521 l 174 434 l 174 347 l 174 260 l 174 174 m 694 608 l 608 608 l 608 694 l 694 694 l 694 608 m 174 608 l 174 694 l 260 694 l 260 608 l 174 608 m 608 694 l 521 694 l 434 694 l 347 694 l 260 694 l 260 781 l 347 781 l 434 781 l 521 781 l 608 781 l 608 694 z "},"×":{"ha":1042,"x_min":0,"x_max":955,"o":"m 434 0 l 434 87 l 521 87 l 521 0 l 434 0 m 434 521 l 434 608 l 521 608 l 521 521 l 434 521 m 521 87 l 521 174 l 608 174 l 608 87 l 521 87 m 434 87 l 347 87 l 347 174 l 434 174 l 434 87 m 608 174 l 608 260 l 694 260 l 694 174 l 608 174 m 347 174 l 260 174 l 260 260 l 347 260 l 347 174 m 694 260 l 694 347 l 781 347 l 781 260 l 694 260 m 260 260 l 174 260 l 174 347 l 260 347 l 260 260 m 781 347 l 781 434 l 868 434 l 868 347 l 781 347 m 174 347 l 87 347 l 87 434 l 174 434 l 174 347 m 868 434 l 868 521 l 868 608 l 868 694 l 955 694 l 955 608 l 955 521 l 955 434 l 868 434 m 87 434 l 0 434 l 0 521 l 0 608 l 0 694 l 87 694 l 87 608 l 87 521 l 87 434 m 521 608 l 521 694 l 608 694 l 608 608 l 521 608 m 434 608 l 347 608 l 347 694 l 434 694 l 434 608 m 868 694 l 781 694 l 694 694 l 608 694 l 608 781 l 694 781 l 781 781 l 868 781 l 868 694 m 347 694 l 260 694 l 174 694 l 87 694 l 87 781 l 174 781 l 260 781 l 347 781 l 347 694 z "},"Ø":{"ha":868,"x_min":87,"x_max":781,"o":"m 87 0 l 87 87 l 174 87 l 174 0 l 87 0 m 521 87 l 608 87 l 608 0 l 521 0 l 434 0 l 347 0 l 260 0 l 260 87 l 347 87 l 434 87 l 521 87 m 608 87 l 608 174 l 694 174 l 694 87 l 608 87 m 260 87 l 174 87 l 174 174 l 260 174 l 260 87 m 694 174 l 694 260 l 694 347 l 694 434 l 694 521 l 694 608 l 781 608 l 781 521 l 781 434 l 781 347 l 781 260 l 781 174 l 694 174 m 260 174 l 260 260 l 347 260 l 347 174 l 260 174 m 174 174 l 87 174 l 87 260 l 87 347 l 87 434 l 87 521 l 87 608 l 174 608 l 174 521 l 174 434 l 174 347 l 174 260 l 174 174 m 347 260 l 347 347 l 434 347 l 434 260 l 347 260 m 434 347 l 434 434 l 434 521 l 521 521 l 521 434 l 521 347 l 434 347 m 521 521 l 521 608 l 608 608 l 608 521 l 521 521 m 694 608 l 608 608 l 608 694 l 694 694 l 694 608 m 174 608 l 174 694 l 260 694 l 260 608 l 174 608 m 694 694 l 694 781 l 781 781 l 781 694 l 694 694 m 608 694 l 521 694 l 434 694 l 347 694 l 260 694 l 260 781 l 347 781 l 434 781 l 521 781 l 608 781 l 608 694 z "},"Ù":{"ha":781,"x_min":87,"x_max":694,"o":"m 347 868 l 347 955 l 434 955 l 434 868 l 347 868 m 434 87 l 521 87 l 521 0 l 434 0 l 347 0 l 260 0 l 260 87 l 347 87 l 434 87 m 521 87 l 521 174 l 608 174 l 608 87 l 521 87 m 260 87 l 174 87 l 174 174 l 260 174 l 260 87 m 608 174 l 608 260 l 608 347 l 608 434 l 608 521 l 608 608 l 608 694 l 608 781 l 694 781 l 694 694 l 694 608 l 694 521 l 694 434 l 694 347 l 694 260 l 694 174 l 608 174 m 174 174 l 87 174 l 87 260 l 87 347 l 87 434 l 87 521 l 87 608 l 87 694 l 87 781 l 174 781 l 174 694 l 174 608 l 174 521 l 174 434 l 174 347 l 174 260 l 174 174 m 347 955 l 260 955 l 260 1042 l 347 1042 l 347 955 z "},"Ú":{"ha":781,"x_min":87,"x_max":694,"o":"m 347 868 l 347 955 l 434 955 l 434 868 l 347 868 m 434 87 l 521 87 l 521 0 l 434 0 l 347 0 l 260 0 l 260 87 l 347 87 l 434 87 m 521 87 l 521 174 l 608 174 l 608 87 l 521 87 m 260 87 l 174 87 l 174 174 l 260 174 l 260 87 m 608 174 l 608 260 l 608 347 l 608 434 l 608 521 l 608 608 l 608 694 l 608 781 l 694 781 l 694 694 l 694 608 l 694 521 l 694 434 l 694 347 l 694 260 l 694 174 l 608 174 m 174 174 l 87 174 l 87 260 l 87 347 l 87 434 l 87 521 l 87 608 l 87 694 l 87 781 l 174 781 l 174 694 l 174 608 l 174 521 l 174 434 l 174 347 l 174 260 l 174 174 m 434 955 l 434 1042 l 521 1042 l 521 955 l 434 955 z "},"Û":{"ha":781,"x_min":87,"x_max":694,"o":"m 434 868 l 434 955 l 521 955 l 521 868 l 434 868 m 260 868 l 260 955 l 347 955 l 347 868 l 260 868 m 434 87 l 521 87 l 521 0 l 434 0 l 347 0 l 260 0 l 260 87 l 347 87 l 434 87 m 521 87 l 521 174 l 608 174 l 608 87 l 521 87 m 260 87 l 174 87 l 174 174 l 260 174 l 260 87 m 608 174 l 608 260 l 608 347 l 608 434 l 608 521 l 608 608 l 608 694 l 608 781 l 694 781 l 694 694 l 694 608 l 694 521 l 694 434 l 694 347 l 694 260 l 694 174 l 608 174 m 174 174 l 87 174 l 87 260 l 87 347 l 87 434 l 87 521 l 87 608 l 87 694 l 87 781 l 174 781 l 174 694 l 174 608 l 174 521 l 174 434 l 174 347 l 174 260 l 174 174 m 434 955 l 347 955 l 347 1042 l 434 1042 l 434 955 z "},"Ü":{"ha":781,"x_min":87,"x_max":694,"o":"m 434 868 l 434 955 l 521 955 l 521 868 l 434 868 m 260 868 l 260 955 l 347 955 l 347 868 l 260 868 m 434 87 l 521 87 l 521 0 l 434 0 l 347 0 l 260 0 l 260 87 l 347 87 l 434 87 m 521 87 l 521 174 l 608 174 l 608 87 l 521 87 m 260 87 l 174 87 l 174 174 l 260 174 l 260 87 m 608 174 l 608 260 l 608 347 l 608 434 l 608 521 l 608 608 l 608 694 l 608 781 l 694 781 l 694 694 l 694 608 l 694 521 l 694 434 l 694 347 l 694 260 l 694 174 l 608 174 m 174 174 l 87 174 l 87 260 l 87 347 l 87 434 l 87 521 l 87 608 l 87 694 l 87 781 l 174 781 l 174 694 l 174 608 l 174 521 l 174 434 l 174 347 l 174 260 l 174 174 z "},"Ý":{"ha":781,"x_min":87,"x_max":694,"o":"m 347 0 l 347 87 l 347 174 l 347 260 l 347 347 l 434 347 l 434 260 l 434 174 l 434 87 l 434 0 l 347 0 m 347 868 l 347 955 l 434 955 l 434 868 l 347 868 m 434 347 l 434 434 l 521 434 l 521 347 l 434 347 m 347 347 l 260 347 l 260 434 l 347 434 l 347 347 m 521 434 l 521 521 l 608 521 l 608 434 l 521 434 m 260 434 l 174 434 l 174 521 l 260 521 l 260 434 m 608 521 l 608 608 l 608 694 l 608 781 l 694 781 l 694 694 l 694 608 l 694 521 l 608 521 m 174 521 l 87 521 l 87 608 l 87 694 l 87 781 l 174 781 l 174 694 l 174 608 l 174 521 m 434 955 l 434 1042 l 521 1042 l 521 955 l 434 955 z "},"Þ":{"ha":1042,"x_min":0,"x_max":955,"o":"m 434 0 l 434 87 l 521 87 l 521 0 l 434 0 m 434 521 l 434 608 l 521 608 l 521 521 l 434 521 m 521 87 l 521 174 l 608 174 l 608 87 l 521 87 m 434 87 l 347 87 l 347 174 l 434 174 l 434 87 m 608 174 l 608 260 l 694 260 l 694 174 l 608 174 m 347 174 l 260 174 l 260 260 l 347 260 l 347 174 m 694 260 l 694 347 l 781 347 l 781 260 l 694 260 m 260 260 l 174 260 l 174 347 l 260 347 l 260 260 m 781 347 l 781 434 l 868 434 l 868 347 l 781 347 m 174 347 l 87 347 l 87 434 l 174 434 l 174 347 m 868 434 l 868 521 l 868 608 l 868 694 l 955 694 l 955 608 l 955 521 l 955 434 l 868 434 m 87 434 l 0 434 l 0 521 l 0 608 l 0 694 l 87 694 l 87 608 l 87 521 l 87 434 m 521 608 l 521 694 l 608 694 l 608 608 l 521 608 m 434 608 l 347 608 l 347 694 l 434 694 l 434 608 m 868 694 l 781 694 l 694 694 l 608 694 l 608 781 l 694 781 l 781 781 l 868 781 l 868 694 m 347 694 l 260 694 l 174 694 l 87 694 l 87 781 l 174 781 l 260 781 l 347 781 l 347 694 z "},"ß":{"ha":694,"x_min":87,"x_max":608,"o":"m 87 -87 l 87 0 l 87 87 l 87 174 l 87 260 l 87 347 l 87 434 l 87 521 l 87 608 l 87 694 l 87 781 l 174 781 l 174 694 l 174 608 l 174 521 l 174 434 l 174 347 l 174 260 l 174 174 l 174 87 l 174 0 l 174 -87 l 87 -87 m 434 87 l 521 87 l 521 0 l 434 0 l 347 0 l 347 87 l 434 87 m 521 87 l 521 174 l 521 260 l 521 347 l 608 347 l 608 260 l 608 174 l 608 87 l 521 87 m 347 87 l 260 87 l 260 174 l 347 174 l 347 87 m 521 347 l 434 347 l 434 434 l 521 434 l 521 347 m 434 434 l 347 434 l 260 434 l 260 521 l 347 521 l 434 521 l 434 434 m 434 521 l 434 608 l 434 694 l 434 781 l 521 781 l 521 694 l 521 608 l 521 521 l 434 521 m 434 781 l 347 781 l 260 781 l 174 781 l 174 868 l 260 868 l 347 868 l 434 868 l 434 781 z "},"à":{"ha":694,"x_min":87,"x_max":608,"o":"m 521 0 l 521 87 l 608 87 l 608 0 l 521 0 m 260 608 l 260 694 l 347 694 l 347 608 l 260 608 m 347 87 l 434 87 l 434 0 l 347 0 l 260 0 l 174 0 l 174 87 l 260 87 l 347 87 m 521 87 l 434 87 l 434 174 l 434 260 l 434 347 l 434 434 l 521 434 l 521 347 l 521 260 l 521 174 l 521 87 m 174 87 l 87 87 l 87 174 l 87 260 l 87 347 l 87 434 l 174 434 l 174 347 l 174 260 l 174 174 l 174 87 m 434 434 l 347 434 l 260 434 l 174 434 l 174 521 l 260 521 l 347 521 l 434 521 l 434 434 m 260 694 l 174 694 l 174 781 l 260 781 l 260 694 z "},"á":{"ha":694,"x_min":87,"x_max":608,"o":"m 521 0 l 521 87 l 608 87 l 608 0 l 521 0 m 260 608 l 260 694 l 347 694 l 347 608 l 260 608 m 347 87 l 434 87 l 434 0 l 347 0 l 260 0 l 174 0 l 174 87 l 260 87 l 347 87 m 521 87 l 434 87 l 434 174 l 434 260 l 434 347 l 434 434 l 521 434 l 521 347 l 521 260 l 521 174 l 521 87 m 174 87 l 87 87 l 87 174 l 87 260 l 87 347 l 87 434 l 174 434 l 174 347 l 174 260 l 174 174 l 174 87 m 434 434 l 347 434 l 260 434 l 174 434 l 174 521 l 260 521 l 347 521 l 434 521 l 434 434 m 347 694 l 347 781 l 434 781 l 434 694 l 347 694 z "},"â":{"ha":694,"x_min":87,"x_max":608,"o":"m 521 0 l 521 87 l 608 87 l 608 0 l 521 0 m 347 608 l 347 694 l 434 694 l 434 608 l 347 608 m 174 608 l 174 694 l 260 694 l 260 608 l 174 608 m 347 87 l 434 87 l 434 0 l 347 0 l 260 0 l 174 0 l 174 87 l 260 87 l 347 87 m 521 87 l 434 87 l 434 174 l 434 260 l 434 347 l 434 434 l 521 434 l 521 347 l 521 260 l 521 174 l 521 87 m 174 87 l 87 87 l 87 174 l 87 260 l 87 347 l 87 434 l 174 434 l 174 347 l 174 260 l 174 174 l 174 87 m 434 434 l 347 434 l 260 434 l 174 434 l 174 521 l 260 521 l 347 521 l 434 521 l 434 434 m 347 694 l 260 694 l 260 781 l 347 781 l 347 694 z "},"ã":{"ha":694,"x_min":87,"x_max":608,"o":"m 521 0 l 521 87 l 608 87 l 608 0 l 521 0 m 347 608 l 347 694 l 434 694 l 434 608 l 347 608 m 174 608 l 174 694 l 260 694 l 260 608 l 174 608 m 347 87 l 434 87 l 434 0 l 347 0 l 260 0 l 174 0 l 174 87 l 260 87 l 347 87 m 521 87 l 434 87 l 434 174 l 434 260 l 434 347 l 434 434 l 521 434 l 521 347 l 521 260 l 521 174 l 521 87 m 174 87 l 87 87 l 87 174 l 87 260 l 87 347 l 87 434 l 174 434 l 174 347 l 174 260 l 174 174 l 174 87 m 434 434 l 347 434 l 260 434 l 174 434 l 174 521 l 260 521 l 347 521 l 434 521 l 434 434 m 434 694 l 434 781 l 521 781 l 521 694 l 434 694 m 347 694 l 260 694 l 260 781 l 347 781 l 347 694 z "},"ä":{"ha":694,"x_min":87,"x_max":608,"o":"m 521 0 l 521 87 l 608 87 l 608 0 l 521 0 m 347 608 l 347 694 l 434 694 l 434 608 l 347 608 m 174 608 l 174 694 l 260 694 l 260 608 l 174 608 m 347 87 l 434 87 l 434 0 l 347 0 l 260 0 l 174 0 l 174 87 l 260 87 l 347 87 m 521 87 l 434 87 l 434 174 l 434 260 l 434 347 l 434 434 l 521 434 l 521 347 l 521 260 l 521 174 l 521 87 m 174 87 l 87 87 l 87 174 l 87 260 l 87 347 l 87 434 l 174 434 l 174 347 l 174 260 l 174 174 l 174 87 m 434 434 l 347 434 l 260 434 l 174 434 l 174 521 l 260 521 l 347 521 l 434 521 l 434 434 z "},"å":{"ha":694,"x_min":87,"x_max":608,"o":"m 521 0 l 521 87 l 608 87 l 608 0 l 521 0 m 347 87 l 434 87 l 434 0 l 347 0 l 260 0 l 174 0 l 174 87 l 260 87 l 347 87 m 521 87 l 434 87 l 434 174 l 434 260 l 434 347 l 434 434 l 521 434 l 521 347 l 521 260 l 521 174 l 521 87 m 174 87 l 87 87 l 87 174 l 87 260 l 87 347 l 87 434 l 174 434 l 174 347 l 174 260 l 174 174 l 174 87 m 434 434 l 347 434 l 260 434 l 174 434 l 174 521 l 260 521 l 260 608 l 347 608 l 347 521 l 434 521 l 434 434 m 347 608 l 347 694 l 434 694 l 434 608 l 347 608 m 260 608 l 174 608 l 174 694 l 260 694 l 260 608 m 347 694 l 260 694 l 260 781 l 347 781 l 347 694 z "},"æ":{"ha":1042,"x_min":0,"x_max":955,"o":"m 434 0 l 434 87 l 521 87 l 521 0 l 434 0 m 434 521 l 434 608 l 521 608 l 521 521 l 434 521 m 521 87 l 521 174 l 608 174 l 608 87 l 521 87 m 434 87 l 347 87 l 347 174 l 434 174 l 434 87 m 608 174 l 608 260 l 694 260 l 694 174 l 608 174 m 347 174 l 260 174 l 260 260 l 347 260 l 347 174 m 694 260 l 694 347 l 781 347 l 781 260 l 694 260 m 260 260 l 174 260 l 174 347 l 260 347 l 260 260 m 781 347 l 781 434 l 868 434 l 868 347 l 781 347 m 174 347 l 87 347 l 87 434 l 174 434 l 174 347 m 868 434 l 868 521 l 868 608 l 868 694 l 955 694 l 955 608 l 955 521 l 955 434 l 868 434 m 87 434 l 0 434 l 0 521 l 0 608 l 0 694 l 87 694 l 87 608 l 87 521 l 87 434 m 521 608 l 521 694 l 608 694 l 608 608 l 521 608 m 434 608 l 347 608 l 347 694 l 434 694 l 434 608 m 868 694 l 781 694 l 694 694 l 608 694 l 608 781 l 694 781 l 781 781 l 868 781 l 868 694 m 347 694 l 260 694 l 174 694 l 87 694 l 87 781 l 174 781 l 260 781 l 347 781 l 347 694 z "},"ç":{"ha":608,"x_min":87,"x_max":521,"o":"m 260 -260 l 260 -174 l 347 -174 l 347 -260 l 260 -260 m 434 347 l 434 434 l 521 434 l 521 347 l 434 347 m 347 -174 l 347 -87 l 434 -87 l 434 -174 l 347 -174 m 347 -87 l 260 -87 l 260 0 l 174 0 l 174 87 l 260 87 l 347 87 l 434 87 l 434 0 l 347 0 l 347 -87 m 434 87 l 434 174 l 521 174 l 521 87 l 434 87 m 174 87 l 87 87 l 87 174 l 87 260 l 87 347 l 87 434 l 174 434 l 174 347 l 174 260 l 174 174 l 174 87 m 434 434 l 347 434 l 260 434 l 174 434 l 174 521 l 260 521 l 347 521 l 434 521 l 434 434 z "},"è":{"ha":608,"x_min":87,"x_max":521,"o":"m 260 608 l 260 694 l 347 694 l 347 608 l 260 608 m 347 87 l 434 87 l 434 0 l 347 0 l 260 0 l 174 0 l 174 87 l 260 87 l 347 87 m 434 87 l 434 174 l 521 174 l 521 87 l 434 87 m 174 87 l 87 87 l 87 174 l 87 260 l 87 347 l 87 434 l 174 434 l 174 347 l 260 347 l 347 347 l 434 347 l 434 260 l 347 260 l 260 260 l 174 260 l 174 174 l 174 87 m 434 347 l 434 434 l 521 434 l 521 347 l 434 347 m 434 434 l 347 434 l 260 434 l 174 434 l 174 521 l 260 521 l 347 521 l 434 521 l 434 434 m 260 694 l 174 694 l 174 781 l 260 781 l 260 694 z "},"é":{"ha":608,"x_min":87,"x_max":521,"o":"m 260 608 l 260 694 l 347 694 l 347 608 l 260 608 m 347 87 l 434 87 l 434 0 l 347 0 l 260 0 l 174 0 l 174 87 l 260 87 l 347 87 m 434 87 l 434 174 l 521 174 l 521 87 l 434 87 m 174 87 l 87 87 l 87 174 l 87 260 l 87 347 l 87 434 l 174 434 l 174 347 l 260 347 l 347 347 l 434 347 l 434 260 l 347 260 l 260 260 l 174 260 l 174 174 l 174 87 m 434 347 l 434 434 l 521 434 l 521 347 l 434 347 m 434 434 l 347 434 l 260 434 l 174 434 l 174 521 l 260 521 l 347 521 l 434 521 l 434 434 m 347 694 l 347 781 l 434 781 l 434 694 l 347 694 z "},"ê":{"ha":608,"x_min":87,"x_max":521,"o":"m 347 608 l 347 694 l 434 694 l 434 608 l 347 608 m 174 608 l 174 694 l 260 694 l 260 608 l 174 608 m 347 87 l 434 87 l 434 0 l 347 0 l 260 0 l 174 0 l 174 87 l 260 87 l 347 87 m 434 87 l 434 174 l 521 174 l 521 87 l 434 87 m 174 87 l 87 87 l 87 174 l 87 260 l 87 347 l 87 434 l 174 434 l 174 347 l 260 347 l 347 347 l 434 347 l 434 260 l 347 260 l 260 260 l 174 260 l 174 174 l 174 87 m 434 347 l 434 434 l 521 434 l 521 347 l 434 347 m 434 434 l 347 434 l 260 434 l 174 434 l 174 521 l 260 521 l 347 521 l 434 521 l 434 434 m 347 694 l 260 694 l 260 781 l 347 781 l 347 694 z "},"ë":{"ha":608,"x_min":87,"x_max":521,"o":"m 347 608 l 347 694 l 434 694 l 434 608 l 347 608 m 174 608 l 174 694 l 260 694 l 260 608 l 174 608 m 347 87 l 434 87 l 434 0 l 347 0 l 260 0 l 174 0 l 174 87 l 260 87 l 347 87 m 434 87 l 434 174 l 521 174 l 521 87 l 434 87 m 174 87 l 87 87 l 87 174 l 87 260 l 87 347 l 87 434 l 174 434 l 174 347 l 260 347 l 347 347 l 434 347 l 434 260 l 347 260 l 260 260 l 174 260 l 174 174 l 174 87 m 434 347 l 434 434 l 521 434 l 521 347 l 434 347 m 434 434 l 347 434 l 260 434 l 174 434 l 174 521 l 260 521 l 347 521 l 434 521 l 434 434 z "},"ì":{"ha":260,"x_min":0,"x_max":174,"o":"m 87 0 l 87 87 l 87 174 l 87 260 l 87 347 l 87 434 l 87 521 l 174 521 l 174 434 l 174 347 l 174 260 l 174 174 l 174 87 l 174 0 l 87 0 m 87 608 l 87 694 l 174 694 l 174 608 l 87 608 m 87 694 l 0 694 l 0 781 l 87 781 l 87 694 z "},"í":{"ha":347,"x_min":87,"x_max":260,"o":"m 87 0 l 87 87 l 87 174 l 87 260 l 87 347 l 87 434 l 87 521 l 174 521 l 174 434 l 174 347 l 174 260 l 174 174 l 174 87 l 174 0 l 87 0 m 87 608 l 87 694 l 174 694 l 174 608 l 87 608 m 174 694 l 174 781 l 260 781 l 260 694 l 174 694 z "},"î":{"ha":347,"x_min":0,"x_max":260,"o":"m 87 0 l 87 87 l 87 174 l 87 260 l 87 347 l 87 434 l 87 521 l 174 521 l 174 434 l 174 347 l 174 260 l 174 174 l 174 87 l 174 0 l 87 0 m 174 608 l 174 694 l 260 694 l 260 608 l 174 608 m 0 608 l 0 694 l 87 694 l 87 608 l 0 608 m 174 694 l 87 694 l 87 781 l 174 781 l 174 694 z "},"ï":{"ha":347,"x_min":0,"x_max":260,"o":"m 87 0 l 87 87 l 87 174 l 87 260 l 87 347 l 87 434 l 87 521 l 174 521 l 174 434 l 174 347 l 174 260 l 174 174 l 174 87 l 174 0 l 87 0 m 174 608 l 174 694 l 260 694 l 260 608 l 174 608 m 0 608 l 0 694 l 87 694 l 87 608 l 0 608 z "},"ð":{"ha":1042,"x_min":0,"x_max":955,"o":"m 434 0 l 434 87 l 521 87 l 521 0 l 434 0 m 434 521 l 434 608 l 521 608 l 521 521 l 434 521 m 521 87 l 521 174 l 608 174 l 608 87 l 521 87 m 434 87 l 347 87 l 347 174 l 434 174 l 434 87 m 608 174 l 608 260 l 694 260 l 694 174 l 608 174 m 347 174 l 260 174 l 260 260 l 347 260 l 347 174 m 694 260 l 694 347 l 781 347 l 781 260 l 694 260 m 260 260 l 174 260 l 174 347 l 260 347 l 260 260 m 781 347 l 781 434 l 868 434 l 868 347 l 781 347 m 174 347 l 87 347 l 87 434 l 174 434 l 174 347 m 868 434 l 868 521 l 868 608 l 868 694 l 955 694 l 955 608 l 955 521 l 955 434 l 868 434 m 87 434 l 0 434 l 0 521 l 0 608 l 0 694 l 87 694 l 87 608 l 87 521 l 87 434 m 521 608 l 521 694 l 608 694 l 608 608 l 521 608 m 434 608 l 347 608 l 347 694 l 434 694 l 434 608 m 868 694 l 781 694 l 694 694 l 608 694 l 608 781 l 694 781 l 781 781 l 868 781 l 868 694 m 347 694 l 260 694 l 174 694 l 87 694 l 87 781 l 174 781 l 260 781 l 347 781 l 347 694 z "},"ñ":{"ha":608,"x_min":87,"x_max":521,"o":"m 434 0 l 434 87 l 434 174 l 434 260 l 434 347 l 434 434 l 521 434 l 521 347 l 521 260 l 521 174 l 521 87 l 521 0 l 434 0 m 87 0 l 87 87 l 87 174 l 87 260 l 87 347 l 87 434 l 174 434 l 174 347 l 174 260 l 174 174 l 174 87 l 174 0 l 87 0 m 347 608 l 347 694 l 434 694 l 434 608 l 347 608 m 174 608 l 174 694 l 260 694 l 260 608 l 174 608 m 434 434 l 347 434 l 260 434 l 174 434 l 174 521 l 260 521 l 347 521 l 434 521 l 434 434 m 434 694 l 434 781 l 521 781 l 521 694 l 434 694 m 347 694 l 260 694 l 260 781 l 347 781 l 347 694 z "},"ò":{"ha":608,"x_min":87,"x_max":521,"o":"m 260 608 l 260 694 l 347 694 l 347 608 l 260 608 m 347 87 l 434 87 l 434 0 l 347 0 l 260 0 l 174 0 l 174 87 l 260 87 l 347 87 m 434 87 l 434 174 l 434 260 l 434 347 l 434 434 l 521 434 l 521 347 l 521 260 l 521 174 l 521 87 l 434 87 m 174 87 l 87 87 l 87 174 l 87 260 l 87 347 l 87 434 l 174 434 l 174 347 l 174 260 l 174 174 l 174 87 m 434 434 l 347 434 l 260 434 l 174 434 l 174 521 l 260 521 l 347 521 l 434 521 l 434 434 m 260 694 l 174 694 l 174 781 l 260 781 l 260 694 z "},"ó":{"ha":608,"x_min":87,"x_max":521,"o":"m 260 608 l 260 694 l 347 694 l 347 608 l 260 608 m 347 87 l 434 87 l 434 0 l 347 0 l 260 0 l 174 0 l 174 87 l 260 87 l 347 87 m 434 87 l 434 174 l 434 260 l 434 347 l 434 434 l 521 434 l 521 347 l 521 260 l 521 174 l 521 87 l 434 87 m 174 87 l 87 87 l 87 174 l 87 260 l 87 347 l 87 434 l 174 434 l 174 347 l 174 260 l 174 174 l 174 87 m 434 434 l 347 434 l 260 434 l 174 434 l 174 521 l 260 521 l 347 521 l 434 521 l 434 434 m 347 694 l 347 781 l 434 781 l 434 694 l 347 694 z "},"ô":{"ha":608,"x_min":87,"x_max":521,"o":"m 347 608 l 347 694 l 434 694 l 434 608 l 347 608 m 174 608 l 174 694 l 260 694 l 260 608 l 174 608 m 347 87 l 434 87 l 434 0 l 347 0 l 260 0 l 174 0 l 174 87 l 260 87 l 347 87 m 434 87 l 434 174 l 434 260 l 434 347 l 434 434 l 521 434 l 521 347 l 521 260 l 521 174 l 521 87 l 434 87 m 174 87 l 87 87 l 87 174 l 87 260 l 87 347 l 87 434 l 174 434 l 174 347 l 174 260 l 174 174 l 174 87 m 434 434 l 347 434 l 260 434 l 174 434 l 174 521 l 260 521 l 347 521 l 434 521 l 434 434 m 347 694 l 260 694 l 260 781 l 347 781 l 347 694 z "},"õ":{"ha":608,"x_min":87,"x_max":521,"o":"m 347 608 l 347 694 l 434 694 l 434 608 l 347 608 m 174 608 l 174 694 l 260 694 l 260 608 l 174 608 m 347 87 l 434 87 l 434 0 l 347 0 l 260 0 l 174 0 l 174 87 l 260 87 l 347 87 m 434 87 l 434 174 l 434 260 l 434 347 l 434 434 l 521 434 l 521 347 l 521 260 l 521 174 l 521 87 l 434 87 m 174 87 l 87 87 l 87 174 l 87 260 l 87 347 l 87 434 l 174 434 l 174 347 l 174 260 l 174 174 l 174 87 m 434 434 l 347 434 l 260 434 l 174 434 l 174 521 l 260 521 l 347 521 l 434 521 l 434 434 m 434 694 l 434 781 l 521 781 l 521 694 l 434 694 m 347 694 l 260 694 l 260 781 l 347 781 l 347 694 z "},"ö":{"ha":608,"x_min":87,"x_max":521,"o":"m 347 608 l 347 694 l 434 694 l 434 608 l 347 608 m 174 608 l 174 694 l 260 694 l 260 608 l 174 608 m 347 87 l 434 87 l 434 0 l 347 0 l 260 0 l 174 0 l 174 87 l 260 87 l 347 87 m 434 87 l 434 174 l 434 260 l 434 347 l 434 434 l 521 434 l 521 347 l 521 260 l 521 174 l 521 87 l 434 87 m 174 87 l 87 87 l 87 174 l 87 260 l 87 347 l 87 434 l 174 434 l 174 347 l 174 260 l 174 174 l 174 87 m 434 434 l 347 434 l 260 434 l 174 434 l 174 521 l 260 521 l 347 521 l 434 521 l 434 434 z "},"÷":{"ha":608,"x_min":87,"x_max":521,"o":"m 260 174 l 260 260 l 347 260 l 347 174 l 260 174 m 260 521 l 260 608 l 347 608 l 347 521 l 260 521 m 434 434 l 521 434 l 521 347 l 434 347 l 347 347 l 260 347 l 174 347 l 87 347 l 87 434 l 174 434 l 260 434 l 347 434 l 434 434 z "},"ø":{"ha":694,"x_min":0,"x_max":608,"o":"m 0 -87 l 0 0 l 87 0 l 87 -87 l 0 -87 m 347 87 l 434 87 l 434 0 l 347 0 l 260 0 l 174 0 l 87 0 l 87 87 l 87 174 l 87 260 l 87 347 l 87 434 l 174 434 l 174 347 l 174 260 l 174 174 l 260 174 l 260 87 l 347 87 m 434 87 l 434 174 l 434 260 l 434 347 l 347 347 l 347 260 l 347 174 l 260 174 l 260 260 l 260 347 l 347 347 l 347 434 l 260 434 l 174 434 l 174 521 l 260 521 l 347 521 l 434 521 l 521 521 l 521 434 l 521 347 l 521 260 l 521 174 l 521 87 l 434 87 m 521 521 l 521 608 l 608 608 l 608 521 l 521 521 z "},"ù":{"ha":608,"x_min":87,"x_max":521,"o":"m 434 0 l 434 87 l 347 87 l 347 0 l 260 0 l 174 0 l 174 87 l 260 87 l 347 87 l 347 174 l 434 174 l 434 260 l 434 347 l 434 434 l 434 521 l 521 521 l 521 434 l 521 347 l 521 260 l 521 174 l 521 87 l 521 0 l 434 0 m 260 608 l 260 694 l 347 694 l 347 608 l 260 608 m 174 87 l 87 87 l 87 174 l 87 260 l 87 347 l 87 434 l 87 521 l 174 521 l 174 434 l 174 347 l 174 260 l 174 174 l 174 87 m 260 694 l 174 694 l 174 781 l 260 781 l 260 694 z "},"ú":{"ha":608,"x_min":87,"x_max":521,"o":"m 434 0 l 434 87 l 347 87 l 347 0 l 260 0 l 174 0 l 174 87 l 260 87 l 347 87 l 347 174 l 434 174 l 434 260 l 434 347 l 434 434 l 434 521 l 521 521 l 521 434 l 521 347 l 521 260 l 521 174 l 521 87 l 521 0 l 434 0 m 260 608 l 260 694 l 347 694 l 347 608 l 260 608 m 174 87 l 87 87 l 87 174 l 87 260 l 87 347 l 87 434 l 87 521 l 174 521 l 174 434 l 174 347 l 174 260 l 174 174 l 174 87 m 347 694 l 347 781 l 434 781 l 434 694 l 347 694 z "},"û":{"ha":608,"x_min":87,"x_max":521,"o":"m 434 0 l 434 87 l 347 87 l 347 0 l 260 0 l 174 0 l 174 87 l 260 87 l 347 87 l 347 174 l 434 174 l 434 260 l 434 347 l 434 434 l 434 521 l 521 521 l 521 434 l 521 347 l 521 260 l 521 174 l 521 87 l 521 0 l 434 0 m 347 608 l 347 694 l 434 694 l 434 608 l 347 608 m 174 608 l 174 694 l 260 694 l 260 608 l 174 608 m 174 87 l 87 87 l 87 174 l 87 260 l 87 347 l 87 434 l 87 521 l 174 521 l 174 434 l 174 347 l 174 260 l 174 174 l 174 87 m 347 694 l 260 694 l 260 781 l 347 781 l 347 694 z "},"ü":{"ha":608,"x_min":87,"x_max":521,"o":"m 434 0 l 434 87 l 347 87 l 347 0 l 260 0 l 174 0 l 174 87 l 260 87 l 347 87 l 347 174 l 434 174 l 434 260 l 434 347 l 434 434 l 434 521 l 521 521 l 521 434 l 521 347 l 521 260 l 521 174 l 521 87 l 521 0 l 434 0 m 347 608 l 347 694 l 434 694 l 434 608 l 347 608 m 174 608 l 174 694 l 260 694 l 260 608 l 174 608 m 174 87 l 87 87 l 87 174 l 87 260 l 87 347 l 87 434 l 87 521 l 174 521 l 174 434 l 174 347 l 174 260 l 174 174 l 174 87 z "},"ý":{"ha":608,"x_min":87,"x_max":521,"o":"m 260 608 l 260 694 l 347 694 l 347 608 l 260 608 m 347 -174 l 434 -174 l 434 -260 l 347 -260 l 260 -260 l 174 -260 l 174 -174 l 260 -174 l 347 -174 m 434 -174 l 434 -87 l 434 0 l 434 87 l 347 87 l 260 87 l 174 87 l 174 174 l 260 174 l 347 174 l 434 174 l 434 260 l 434 347 l 434 434 l 434 521 l 521 521 l 521 434 l 521 347 l 521 260 l 521 174 l 521 87 l 521 0 l 521 -87 l 521 -174 l 434 -174 m 174 -174 l 87 -174 l 87 -87 l 174 -87 l 174 -174 m 174 174 l 87 174 l 87 260 l 87 347 l 87 434 l 87 521 l 174 521 l 174 434 l 174 347 l 174 260 l 174 174 m 347 694 l 347 781 l 434 781 l 434 694 l 347 694 z "},"þ":{"ha":608,"x_min":87,"x_max":521,"o":"m 87 -174 l 87 -87 l 87 0 l 87 87 l 87 174 l 87 260 l 87 347 l 87 434 l 87 521 l 87 608 l 87 694 l 87 781 l 174 781 l 174 694 l 174 608 l 174 521 l 260 521 l 347 521 l 434 521 l 434 434 l 521 434 l 521 347 l 521 260 l 521 174 l 521 87 l 434 87 l 434 174 l 434 260 l 434 347 l 434 434 l 347 434 l 260 434 l 174 434 l 174 347 l 174 260 l 174 174 l 174 87 l 260 87 l 347 87 l 434 87 l 434 0 l 347 0 l 260 0 l 174 0 l 174 -87 l 174 -174 l 87 -174 z "},"ÿ":{"ha":608,"x_min":87,"x_max":521,"o":"m 347 608 l 347 694 l 434 694 l 434 608 l 347 608 m 174 608 l 174 694 l 260 694 l 260 608 l 174 608 m 347 -174 l 434 -174 l 434 -260 l 347 -260 l 260 -260 l 174 -260 l 174 -174 l 260 -174 l 347 -174 m 434 -174 l 434 -87 l 434 0 l 434 87 l 347 87 l 260 87 l 174 87 l 174 174 l 260 174 l 347 174 l 434 174 l 434 260 l 434 347 l 434 434 l 434 521 l 521 521 l 521 434 l 521 347 l 521 260 l 521 174 l 521 87 l 521 0 l 521 -87 l 521 -174 l 434 -174 m 174 -174 l 87 -174 l 87 -87 l 174 -87 l 174 -174 m 174 174 l 87 174 l 87 260 l 87 347 l 87 434 l 87 521 l 174 521 l 174 434 l 174 347 l 174 260 l 174 174 z "},"Ā":{"ha":1042,"x_min":0,"x_max":955,"o":"m 434 0 l 434 87 l 521 87 l 521 0 l 434 0 m 434 521 l 434 608 l 521 608 l 521 521 l 434 521 m 521 87 l 521 174 l 608 174 l 608 87 l 521 87 m 434 87 l 347 87 l 347 174 l 434 174 l 434 87 m 608 174 l 608 260 l 694 260 l 694 174 l 608 174 m 347 174 l 260 174 l 260 260 l 347 260 l 347 174 m 694 260 l 694 347 l 781 347 l 781 260 l 694 260 m 260 260 l 174 260 l 174 347 l 260 347 l 260 260 m 781 347 l 781 434 l 868 434 l 868 347 l 781 347 m 174 347 l 87 347 l 87 434 l 174 434 l 174 347 m 868 434 l 868 521 l 868 608 l 868 694 l 955 694 l 955 608 l 955 521 l 955 434 l 868 434 m 87 434 l 0 434 l 0 521 l 0 608 l 0 694 l 87 694 l 87 608 l 87 521 l 87 434 m 521 608 l 521 694 l 608 694 l 608 608 l 521 608 m 434 608 l 347 608 l 347 694 l 434 694 l 434 608 m 868 694 l 781 694 l 694 694 l 608 694 l 608 781 l 694 781 l 781 781 l 868 781 l 868 694 m 347 694 l 260 694 l 174 694 l 87 694 l 87 781 l 174 781 l 260 781 l 347 781 l 347 694 z "},"ā":{"ha":1042,"x_min":0,"x_max":955,"o":"m 434 0 l 434 87 l 521 87 l 521 0 l 434 0 m 434 521 l 434 608 l 521 608 l 521 521 l 434 521 m 521 87 l 521 174 l 608 174 l 608 87 l 521 87 m 434 87 l 347 87 l 347 174 l 434 174 l 434 87 m 608 174 l 608 260 l 694 260 l 694 174 l 608 174 m 347 174 l 260 174 l 260 260 l 347 260 l 347 174 m 694 260 l 694 347 l 781 347 l 781 260 l 694 260 m 260 260 l 174 260 l 174 347 l 260 347 l 260 260 m 781 347 l 781 434 l 868 434 l 868 347 l 781 347 m 174 347 l 87 347 l 87 434 l 174 434 l 174 347 m 868 434 l 868 521 l 868 608 l 868 694 l 955 694 l 955 608 l 955 521 l 955 434 l 868 434 m 87 434 l 0 434 l 0 521 l 0 608 l 0 694 l 87 694 l 87 608 l 87 521 l 87 434 m 521 608 l 521 694 l 608 694 l 608 608 l 521 608 m 434 608 l 347 608 l 347 694 l 434 694 l 434 608 m 868 694 l 781 694 l 694 694 l 608 694 l 608 781 l 694 781 l 781 781 l 868 781 l 868 694 m 347 694 l 260 694 l 174 694 l 87 694 l 87 781 l 174 781 l 260 781 l 347 781 l 347 694 z "},"Ă":{"ha":1042,"x_min":0,"x_max":955,"o":"m 434 0 l 434 87 l 521 87 l 521 0 l 434 0 m 434 521 l 434 608 l 521 608 l 521 521 l 434 521 m 521 87 l 521 174 l 608 174 l 608 87 l 521 87 m 434 87 l 347 87 l 347 174 l 434 174 l 434 87 m 608 174 l 608 260 l 694 260 l 694 174 l 608 174 m 347 174 l 260 174 l 260 260 l 347 260 l 347 174 m 694 260 l 694 347 l 781 347 l 781 260 l 694 260 m 260 260 l 174 260 l 174 347 l 260 347 l 260 260 m 781 347 l 781 434 l 868 434 l 868 347 l 781 347 m 174 347 l 87 347 l 87 434 l 174 434 l 174 347 m 868 434 l 868 521 l 868 608 l 868 694 l 955 694 l 955 608 l 955 521 l 955 434 l 868 434 m 87 434 l 0 434 l 0 521 l 0 608 l 0 694 l 87 694 l 87 608 l 87 521 l 87 434 m 521 608 l 521 694 l 608 694 l 608 608 l 521 608 m 434 608 l 347 608 l 347 694 l 434 694 l 434 608 m 868 694 l 781 694 l 694 694 l 608 694 l 608 781 l 694 781 l 781 781 l 868 781 l 868 694 m 347 694 l 260 694 l 174 694 l 87 694 l 87 781 l 174 781 l 260 781 l 347 781 l 347 694 z "},"ă":{"ha":1042,"x_min":0,"x_max":955,"o":"m 434 0 l 434 87 l 521 87 l 521 0 l 434 0 m 434 521 l 434 608 l 521 608 l 521 521 l 434 521 m 521 87 l 521 174 l 608 174 l 608 87 l 521 87 m 434 87 l 347 87 l 347 174 l 434 174 l 434 87 m 608 174 l 608 260 l 694 260 l 694 174 l 608 174 m 347 174 l 260 174 l 260 260 l 347 260 l 347 174 m 694 260 l 694 347 l 781 347 l 781 260 l 694 260 m 260 260 l 174 260 l 174 347 l 260 347 l 260 260 m 781 347 l 781 434 l 868 434 l 868 347 l 781 347 m 174 347 l 87 347 l 87 434 l 174 434 l 174 347 m 868 434 l 868 521 l 868 608 l 868 694 l 955 694 l 955 608 l 955 521 l 955 434 l 868 434 m 87 434 l 0 434 l 0 521 l 0 608 l 0 694 l 87 694 l 87 608 l 87 521 l 87 434 m 521 608 l 521 694 l 608 694 l 608 608 l 521 608 m 434 608 l 347 608 l 347 694 l 434 694 l 434 608 m 868 694 l 781 694 l 694 694 l 608 694 l 608 781 l 694 781 l 781 781 l 868 781 l 868 694 m 347 694 l 260 694 l 174 694 l 87 694 l 87 781 l 174 781 l 260 781 l 347 781 l 347 694 z "},"Ą":{"ha":1042,"x_min":0,"x_max":955,"o":"m 434 0 l 434 87 l 521 87 l 521 0 l 434 0 m 434 521 l 434 608 l 521 608 l 521 521 l 434 521 m 521 87 l 521 174 l 608 174 l 608 87 l 521 87 m 434 87 l 347 87 l 347 174 l 434 174 l 434 87 m 608 174 l 608 260 l 694 260 l 694 174 l 608 174 m 347 174 l 260 174 l 260 260 l 347 260 l 347 174 m 694 260 l 694 347 l 781 347 l 781 260 l 694 260 m 260 260 l 174 260 l 174 347 l 260 347 l 260 260 m 781 347 l 781 434 l 868 434 l 868 347 l 781 347 m 174 347 l 87 347 l 87 434 l 174 434 l 174 347 m 868 434 l 868 521 l 868 608 l 868 694 l 955 694 l 955 608 l 955 521 l 955 434 l 868 434 m 87 434 l 0 434 l 0 521 l 0 608 l 0 694 l 87 694 l 87 608 l 87 521 l 87 434 m 521 608 l 521 694 l 608 694 l 608 608 l 521 608 m 434 608 l 347 608 l 347 694 l 434 694 l 434 608 m 868 694 l 781 694 l 694 694 l 608 694 l 608 781 l 694 781 l 781 781 l 868 781 l 868 694 m 347 694 l 260 694 l 174 694 l 87 694 l 87 781 l 174 781 l 260 781 l 347 781 l 347 694 z "},"ą":{"ha":1042,"x_min":0,"x_max":955,"o":"m 434 0 l 434 87 l 521 87 l 521 0 l 434 0 m 434 521 l 434 608 l 521 608 l 521 521 l 434 521 m 521 87 l 521 174 l 608 174 l 608 87 l 521 87 m 434 87 l 347 87 l 347 174 l 434 174 l 434 87 m 608 174 l 608 260 l 694 260 l 694 174 l 608 174 m 347 174 l 260 174 l 260 260 l 347 260 l 347 174 m 694 260 l 694 347 l 781 347 l 781 260 l 694 260 m 260 260 l 174 260 l 174 347 l 260 347 l 260 260 m 781 347 l 781 434 l 868 434 l 868 347 l 781 347 m 174 347 l 87 347 l 87 434 l 174 434 l 174 347 m 868 434 l 868 521 l 868 608 l 868 694 l 955 694 l 955 608 l 955 521 l 955 434 l 868 434 m 87 434 l 0 434 l 0 521 l 0 608 l 0 694 l 87 694 l 87 608 l 87 521 l 87 434 m 521 608 l 521 694 l 608 694 l 608 608 l 521 608 m 434 608 l 347 608 l 347 694 l 434 694 l 434 608 m 868 694 l 781 694 l 694 694 l 608 694 l 608 781 l 694 781 l 781 781 l 868 781 l 868 694 m 347 694 l 260 694 l 174 694 l 87 694 l 87 781 l 174 781 l 260 781 l 347 781 l 347 694 z "},"Ć":{"ha":1042,"x_min":0,"x_max":955,"o":"m 434 0 l 434 87 l 521 87 l 521 0 l 434 0 m 434 521 l 434 608 l 521 608 l 521 521 l 434 521 m 521 87 l 521 174 l 608 174 l 608 87 l 521 87 m 434 87 l 347 87 l 347 174 l 434 174 l 434 87 m 608 174 l 608 260 l 694 260 l 694 174 l 608 174 m 347 174 l 260 174 l 260 260 l 347 260 l 347 174 m 694 260 l 694 347 l 781 347 l 781 260 l 694 260 m 260 260 l 174 260 l 174 347 l 260 347 l 260 260 m 781 347 l 781 434 l 868 434 l 868 347 l 781 347 m 174 347 l 87 347 l 87 434 l 174 434 l 174 347 m 868 434 l 868 521 l 868 608 l 868 694 l 955 694 l 955 608 l 955 521 l 955 434 l 868 434 m 87 434 l 0 434 l 0 521 l 0 608 l 0 694 l 87 694 l 87 608 l 87 521 l 87 434 m 521 608 l 521 694 l 608 694 l 608 608 l 521 608 m 434 608 l 347 608 l 347 694 l 434 694 l 434 608 m 868 694 l 781 694 l 694 694 l 608 694 l 608 781 l 694 781 l 781 781 l 868 781 l 868 694 m 347 694 l 260 694 l 174 694 l 87 694 l 87 781 l 174 781 l 260 781 l 347 781 l 347 694 z "},"ć":{"ha":1042,"x_min":0,"x_max":955,"o":"m 434 0 l 434 87 l 521 87 l 521 0 l 434 0 m 434 521 l 434 608 l 521 608 l 521 521 l 434 521 m 521 87 l 521 174 l 608 174 l 608 87 l 521 87 m 434 87 l 347 87 l 347 174 l 434 174 l 434 87 m 608 174 l 608 260 l 694 260 l 694 174 l 608 174 m 347 174 l 260 174 l 260 260 l 347 260 l 347 174 m 694 260 l 694 347 l 781 347 l 781 260 l 694 260 m 260 260 l 174 260 l 174 347 l 260 347 l 260 260 m 781 347 l 781 434 l 868 434 l 868 347 l 781 347 m 174 347 l 87 347 l 87 434 l 174 434 l 174 347 m 868 434 l 868 521 l 868 608 l 868 694 l 955 694 l 955 608 l 955 521 l 955 434 l 868 434 m 87 434 l 0 434 l 0 521 l 0 608 l 0 694 l 87 694 l 87 608 l 87 521 l 87 434 m 521 608 l 521 694 l 608 694 l 608 608 l 521 608 m 434 608 l 347 608 l 347 694 l 434 694 l 434 608 m 868 694 l 781 694 l 694 694 l 608 694 l 608 781 l 694 781 l 781 781 l 868 781 l 868 694 m 347 694 l 260 694 l 174 694 l 87 694 l 87 781 l 174 781 l 260 781 l 347 781 l 347 694 z "},"Ĉ":{"ha":1042,"x_min":0,"x_max":955,"o":"m 434 0 l 434 87 l 521 87 l 521 0 l 434 0 m 434 521 l 434 608 l 521 608 l 521 521 l 434 521 m 521 87 l 521 174 l 608 174 l 608 87 l 521 87 m 434 87 l 347 87 l 347 174 l 434 174 l 434 87 m 608 174 l 608 260 l 694 260 l 694 174 l 608 174 m 347 174 l 260 174 l 260 260 l 347 260 l 347 174 m 694 260 l 694 347 l 781 347 l 781 260 l 694 260 m 260 260 l 174 260 l 174 347 l 260 347 l 260 260 m 781 347 l 781 434 l 868 434 l 868 347 l 781 347 m 174 347 l 87 347 l 87 434 l 174 434 l 174 347 m 868 434 l 868 521 l 868 608 l 868 694 l 955 694 l 955 608 l 955 521 l 955 434 l 868 434 m 87 434 l 0 434 l 0 521 l 0 608 l 0 694 l 87 694 l 87 608 l 87 521 l 87 434 m 521 608 l 521 694 l 608 694 l 608 608 l 521 608 m 434 608 l 347 608 l 347 694 l 434 694 l 434 608 m 868 694 l 781 694 l 694 694 l 608 694 l 608 781 l 694 781 l 781 781 l 868 781 l 868 694 m 347 694 l 260 694 l 174 694 l 87 694 l 87 781 l 174 781 l 260 781 l 347 781 l 347 694 z "},"ĉ":{"ha":1042,"x_min":0,"x_max":955,"o":"m 434 0 l 434 87 l 521 87 l 521 0 l 434 0 m 434 521 l 434 608 l 521 608 l 521 521 l 434 521 m 521 87 l 521 174 l 608 174 l 608 87 l 521 87 m 434 87 l 347 87 l 347 174 l 434 174 l 434 87 m 608 174 l 608 260 l 694 260 l 694 174 l 608 174 m 347 174 l 260 174 l 260 260 l 347 260 l 347 174 m 694 260 l 694 347 l 781 347 l 781 260 l 694 260 m 260 260 l 174 260 l 174 347 l 260 347 l 260 260 m 781 347 l 781 434 l 868 434 l 868 347 l 781 347 m 174 347 l 87 347 l 87 434 l 174 434 l 174 347 m 868 434 l 868 521 l 868 608 l 868 694 l 955 694 l 955 608 l 955 521 l 955 434 l 868 434 m 87 434 l 0 434 l 0 521 l 0 608 l 0 694 l 87 694 l 87 608 l 87 521 l 87 434 m 521 608 l 521 694 l 608 694 l 608 608 l 521 608 m 434 608 l 347 608 l 347 694 l 434 694 l 434 608 m 868 694 l 781 694 l 694 694 l 608 694 l 608 781 l 694 781 l 781 781 l 868 781 l 868 694 m 347 694 l 260 694 l 174 694 l 87 694 l 87 781 l 174 781 l 260 781 l 347 781 l 347 694 z "},"Ċ":{"ha":1042,"x_min":0,"x_max":955,"o":"m 434 0 l 434 87 l 521 87 l 521 0 l 434 0 m 434 521 l 434 608 l 521 608 l 521 521 l 434 521 m 521 87 l 521 174 l 608 174 l 608 87 l 521 87 m 434 87 l 347 87 l 347 174 l 434 174 l 434 87 m 608 174 l 608 260 l 694 260 l 694 174 l 608 174 m 347 174 l 260 174 l 260 260 l 347 260 l 347 174 m 694 260 l 694 347 l 781 347 l 781 260 l 694 260 m 260 260 l 174 260 l 174 347 l 260 347 l 260 260 m 781 347 l 781 434 l 868 434 l 868 347 l 781 347 m 174 347 l 87 347 l 87 434 l 174 434 l 174 347 m 868 434 l 868 521 l 868 608 l 868 694 l 955 694 l 955 608 l 955 521 l 955 434 l 868 434 m 87 434 l 0 434 l 0 521 l 0 608 l 0 694 l 87 694 l 87 608 l 87 521 l 87 434 m 521 608 l 521 694 l 608 694 l 608 608 l 521 608 m 434 608 l 347 608 l 347 694 l 434 694 l 434 608 m 868 694 l 781 694 l 694 694 l 608 694 l 608 781 l 694 781 l 781 781 l 868 781 l 868 694 m 347 694 l 260 694 l 174 694 l 87 694 l 87 781 l 174 781 l 260 781 l 347 781 l 347 694 z "},"ċ":{"ha":1042,"x_min":0,"x_max":955,"o":"m 434 0 l 434 87 l 521 87 l 521 0 l 434 0 m 434 521 l 434 608 l 521 608 l 521 521 l 434 521 m 521 87 l 521 174 l 608 174 l 608 87 l 521 87 m 434 87 l 347 87 l 347 174 l 434 174 l 434 87 m 608 174 l 608 260 l 694 260 l 694 174 l 608 174 m 347 174 l 260 174 l 260 260 l 347 260 l 347 174 m 694 260 l 694 347 l 781 347 l 781 260 l 694 260 m 260 260 l 174 260 l 174 347 l 260 347 l 260 260 m 781 347 l 781 434 l 868 434 l 868 347 l 781 347 m 174 347 l 87 347 l 87 434 l 174 434 l 174 347 m 868 434 l 868 521 l 868 608 l 868 694 l 955 694 l 955 608 l 955 521 l 955 434 l 868 434 m 87 434 l 0 434 l 0 521 l 0 608 l 0 694 l 87 694 l 87 608 l 87 521 l 87 434 m 521 608 l 521 694 l 608 694 l 608 608 l 521 608 m 434 608 l 347 608 l 347 694 l 434 694 l 434 608 m 868 694 l 781 694 l 694 694 l 608 694 l 608 781 l 694 781 l 781 781 l 868 781 l 868 694 m 347 694 l 260 694 l 174 694 l 87 694 l 87 781 l 174 781 l 260 781 l 347 781 l 347 694 z "},"Č":{"ha":1042,"x_min":0,"x_max":955,"o":"m 434 0 l 434 87 l 521 87 l 521 0 l 434 0 m 434 521 l 434 608 l 521 608 l 521 521 l 434 521 m 521 87 l 521 174 l 608 174 l 608 87 l 521 87 m 434 87 l 347 87 l 347 174 l 434 174 l 434 87 m 608 174 l 608 260 l 694 260 l 694 174 l 608 174 m 347 174 l 260 174 l 260 260 l 347 260 l 347 174 m 694 260 l 694 347 l 781 347 l 781 260 l 694 260 m 260 260 l 174 260 l 174 347 l 260 347 l 260 260 m 781 347 l 781 434 l 868 434 l 868 347 l 781 347 m 174 347 l 87 347 l 87 434 l 174 434 l 174 347 m 868 434 l 868 521 l 868 608 l 868 694 l 955 694 l 955 608 l 955 521 l 955 434 l 868 434 m 87 434 l 0 434 l 0 521 l 0 608 l 0 694 l 87 694 l 87 608 l 87 521 l 87 434 m 521 608 l 521 694 l 608 694 l 608 608 l 521 608 m 434 608 l 347 608 l 347 694 l 434 694 l 434 608 m 868 694 l 781 694 l 694 694 l 608 694 l 608 781 l 694 781 l 781 781 l 868 781 l 868 694 m 347 694 l 260 694 l 174 694 l 87 694 l 87 781 l 174 781 l 260 781 l 347 781 l 347 694 z "},"č":{"ha":1042,"x_min":0,"x_max":955,"o":"m 434 0 l 434 87 l 521 87 l 521 0 l 434 0 m 434 521 l 434 608 l 521 608 l 521 521 l 434 521 m 521 87 l 521 174 l 608 174 l 608 87 l 521 87 m 434 87 l 347 87 l 347 174 l 434 174 l 434 87 m 608 174 l 608 260 l 694 260 l 694 174 l 608 174 m 347 174 l 260 174 l 260 260 l 347 260 l 347 174 m 694 260 l 694 347 l 781 347 l 781 260 l 694 260 m 260 260 l 174 260 l 174 347 l 260 347 l 260 260 m 781 347 l 781 434 l 868 434 l 868 347 l 781 347 m 174 347 l 87 347 l 87 434 l 174 434 l 174 347 m 868 434 l 868 521 l 868 608 l 868 694 l 955 694 l 955 608 l 955 521 l 955 434 l 868 434 m 87 434 l 0 434 l 0 521 l 0 608 l 0 694 l 87 694 l 87 608 l 87 521 l 87 434 m 521 608 l 521 694 l 608 694 l 608 608 l 521 608 m 434 608 l 347 608 l 347 694 l 434 694 l 434 608 m 868 694 l 781 694 l 694 694 l 608 694 l 608 781 l 694 781 l 781 781 l 868 781 l 868 694 m 347 694 l 260 694 l 174 694 l 87 694 l 87 781 l 174 781 l 260 781 l 347 781 l 347 694 z "},"Ď":{"ha":1042,"x_min":0,"x_max":955,"o":"m 434 0 l 434 87 l 521 87 l 521 0 l 434 0 m 434 521 l 434 608 l 521 608 l 521 521 l 434 521 m 521 87 l 521 174 l 608 174 l 608 87 l 521 87 m 434 87 l 347 87 l 347 174 l 434 174 l 434 87 m 608 174 l 608 260 l 694 260 l 694 174 l 608 174 m 347 174 l 260 174 l 260 260 l 347 260 l 347 174 m 694 260 l 694 347 l 781 347 l 781 260 l 694 260 m 260 260 l 174 260 l 174 347 l 260 347 l 260 260 m 781 347 l 781 434 l 868 434 l 868 347 l 781 347 m 174 347 l 87 347 l 87 434 l 174 434 l 174 347 m 868 434 l 868 521 l 868 608 l 868 694 l 955 694 l 955 608 l 955 521 l 955 434 l 868 434 m 87 434 l 0 434 l 0 521 l 0 608 l 0 694 l 87 694 l 87 608 l 87 521 l 87 434 m 521 608 l 521 694 l 608 694 l 608 608 l 521 608 m 434 608 l 347 608 l 347 694 l 434 694 l 434 608 m 868 694 l 781 694 l 694 694 l 608 694 l 608 781 l 694 781 l 781 781 l 868 781 l 868 694 m 347 694 l 260 694 l 174 694 l 87 694 l 87 781 l 174 781 l 260 781 l 347 781 l 347 694 z "},"ď":{"ha":1042,"x_min":0,"x_max":955,"o":"m 434 0 l 434 87 l 521 87 l 521 0 l 434 0 m 434 521 l 434 608 l 521 608 l 521 521 l 434 521 m 521 87 l 521 174 l 608 174 l 608 87 l 521 87 m 434 87 l 347 87 l 347 174 l 434 174 l 434 87 m 608 174 l 608 260 l 694 260 l 694 174 l 608 174 m 347 174 l 260 174 l 260 260 l 347 260 l 347 174 m 694 260 l 694 347 l 781 347 l 781 260 l 694 260 m 260 260 l 174 260 l 174 347 l 260 347 l 260 260 m 781 347 l 781 434 l 868 434 l 868 347 l 781 347 m 174 347 l 87 347 l 87 434 l 174 434 l 174 347 m 868 434 l 868 521 l 868 608 l 868 694 l 955 694 l 955 608 l 955 521 l 955 434 l 868 434 m 87 434 l 0 434 l 0 521 l 0 608 l 0 694 l 87 694 l 87 608 l 87 521 l 87 434 m 521 608 l 521 694 l 608 694 l 608 608 l 521 608 m 434 608 l 347 608 l 347 694 l 434 694 l 434 608 m 868 694 l 781 694 l 694 694 l 608 694 l 608 781 l 694 781 l 781 781 l 868 781 l 868 694 m 347 694 l 260 694 l 174 694 l 87 694 l 87 781 l 174 781 l 260 781 l 347 781 l 347 694 z "},"Đ":{"ha":1042,"x_min":0,"x_max":955,"o":"m 434 0 l 434 87 l 521 87 l 521 0 l 434 0 m 434 521 l 434 608 l 521 608 l 521 521 l 434 521 m 521 87 l 521 174 l 608 174 l 608 87 l 521 87 m 434 87 l 347 87 l 347 174 l 434 174 l 434 87 m 608 174 l 608 260 l 694 260 l 694 174 l 608 174 m 347 174 l 260 174 l 260 260 l 347 260 l 347 174 m 694 260 l 694 347 l 781 347 l 781 260 l 694 260 m 260 260 l 174 260 l 174 347 l 260 347 l 260 260 m 781 347 l 781 434 l 868 434 l 868 347 l 781 347 m 174 347 l 87 347 l 87 434 l 174 434 l 174 347 m 868 434 l 868 521 l 868 608 l 868 694 l 955 694 l 955 608 l 955 521 l 955 434 l 868 434 m 87 434 l 0 434 l 0 521 l 0 608 l 0 694 l 87 694 l 87 608 l 87 521 l 87 434 m 521 608 l 521 694 l 608 694 l 608 608 l 521 608 m 434 608 l 347 608 l 347 694 l 434 694 l 434 608 m 868 694 l 781 694 l 694 694 l 608 694 l 608 781 l 694 781 l 781 781 l 868 781 l 868 694 m 347 694 l 260 694 l 174 694 l 87 694 l 87 781 l 174 781 l 260 781 l 347 781 l 347 694 z "},"đ":{"ha":1042,"x_min":0,"x_max":955,"o":"m 434 0 l 434 87 l 521 87 l 521 0 l 434 0 m 434 521 l 434 608 l 521 608 l 521 521 l 434 521 m 521 87 l 521 174 l 608 174 l 608 87 l 521 87 m 434 87 l 347 87 l 347 174 l 434 174 l 434 87 m 608 174 l 608 260 l 694 260 l 694 174 l 608 174 m 347 174 l 260 174 l 260 260 l 347 260 l 347 174 m 694 260 l 694 347 l 781 347 l 781 260 l 694 260 m 260 260 l 174 260 l 174 347 l 260 347 l 260 260 m 781 347 l 781 434 l 868 434 l 868 347 l 781 347 m 174 347 l 87 347 l 87 434 l 174 434 l 174 347 m 868 434 l 868 521 l 868 608 l 868 694 l 955 694 l 955 608 l 955 521 l 955 434 l 868 434 m 87 434 l 0 434 l 0 521 l 0 608 l 0 694 l 87 694 l 87 608 l 87 521 l 87 434 m 521 608 l 521 694 l 608 694 l 608 608 l 521 608 m 434 608 l 347 608 l 347 694 l 434 694 l 434 608 m 868 694 l 781 694 l 694 694 l 608 694 l 608 781 l 694 781 l 781 781 l 868 781 l 868 694 m 347 694 l 260 694 l 174 694 l 87 694 l 87 781 l 174 781 l 260 781 l 347 781 l 347 694 z "},"Ē":{"ha":1042,"x_min":0,"x_max":955,"o":"m 434 0 l 434 87 l 521 87 l 521 0 l 434 0 m 434 521 l 434 608 l 521 608 l 521 521 l 434 521 m 521 87 l 521 174 l 608 174 l 608 87 l 521 87 m 434 87 l 347 87 l 347 174 l 434 174 l 434 87 m 608 174 l 608 260 l 694 260 l 694 174 l 608 174 m 347 174 l 260 174 l 260 260 l 347 260 l 347 174 m 694 260 l 694 347 l 781 347 l 781 260 l 694 260 m 260 260 l 174 260 l 174 347 l 260 347 l 260 260 m 781 347 l 781 434 l 868 434 l 868 347 l 781 347 m 174 347 l 87 347 l 87 434 l 174 434 l 174 347 m 868 434 l 868 521 l 868 608 l 868 694 l 955 694 l 955 608 l 955 521 l 955 434 l 868 434 m 87 434 l 0 434 l 0 521 l 0 608 l 0 694 l 87 694 l 87 608 l 87 521 l 87 434 m 521 608 l 521 694 l 608 694 l 608 608 l 521 608 m 434 608 l 347 608 l 347 694 l 434 694 l 434 608 m 868 694 l 781 694 l 694 694 l 608 694 l 608 781 l 694 781 l 781 781 l 868 781 l 868 694 m 347 694 l 260 694 l 174 694 l 87 694 l 87 781 l 174 781 l 260 781 l 347 781 l 347 694 z "},"ē":{"ha":1042,"x_min":0,"x_max":955,"o":"m 434 0 l 434 87 l 521 87 l 521 0 l 434 0 m 434 521 l 434 608 l 521 608 l 521 521 l 434 521 m 521 87 l 521 174 l 608 174 l 608 87 l 521 87 m 434 87 l 347 87 l 347 174 l 434 174 l 434 87 m 608 174 l 608 260 l 694 260 l 694 174 l 608 174 m 347 174 l 260 174 l 260 260 l 347 260 l 347 174 m 694 260 l 694 347 l 781 347 l 781 260 l 694 260 m 260 260 l 174 260 l 174 347 l 260 347 l 260 260 m 781 347 l 781 434 l 868 434 l 868 347 l 781 347 m 174 347 l 87 347 l 87 434 l 174 434 l 174 347 m 868 434 l 868 521 l 868 608 l 868 694 l 955 694 l 955 608 l 955 521 l 955 434 l 868 434 m 87 434 l 0 434 l 0 521 l 0 608 l 0 694 l 87 694 l 87 608 l 87 521 l 87 434 m 521 608 l 521 694 l 608 694 l 608 608 l 521 608 m 434 608 l 347 608 l 347 694 l 434 694 l 434 608 m 868 694 l 781 694 l 694 694 l 608 694 l 608 781 l 694 781 l 781 781 l 868 781 l 868 694 m 347 694 l 260 694 l 174 694 l 87 694 l 87 781 l 174 781 l 260 781 l 347 781 l 347 694 z "},"Ĕ":{"ha":1042,"x_min":0,"x_max":955,"o":"m 434 0 l 434 87 l 521 87 l 521 0 l 434 0 m 434 521 l 434 608 l 521 608 l 521 521 l 434 521 m 521 87 l 521 174 l 608 174 l 608 87 l 521 87 m 434 87 l 347 87 l 347 174 l 434 174 l 434 87 m 608 174 l 608 260 l 694 260 l 694 174 l 608 174 m 347 174 l 260 174 l 260 260 l 347 260 l 347 174 m 694 260 l 694 347 l 781 347 l 781 260 l 694 260 m 260 260 l 174 260 l 174 347 l 260 347 l 260 260 m 781 347 l 781 434 l 868 434 l 868 347 l 781 347 m 174 347 l 87 347 l 87 434 l 174 434 l 174 347 m 868 434 l 868 521 l 868 608 l 868 694 l 955 694 l 955 608 l 955 521 l 955 434 l 868 434 m 87 434 l 0 434 l 0 521 l 0 608 l 0 694 l 87 694 l 87 608 l 87 521 l 87 434 m 521 608 l 521 694 l 608 694 l 608 608 l 521 608 m 434 608 l 347 608 l 347 694 l 434 694 l 434 608 m 868 694 l 781 694 l 694 694 l 608 694 l 608 781 l 694 781 l 781 781 l 868 781 l 868 694 m 347 694 l 260 694 l 174 694 l 87 694 l 87 781 l 174 781 l 260 781 l 347 781 l 347 694 z "},"ĕ":{"ha":1042,"x_min":0,"x_max":955,"o":"m 434 0 l 434 87 l 521 87 l 521 0 l 434 0 m 434 521 l 434 608 l 521 608 l 521 521 l 434 521 m 521 87 l 521 174 l 608 174 l 608 87 l 521 87 m 434 87 l 347 87 l 347 174 l 434 174 l 434 87 m 608 174 l 608 260 l 694 260 l 694 174 l 608 174 m 347 174 l 260 174 l 260 260 l 347 260 l 347 174 m 694 260 l 694 347 l 781 347 l 781 260 l 694 260 m 260 260 l 174 260 l 174 347 l 260 347 l 260 260 m 781 347 l 781 434 l 868 434 l 868 347 l 781 347 m 174 347 l 87 347 l 87 434 l 174 434 l 174 347 m 868 434 l 868 521 l 868 608 l 868 694 l 955 694 l 955 608 l 955 521 l 955 434 l 868 434 m 87 434 l 0 434 l 0 521 l 0 608 l 0 694 l 87 694 l 87 608 l 87 521 l 87 434 m 521 608 l 521 694 l 608 694 l 608 608 l 521 608 m 434 608 l 347 608 l 347 694 l 434 694 l 434 608 m 868 694 l 781 694 l 694 694 l 608 694 l 608 781 l 694 781 l 781 781 l 868 781 l 868 694 m 347 694 l 260 694 l 174 694 l 87 694 l 87 781 l 174 781 l 260 781 l 347 781 l 347 694 z "},"Ė":{"ha":1042,"x_min":0,"x_max":955,"o":"m 434 0 l 434 87 l 521 87 l 521 0 l 434 0 m 434 521 l 434 608 l 521 608 l 521 521 l 434 521 m 521 87 l 521 174 l 608 174 l 608 87 l 521 87 m 434 87 l 347 87 l 347 174 l 434 174 l 434 87 m 608 174 l 608 260 l 694 260 l 694 174 l 608 174 m 347 174 l 260 174 l 260 260 l 347 260 l 347 174 m 694 260 l 694 347 l 781 347 l 781 260 l 694 260 m 260 260 l 174 260 l 174 347 l 260 347 l 260 260 m 781 347 l 781 434 l 868 434 l 868 347 l 781 347 m 174 347 l 87 347 l 87 434 l 174 434 l 174 347 m 868 434 l 868 521 l 868 608 l 868 694 l 955 694 l 955 608 l 955 521 l 955 434 l 868 434 m 87 434 l 0 434 l 0 521 l 0 608 l 0 694 l 87 694 l 87 608 l 87 521 l 87 434 m 521 608 l 521 694 l 608 694 l 608 608 l 521 608 m 434 608 l 347 608 l 347 694 l 434 694 l 434 608 m 868 694 l 781 694 l 694 694 l 608 694 l 608 781 l 694 781 l 781 781 l 868 781 l 868 694 m 347 694 l 260 694 l 174 694 l 87 694 l 87 781 l 174 781 l 260 781 l 347 781 l 347 694 z "},"ė":{"ha":1042,"x_min":0,"x_max":955,"o":"m 434 0 l 434 87 l 521 87 l 521 0 l 434 0 m 434 521 l 434 608 l 521 608 l 521 521 l 434 521 m 521 87 l 521 174 l 608 174 l 608 87 l 521 87 m 434 87 l 347 87 l 347 174 l 434 174 l 434 87 m 608 174 l 608 260 l 694 260 l 694 174 l 608 174 m 347 174 l 260 174 l 260 260 l 347 260 l 347 174 m 694 260 l 694 347 l 781 347 l 781 260 l 694 260 m 260 260 l 174 260 l 174 347 l 260 347 l 260 260 m 781 347 l 781 434 l 868 434 l 868 347 l 781 347 m 174 347 l 87 347 l 87 434 l 174 434 l 174 347 m 868 434 l 868 521 l 868 608 l 868 694 l 955 694 l 955 608 l 955 521 l 955 434 l 868 434 m 87 434 l 0 434 l 0 521 l 0 608 l 0 694 l 87 694 l 87 608 l 87 521 l 87 434 m 521 608 l 521 694 l 608 694 l 608 608 l 521 608 m 434 608 l 347 608 l 347 694 l 434 694 l 434 608 m 868 694 l 781 694 l 694 694 l 608 694 l 608 781 l 694 781 l 781 781 l 868 781 l 868 694 m 347 694 l 260 694 l 174 694 l 87 694 l 87 781 l 174 781 l 260 781 l 347 781 l 347 694 z "},"Ę":{"ha":1042,"x_min":0,"x_max":955,"o":"m 434 0 l 434 87 l 521 87 l 521 0 l 434 0 m 434 521 l 434 608 l 521 608 l 521 521 l 434 521 m 521 87 l 521 174 l 608 174 l 608 87 l 521 87 m 434 87 l 347 87 l 347 174 l 434 174 l 434 87 m 608 174 l 608 260 l 694 260 l 694 174 l 608 174 m 347 174 l 260 174 l 260 260 l 347 260 l 347 174 m 694 260 l 694 347 l 781 347 l 781 260 l 694 260 m 260 260 l 174 260 l 174 347 l 260 347 l 260 260 m 781 347 l 781 434 l 868 434 l 868 347 l 781 347 m 174 347 l 87 347 l 87 434 l 174 434 l 174 347 m 868 434 l 868 521 l 868 608 l 868 694 l 955 694 l 955 608 l 955 521 l 955 434 l 868 434 m 87 434 l 0 434 l 0 521 l 0 608 l 0 694 l 87 694 l 87 608 l 87 521 l 87 434 m 521 608 l 521 694 l 608 694 l 608 608 l 521 608 m 434 608 l 347 608 l 347 694 l 434 694 l 434 608 m 868 694 l 781 694 l 694 694 l 608 694 l 608 781 l 694 781 l 781 781 l 868 781 l 868 694 m 347 694 l 260 694 l 174 694 l 87 694 l 87 781 l 174 781 l 260 781 l 347 781 l 347 694 z "},"ę":{"ha":1042,"x_min":0,"x_max":955,"o":"m 434 0 l 434 87 l 521 87 l 521 0 l 434 0 m 434 521 l 434 608 l 521 608 l 521 521 l 434 521 m 521 87 l 521 174 l 608 174 l 608 87 l 521 87 m 434 87 l 347 87 l 347 174 l 434 174 l 434 87 m 608 174 l 608 260 l 694 260 l 694 174 l 608 174 m 347 174 l 260 174 l 260 260 l 347 260 l 347 174 m 694 260 l 694 347 l 781 347 l 781 260 l 694 260 m 260 260 l 174 260 l 174 347 l 260 347 l 260 260 m 781 347 l 781 434 l 868 434 l 868 347 l 781 347 m 174 347 l 87 347 l 87 434 l 174 434 l 174 347 m 868 434 l 868 521 l 868 608 l 868 694 l 955 694 l 955 608 l 955 521 l 955 434 l 868 434 m 87 434 l 0 434 l 0 521 l 0 608 l 0 694 l 87 694 l 87 608 l 87 521 l 87 434 m 521 608 l 521 694 l 608 694 l 608 608 l 521 608 m 434 608 l 347 608 l 347 694 l 434 694 l 434 608 m 868 694 l 781 694 l 694 694 l 608 694 l 608 781 l 694 781 l 781 781 l 868 781 l 868 694 m 347 694 l 260 694 l 174 694 l 87 694 l 87 781 l 174 781 l 260 781 l 347 781 l 347 694 z "},"Ě":{"ha":1042,"x_min":0,"x_max":955,"o":"m 434 0 l 434 87 l 521 87 l 521 0 l 434 0 m 434 521 l 434 608 l 521 608 l 521 521 l 434 521 m 521 87 l 521 174 l 608 174 l 608 87 l 521 87 m 434 87 l 347 87 l 347 174 l 434 174 l 434 87 m 608 174 l 608 260 l 694 260 l 694 174 l 608 174 m 347 174 l 260 174 l 260 260 l 347 260 l 347 174 m 694 260 l 694 347 l 781 347 l 781 260 l 694 260 m 260 260 l 174 260 l 174 347 l 260 347 l 260 260 m 781 347 l 781 434 l 868 434 l 868 347 l 781 347 m 174 347 l 87 347 l 87 434 l 174 434 l 174 347 m 868 434 l 868 521 l 868 608 l 868 694 l 955 694 l 955 608 l 955 521 l 955 434 l 868 434 m 87 434 l 0 434 l 0 521 l 0 608 l 0 694 l 87 694 l 87 608 l 87 521 l 87 434 m 521 608 l 521 694 l 608 694 l 608 608 l 521 608 m 434 608 l 347 608 l 347 694 l 434 694 l 434 608 m 868 694 l 781 694 l 694 694 l 608 694 l 608 781 l 694 781 l 781 781 l 868 781 l 868 694 m 347 694 l 260 694 l 174 694 l 87 694 l 87 781 l 174 781 l 260 781 l 347 781 l 347 694 z "},"ě":{"ha":1042,"x_min":0,"x_max":955,"o":"m 434 0 l 434 87 l 521 87 l 521 0 l 434 0 m 434 521 l 434 608 l 521 608 l 521 521 l 434 521 m 521 87 l 521 174 l 608 174 l 608 87 l 521 87 m 434 87 l 347 87 l 347 174 l 434 174 l 434 87 m 608 174 l 608 260 l 694 260 l 694 174 l 608 174 m 347 174 l 260 174 l 260 260 l 347 260 l 347 174 m 694 260 l 694 347 l 781 347 l 781 260 l 694 260 m 260 260 l 174 260 l 174 347 l 260 347 l 260 260 m 781 347 l 781 434 l 868 434 l 868 347 l 781 347 m 174 347 l 87 347 l 87 434 l 174 434 l 174 347 m 868 434 l 868 521 l 868 608 l 868 694 l 955 694 l 955 608 l 955 521 l 955 434 l 868 434 m 87 434 l 0 434 l 0 521 l 0 608 l 0 694 l 87 694 l 87 608 l 87 521 l 87 434 m 521 608 l 521 694 l 608 694 l 608 608 l 521 608 m 434 608 l 347 608 l 347 694 l 434 694 l 434 608 m 868 694 l 781 694 l 694 694 l 608 694 l 608 781 l 694 781 l 781 781 l 868 781 l 868 694 m 347 694 l 260 694 l 174 694 l 87 694 l 87 781 l 174 781 l 260 781 l 347 781 l 347 694 z "},"Ĝ":{"ha":1042,"x_min":0,"x_max":955,"o":"m 434 0 l 434 87 l 521 87 l 521 0 l 434 0 m 434 521 l 434 608 l 521 608 l 521 521 l 434 521 m 521 87 l 521 174 l 608 174 l 608 87 l 521 87 m 434 87 l 347 87 l 347 174 l 434 174 l 434 87 m 608 174 l 608 260 l 694 260 l 694 174 l 608 174 m 347 174 l 260 174 l 260 260 l 347 260 l 347 174 m 694 260 l 694 347 l 781 347 l 781 260 l 694 260 m 260 260 l 174 260 l 174 347 l 260 347 l 260 260 m 781 347 l 781 434 l 868 434 l 868 347 l 781 347 m 174 347 l 87 347 l 87 434 l 174 434 l 174 347 m 868 434 l 868 521 l 868 608 l 868 694 l 955 694 l 955 608 l 955 521 l 955 434 l 868 434 m 87 434 l 0 434 l 0 521 l 0 608 l 0 694 l 87 694 l 87 608 l 87 521 l 87 434 m 521 608 l 521 694 l 608 694 l 608 608 l 521 608 m 434 608 l 347 608 l 347 694 l 434 694 l 434 608 m 868 694 l 781 694 l 694 694 l 608 694 l 608 781 l 694 781 l 781 781 l 868 781 l 868 694 m 347 694 l 260 694 l 174 694 l 87 694 l 87 781 l 174 781 l 260 781 l 347 781 l 347 694 z "},"ĝ":{"ha":1042,"x_min":0,"x_max":955,"o":"m 434 0 l 434 87 l 521 87 l 521 0 l 434 0 m 434 521 l 434 608 l 521 608 l 521 521 l 434 521 m 521 87 l 521 174 l 608 174 l 608 87 l 521 87 m 434 87 l 347 87 l 347 174 l 434 174 l 434 87 m 608 174 l 608 260 l 694 260 l 694 174 l 608 174 m 347 174 l 260 174 l 260 260 l 347 260 l 347 174 m 694 260 l 694 347 l 781 347 l 781 260 l 694 260 m 260 260 l 174 260 l 174 347 l 260 347 l 260 260 m 781 347 l 781 434 l 868 434 l 868 347 l 781 347 m 174 347 l 87 347 l 87 434 l 174 434 l 174 347 m 868 434 l 868 521 l 868 608 l 868 694 l 955 694 l 955 608 l 955 521 l 955 434 l 868 434 m 87 434 l 0 434 l 0 521 l 0 608 l 0 694 l 87 694 l 87 608 l 87 521 l 87 434 m 521 608 l 521 694 l 608 694 l 608 608 l 521 608 m 434 608 l 347 608 l 347 694 l 434 694 l 434 608 m 868 694 l 781 694 l 694 694 l 608 694 l 608 781 l 694 781 l 781 781 l 868 781 l 868 694 m 347 694 l 260 694 l 174 694 l 87 694 l 87 781 l 174 781 l 260 781 l 347 781 l 347 694 z "},"Ğ":{"ha":1042,"x_min":0,"x_max":955,"o":"m 434 0 l 434 87 l 521 87 l 521 0 l 434 0 m 434 521 l 434 608 l 521 608 l 521 521 l 434 521 m 521 87 l 521 174 l 608 174 l 608 87 l 521 87 m 434 87 l 347 87 l 347 174 l 434 174 l 434 87 m 608 174 l 608 260 l 694 260 l 694 174 l 608 174 m 347 174 l 260 174 l 260 260 l 347 260 l 347 174 m 694 260 l 694 347 l 781 347 l 781 260 l 694 260 m 260 260 l 174 260 l 174 347 l 260 347 l 260 260 m 781 347 l 781 434 l 868 434 l 868 347 l 781 347 m 174 347 l 87 347 l 87 434 l 174 434 l 174 347 m 868 434 l 868 521 l 868 608 l 868 694 l 955 694 l 955 608 l 955 521 l 955 434 l 868 434 m 87 434 l 0 434 l 0 521 l 0 608 l 0 694 l 87 694 l 87 608 l 87 521 l 87 434 m 521 608 l 521 694 l 608 694 l 608 608 l 521 608 m 434 608 l 347 608 l 347 694 l 434 694 l 434 608 m 868 694 l 781 694 l 694 694 l 608 694 l 608 781 l 694 781 l 781 781 l 868 781 l 868 694 m 347 694 l 260 694 l 174 694 l 87 694 l 87 781 l 174 781 l 260 781 l 347 781 l 347 694 z "},"ğ":{"ha":1042,"x_min":0,"x_max":955,"o":"m 434 0 l 434 87 l 521 87 l 521 0 l 434 0 m 434 521 l 434 608 l 521 608 l 521 521 l 434 521 m 521 87 l 521 174 l 608 174 l 608 87 l 521 87 m 434 87 l 347 87 l 347 174 l 434 174 l 434 87 m 608 174 l 608 260 l 694 260 l 694 174 l 608 174 m 347 174 l 260 174 l 260 260 l 347 260 l 347 174 m 694 260 l 694 347 l 781 347 l 781 260 l 694 260 m 260 260 l 174 260 l 174 347 l 260 347 l 260 260 m 781 347 l 781 434 l 868 434 l 868 347 l 781 347 m 174 347 l 87 347 l 87 434 l 174 434 l 174 347 m 868 434 l 868 521 l 868 608 l 868 694 l 955 694 l 955 608 l 955 521 l 955 434 l 868 434 m 87 434 l 0 434 l 0 521 l 0 608 l 0 694 l 87 694 l 87 608 l 87 521 l 87 434 m 521 608 l 521 694 l 608 694 l 608 608 l 521 608 m 434 608 l 347 608 l 347 694 l 434 694 l 434 608 m 868 694 l 781 694 l 694 694 l 608 694 l 608 781 l 694 781 l 781 781 l 868 781 l 868 694 m 347 694 l 260 694 l 174 694 l 87 694 l 87 781 l 174 781 l 260 781 l 347 781 l 347 694 z "},"Ġ":{"ha":1042,"x_min":0,"x_max":955,"o":"m 434 0 l 434 87 l 521 87 l 521 0 l 434 0 m 434 521 l 434 608 l 521 608 l 521 521 l 434 521 m 521 87 l 521 174 l 608 174 l 608 87 l 521 87 m 434 87 l 347 87 l 347 174 l 434 174 l 434 87 m 608 174 l 608 260 l 694 260 l 694 174 l 608 174 m 347 174 l 260 174 l 260 260 l 347 260 l 347 174 m 694 260 l 694 347 l 781 347 l 781 260 l 694 260 m 260 260 l 174 260 l 174 347 l 260 347 l 260 260 m 781 347 l 781 434 l 868 434 l 868 347 l 781 347 m 174 347 l 87 347 l 87 434 l 174 434 l 174 347 m 868 434 l 868 521 l 868 608 l 868 694 l 955 694 l 955 608 l 955 521 l 955 434 l 868 434 m 87 434 l 0 434 l 0 521 l 0 608 l 0 694 l 87 694 l 87 608 l 87 521 l 87 434 m 521 608 l 521 694 l 608 694 l 608 608 l 521 608 m 434 608 l 347 608 l 347 694 l 434 694 l 434 608 m 868 694 l 781 694 l 694 694 l 608 694 l 608 781 l 694 781 l 781 781 l 868 781 l 868 694 m 347 694 l 260 694 l 174 694 l 87 694 l 87 781 l 174 781 l 260 781 l 347 781 l 347 694 z "},"ġ":{"ha":1042,"x_min":0,"x_max":955,"o":"m 434 0 l 434 87 l 521 87 l 521 0 l 434 0 m 434 521 l 434 608 l 521 608 l 521 521 l 434 521 m 521 87 l 521 174 l 608 174 l 608 87 l 521 87 m 434 87 l 347 87 l 347 174 l 434 174 l 434 87 m 608 174 l 608 260 l 694 260 l 694 174 l 608 174 m 347 174 l 260 174 l 260 260 l 347 260 l 347 174 m 694 260 l 694 347 l 781 347 l 781 260 l 694 260 m 260 260 l 174 260 l 174 347 l 260 347 l 260 260 m 781 347 l 781 434 l 868 434 l 868 347 l 781 347 m 174 347 l 87 347 l 87 434 l 174 434 l 174 347 m 868 434 l 868 521 l 868 608 l 868 694 l 955 694 l 955 608 l 955 521 l 955 434 l 868 434 m 87 434 l 0 434 l 0 521 l 0 608 l 0 694 l 87 694 l 87 608 l 87 521 l 87 434 m 521 608 l 521 694 l 608 694 l 608 608 l 521 608 m 434 608 l 347 608 l 347 694 l 434 694 l 434 608 m 868 694 l 781 694 l 694 694 l 608 694 l 608 781 l 694 781 l 781 781 l 868 781 l 868 694 m 347 694 l 260 694 l 174 694 l 87 694 l 87 781 l 174 781 l 260 781 l 347 781 l 347 694 z "},"Ģ":{"ha":1042,"x_min":0,"x_max":955,"o":"m 434 0 l 434 87 l 521 87 l 521 0 l 434 0 m 434 521 l 434 608 l 521 608 l 521 521 l 434 521 m 521 87 l 521 174 l 608 174 l 608 87 l 521 87 m 434 87 l 347 87 l 347 174 l 434 174 l 434 87 m 608 174 l 608 260 l 694 260 l 694 174 l 608 174 m 347 174 l 260 174 l 260 260 l 347 260 l 347 174 m 694 260 l 694 347 l 781 347 l 781 260 l 694 260 m 260 260 l 174 260 l 174 347 l 260 347 l 260 260 m 781 347 l 781 434 l 868 434 l 868 347 l 781 347 m 174 347 l 87 347 l 87 434 l 174 434 l 174 347 m 868 434 l 868 521 l 868 608 l 868 694 l 955 694 l 955 608 l 955 521 l 955 434 l 868 434 m 87 434 l 0 434 l 0 521 l 0 608 l 0 694 l 87 694 l 87 608 l 87 521 l 87 434 m 521 608 l 521 694 l 608 694 l 608 608 l 521 608 m 434 608 l 347 608 l 347 694 l 434 694 l 434 608 m 868 694 l 781 694 l 694 694 l 608 694 l 608 781 l 694 781 l 781 781 l 868 781 l 868 694 m 347 694 l 260 694 l 174 694 l 87 694 l 87 781 l 174 781 l 260 781 l 347 781 l 347 694 z "},"ģ":{"ha":1042,"x_min":0,"x_max":955,"o":"m 434 0 l 434 87 l 521 87 l 521 0 l 434 0 m 434 521 l 434 608 l 521 608 l 521 521 l 434 521 m 521 87 l 521 174 l 608 174 l 608 87 l 521 87 m 434 87 l 347 87 l 347 174 l 434 174 l 434 87 m 608 174 l 608 260 l 694 260 l 694 174 l 608 174 m 347 174 l 260 174 l 260 260 l 347 260 l 347 174 m 694 260 l 694 347 l 781 347 l 781 260 l 694 260 m 260 260 l 174 260 l 174 347 l 260 347 l 260 260 m 781 347 l 781 434 l 868 434 l 868 347 l 781 347 m 174 347 l 87 347 l 87 434 l 174 434 l 174 347 m 868 434 l 868 521 l 868 608 l 868 694 l 955 694 l 955 608 l 955 521 l 955 434 l 868 434 m 87 434 l 0 434 l 0 521 l 0 608 l 0 694 l 87 694 l 87 608 l 87 521 l 87 434 m 521 608 l 521 694 l 608 694 l 608 608 l 521 608 m 434 608 l 347 608 l 347 694 l 434 694 l 434 608 m 868 694 l 781 694 l 694 694 l 608 694 l 608 781 l 694 781 l 781 781 l 868 781 l 868 694 m 347 694 l 260 694 l 174 694 l 87 694 l 87 781 l 174 781 l 260 781 l 347 781 l 347 694 z "},"Ĥ":{"ha":1042,"x_min":0,"x_max":955,"o":"m 434 0 l 434 87 l 521 87 l 521 0 l 434 0 m 434 521 l 434 608 l 521 608 l 521 521 l 434 521 m 521 87 l 521 174 l 608 174 l 608 87 l 521 87 m 434 87 l 347 87 l 347 174 l 434 174 l 434 87 m 608 174 l 608 260 l 694 260 l 694 174 l 608 174 m 347 174 l 260 174 l 260 260 l 347 260 l 347 174 m 694 260 l 694 347 l 781 347 l 781 260 l 694 260 m 260 260 l 174 260 l 174 347 l 260 347 l 260 260 m 781 347 l 781 434 l 868 434 l 868 347 l 781 347 m 174 347 l 87 347 l 87 434 l 174 434 l 174 347 m 868 434 l 868 521 l 868 608 l 868 694 l 955 694 l 955 608 l 955 521 l 955 434 l 868 434 m 87 434 l 0 434 l 0 521 l 0 608 l 0 694 l 87 694 l 87 608 l 87 521 l 87 434 m 521 608 l 521 694 l 608 694 l 608 608 l 521 608 m 434 608 l 347 608 l 347 694 l 434 694 l 434 608 m 868 694 l 781 694 l 694 694 l 608 694 l 608 781 l 694 781 l 781 781 l 868 781 l 868 694 m 347 694 l 260 694 l 174 694 l 87 694 l 87 781 l 174 781 l 260 781 l 347 781 l 347 694 z "},"ĥ":{"ha":1042,"x_min":0,"x_max":955,"o":"m 434 0 l 434 87 l 521 87 l 521 0 l 434 0 m 434 521 l 434 608 l 521 608 l 521 521 l 434 521 m 521 87 l 521 174 l 608 174 l 608 87 l 521 87 m 434 87 l 347 87 l 347 174 l 434 174 l 434 87 m 608 174 l 608 260 l 694 260 l 694 174 l 608 174 m 347 174 l 260 174 l 260 260 l 347 260 l 347 174 m 694 260 l 694 347 l 781 347 l 781 260 l 694 260 m 260 260 l 174 260 l 174 347 l 260 347 l 260 260 m 781 347 l 781 434 l 868 434 l 868 347 l 781 347 m 174 347 l 87 347 l 87 434 l 174 434 l 174 347 m 868 434 l 868 521 l 868 608 l 868 694 l 955 694 l 955 608 l 955 521 l 955 434 l 868 434 m 87 434 l 0 434 l 0 521 l 0 608 l 0 694 l 87 694 l 87 608 l 87 521 l 87 434 m 521 608 l 521 694 l 608 694 l 608 608 l 521 608 m 434 608 l 347 608 l 347 694 l 434 694 l 434 608 m 868 694 l 781 694 l 694 694 l 608 694 l 608 781 l 694 781 l 781 781 l 868 781 l 868 694 m 347 694 l 260 694 l 174 694 l 87 694 l 87 781 l 174 781 l 260 781 l 347 781 l 347 694 z "},"Ħ":{"ha":1042,"x_min":0,"x_max":955,"o":"m 434 0 l 434 87 l 521 87 l 521 0 l 434 0 m 434 521 l 434 608 l 521 608 l 521 521 l 434 521 m 521 87 l 521 174 l 608 174 l 608 87 l 521 87 m 434 87 l 347 87 l 347 174 l 434 174 l 434 87 m 608 174 l 608 260 l 694 260 l 694 174 l 608 174 m 347 174 l 260 174 l 260 260 l 347 260 l 347 174 m 694 260 l 694 347 l 781 347 l 781 260 l 694 260 m 260 260 l 174 260 l 174 347 l 260 347 l 260 260 m 781 347 l 781 434 l 868 434 l 868 347 l 781 347 m 174 347 l 87 347 l 87 434 l 174 434 l 174 347 m 868 434 l 868 521 l 868 608 l 868 694 l 955 694 l 955 608 l 955 521 l 955 434 l 868 434 m 87 434 l 0 434 l 0 521 l 0 608 l 0 694 l 87 694 l 87 608 l 87 521 l 87 434 m 521 608 l 521 694 l 608 694 l 608 608 l 521 608 m 434 608 l 347 608 l 347 694 l 434 694 l 434 608 m 868 694 l 781 694 l 694 694 l 608 694 l 608 781 l 694 781 l 781 781 l 868 781 l 868 694 m 347 694 l 260 694 l 174 694 l 87 694 l 87 781 l 174 781 l 260 781 l 347 781 l 347 694 z "},"ħ":{"ha":1042,"x_min":0,"x_max":955,"o":"m 434 0 l 434 87 l 521 87 l 521 0 l 434 0 m 434 521 l 434 608 l 521 608 l 521 521 l 434 521 m 521 87 l 521 174 l 608 174 l 608 87 l 521 87 m 434 87 l 347 87 l 347 174 l 434 174 l 434 87 m 608 174 l 608 260 l 694 260 l 694 174 l 608 174 m 347 174 l 260 174 l 260 260 l 347 260 l 347 174 m 694 260 l 694 347 l 781 347 l 781 260 l 694 260 m 260 260 l 174 260 l 174 347 l 260 347 l 260 260 m 781 347 l 781 434 l 868 434 l 868 347 l 781 347 m 174 347 l 87 347 l 87 434 l 174 434 l 174 347 m 868 434 l 868 521 l 868 608 l 868 694 l 955 694 l 955 608 l 955 521 l 955 434 l 868 434 m 87 434 l 0 434 l 0 521 l 0 608 l 0 694 l 87 694 l 87 608 l 87 521 l 87 434 m 521 608 l 521 694 l 608 694 l 608 608 l 521 608 m 434 608 l 347 608 l 347 694 l 434 694 l 434 608 m 868 694 l 781 694 l 694 694 l 608 694 l 608 781 l 694 781 l 781 781 l 868 781 l 868 694 m 347 694 l 260 694 l 174 694 l 87 694 l 87 781 l 174 781 l 260 781 l 347 781 l 347 694 z "},"Ĩ":{"ha":1042,"x_min":0,"x_max":955,"o":"m 434 0 l 434 87 l 521 87 l 521 0 l 434 0 m 434 521 l 434 608 l 521 608 l 521 521 l 434 521 m 521 87 l 521 174 l 608 174 l 608 87 l 521 87 m 434 87 l 347 87 l 347 174 l 434 174 l 434 87 m 608 174 l 608 260 l 694 260 l 694 174 l 608 174 m 347 174 l 260 174 l 260 260 l 347 260 l 347 174 m 694 260 l 694 347 l 781 347 l 781 260 l 694 260 m 260 260 l 174 260 l 174 347 l 260 347 l 260 260 m 781 347 l 781 434 l 868 434 l 868 347 l 781 347 m 174 347 l 87 347 l 87 434 l 174 434 l 174 347 m 868 434 l 868 521 l 868 608 l 868 694 l 955 694 l 955 608 l 955 521 l 955 434 l 868 434 m 87 434 l 0 434 l 0 521 l 0 608 l 0 694 l 87 694 l 87 608 l 87 521 l 87 434 m 521 608 l 521 694 l 608 694 l 608 608 l 521 608 m 434 608 l 347 608 l 347 694 l 434 694 l 434 608 m 868 694 l 781 694 l 694 694 l 608 694 l 608 781 l 694 781 l 781 781 l 868 781 l 868 694 m 347 694 l 260 694 l 174 694 l 87 694 l 87 781 l 174 781 l 260 781 l 347 781 l 347 694 z "},"ĩ":{"ha":1042,"x_min":0,"x_max":955,"o":"m 434 0 l 434 87 l 521 87 l 521 0 l 434 0 m 434 521 l 434 608 l 521 608 l 521 521 l 434 521 m 521 87 l 521 174 l 608 174 l 608 87 l 521 87 m 434 87 l 347 87 l 347 174 l 434 174 l 434 87 m 608 174 l 608 260 l 694 260 l 694 174 l 608 174 m 347 174 l 260 174 l 260 260 l 347 260 l 347 174 m 694 260 l 694 347 l 781 347 l 781 260 l 694 260 m 260 260 l 174 260 l 174 347 l 260 347 l 260 260 m 781 347 l 781 434 l 868 434 l 868 347 l 781 347 m 174 347 l 87 347 l 87 434 l 174 434 l 174 347 m 868 434 l 868 521 l 868 608 l 868 694 l 955 694 l 955 608 l 955 521 l 955 434 l 868 434 m 87 434 l 0 434 l 0 521 l 0 608 l 0 694 l 87 694 l 87 608 l 87 521 l 87 434 m 521 608 l 521 694 l 608 694 l 608 608 l 521 608 m 434 608 l 347 608 l 347 694 l 434 694 l 434 608 m 868 694 l 781 694 l 694 694 l 608 694 l 608 781 l 694 781 l 781 781 l 868 781 l 868 694 m 347 694 l 260 694 l 174 694 l 87 694 l 87 781 l 174 781 l 260 781 l 347 781 l 347 694 z "},"Ī":{"ha":1042,"x_min":0,"x_max":955,"o":"m 434 0 l 434 87 l 521 87 l 521 0 l 434 0 m 434 521 l 434 608 l 521 608 l 521 521 l 434 521 m 521 87 l 521 174 l 608 174 l 608 87 l 521 87 m 434 87 l 347 87 l 347 174 l 434 174 l 434 87 m 608 174 l 608 260 l 694 260 l 694 174 l 608 174 m 347 174 l 260 174 l 260 260 l 347 260 l 347 174 m 694 260 l 694 347 l 781 347 l 781 260 l 694 260 m 260 260 l 174 260 l 174 347 l 260 347 l 260 260 m 781 347 l 781 434 l 868 434 l 868 347 l 781 347 m 174 347 l 87 347 l 87 434 l 174 434 l 174 347 m 868 434 l 868 521 l 868 608 l 868 694 l 955 694 l 955 608 l 955 521 l 955 434 l 868 434 m 87 434 l 0 434 l 0 521 l 0 608 l 0 694 l 87 694 l 87 608 l 87 521 l 87 434 m 521 608 l 521 694 l 608 694 l 608 608 l 521 608 m 434 608 l 347 608 l 347 694 l 434 694 l 434 608 m 868 694 l 781 694 l 694 694 l 608 694 l 608 781 l 694 781 l 781 781 l 868 781 l 868 694 m 347 694 l 260 694 l 174 694 l 87 694 l 87 781 l 174 781 l 260 781 l 347 781 l 347 694 z "},"ī":{"ha":1042,"x_min":0,"x_max":955,"o":"m 434 0 l 434 87 l 521 87 l 521 0 l 434 0 m 434 521 l 434 608 l 521 608 l 521 521 l 434 521 m 521 87 l 521 174 l 608 174 l 608 87 l 521 87 m 434 87 l 347 87 l 347 174 l 434 174 l 434 87 m 608 174 l 608 260 l 694 260 l 694 174 l 608 174 m 347 174 l 260 174 l 260 260 l 347 260 l 347 174 m 694 260 l 694 347 l 781 347 l 781 260 l 694 260 m 260 260 l 174 260 l 174 347 l 260 347 l 260 260 m 781 347 l 781 434 l 868 434 l 868 347 l 781 347 m 174 347 l 87 347 l 87 434 l 174 434 l 174 347 m 868 434 l 868 521 l 868 608 l 868 694 l 955 694 l 955 608 l 955 521 l 955 434 l 868 434 m 87 434 l 0 434 l 0 521 l 0 608 l 0 694 l 87 694 l 87 608 l 87 521 l 87 434 m 521 608 l 521 694 l 608 694 l 608 608 l 521 608 m 434 608 l 347 608 l 347 694 l 434 694 l 434 608 m 868 694 l 781 694 l 694 694 l 608 694 l 608 781 l 694 781 l 781 781 l 868 781 l 868 694 m 347 694 l 260 694 l 174 694 l 87 694 l 87 781 l 174 781 l 260 781 l 347 781 l 347 694 z "},"Ĭ":{"ha":1042,"x_min":0,"x_max":955,"o":"m 434 0 l 434 87 l 521 87 l 521 0 l 434 0 m 434 521 l 434 608 l 521 608 l 521 521 l 434 521 m 521 87 l 521 174 l 608 174 l 608 87 l 521 87 m 434 87 l 347 87 l 347 174 l 434 174 l 434 87 m 608 174 l 608 260 l 694 260 l 694 174 l 608 174 m 347 174 l 260 174 l 260 260 l 347 260 l 347 174 m 694 260 l 694 347 l 781 347 l 781 260 l 694 260 m 260 260 l 174 260 l 174 347 l 260 347 l 260 260 m 781 347 l 781 434 l 868 434 l 868 347 l 781 347 m 174 347 l 87 347 l 87 434 l 174 434 l 174 347 m 868 434 l 868 521 l 868 608 l 868 694 l 955 694 l 955 608 l 955 521 l 955 434 l 868 434 m 87 434 l 0 434 l 0 521 l 0 608 l 0 694 l 87 694 l 87 608 l 87 521 l 87 434 m 521 608 l 521 694 l 608 694 l 608 608 l 521 608 m 434 608 l 347 608 l 347 694 l 434 694 l 434 608 m 868 694 l 781 694 l 694 694 l 608 694 l 608 781 l 694 781 l 781 781 l 868 781 l 868 694 m 347 694 l 260 694 l 174 694 l 87 694 l 87 781 l 174 781 l 260 781 l 347 781 l 347 694 z "},"ĭ":{"ha":1042,"x_min":0,"x_max":955,"o":"m 434 0 l 434 87 l 521 87 l 521 0 l 434 0 m 434 521 l 434 608 l 521 608 l 521 521 l 434 521 m 521 87 l 521 174 l 608 174 l 608 87 l 521 87 m 434 87 l 347 87 l 347 174 l 434 174 l 434 87 m 608 174 l 608 260 l 694 260 l 694 174 l 608 174 m 347 174 l 260 174 l 260 260 l 347 260 l 347 174 m 694 260 l 694 347 l 781 347 l 781 260 l 694 260 m 260 260 l 174 260 l 174 347 l 260 347 l 260 260 m 781 347 l 781 434 l 868 434 l 868 347 l 781 347 m 174 347 l 87 347 l 87 434 l 174 434 l 174 347 m 868 434 l 868 521 l 868 608 l 868 694 l 955 694 l 955 608 l 955 521 l 955 434 l 868 434 m 87 434 l 0 434 l 0 521 l 0 608 l 0 694 l 87 694 l 87 608 l 87 521 l 87 434 m 521 608 l 521 694 l 608 694 l 608 608 l 521 608 m 434 608 l 347 608 l 347 694 l 434 694 l 434 608 m 868 694 l 781 694 l 694 694 l 608 694 l 608 781 l 694 781 l 781 781 l 868 781 l 868 694 m 347 694 l 260 694 l 174 694 l 87 694 l 87 781 l 174 781 l 260 781 l 347 781 l 347 694 z "},"Į":{"ha":1042,"x_min":0,"x_max":955,"o":"m 434 0 l 434 87 l 521 87 l 521 0 l 434 0 m 434 521 l 434 608 l 521 608 l 521 521 l 434 521 m 521 87 l 521 174 l 608 174 l 608 87 l 521 87 m 434 87 l 347 87 l 347 174 l 434 174 l 434 87 m 608 174 l 608 260 l 694 260 l 694 174 l 608 174 m 347 174 l 260 174 l 260 260 l 347 260 l 347 174 m 694 260 l 694 347 l 781 347 l 781 260 l 694 260 m 260 260 l 174 260 l 174 347 l 260 347 l 260 260 m 781 347 l 781 434 l 868 434 l 868 347 l 781 347 m 174 347 l 87 347 l 87 434 l 174 434 l 174 347 m 868 434 l 868 521 l 868 608 l 868 694 l 955 694 l 955 608 l 955 521 l 955 434 l 868 434 m 87 434 l 0 434 l 0 521 l 0 608 l 0 694 l 87 694 l 87 608 l 87 521 l 87 434 m 521 608 l 521 694 l 608 694 l 608 608 l 521 608 m 434 608 l 347 608 l 347 694 l 434 694 l 434 608 m 868 694 l 781 694 l 694 694 l 608 694 l 608 781 l 694 781 l 781 781 l 868 781 l 868 694 m 347 694 l 260 694 l 174 694 l 87 694 l 87 781 l 174 781 l 260 781 l 347 781 l 347 694 z "},"į":{"ha":1042,"x_min":0,"x_max":955,"o":"m 434 0 l 434 87 l 521 87 l 521 0 l 434 0 m 434 521 l 434 608 l 521 608 l 521 521 l 434 521 m 521 87 l 521 174 l 608 174 l 608 87 l 521 87 m 434 87 l 347 87 l 347 174 l 434 174 l 434 87 m 608 174 l 608 260 l 694 260 l 694 174 l 608 174 m 347 174 l 260 174 l 260 260 l 347 260 l 347 174 m 694 260 l 694 347 l 781 347 l 781 260 l 694 260 m 260 260 l 174 260 l 174 347 l 260 347 l 260 260 m 781 347 l 781 434 l 868 434 l 868 347 l 781 347 m 174 347 l 87 347 l 87 434 l 174 434 l 174 347 m 868 434 l 868 521 l 868 608 l 868 694 l 955 694 l 955 608 l 955 521 l 955 434 l 868 434 m 87 434 l 0 434 l 0 521 l 0 608 l 0 694 l 87 694 l 87 608 l 87 521 l 87 434 m 521 608 l 521 694 l 608 694 l 608 608 l 521 608 m 434 608 l 347 608 l 347 694 l 434 694 l 434 608 m 868 694 l 781 694 l 694 694 l 608 694 l 608 781 l 694 781 l 781 781 l 868 781 l 868 694 m 347 694 l 260 694 l 174 694 l 87 694 l 87 781 l 174 781 l 260 781 l 347 781 l 347 694 z "},"İ":{"ha":1042,"x_min":0,"x_max":955,"o":"m 434 0 l 434 87 l 521 87 l 521 0 l 434 0 m 434 521 l 434 608 l 521 608 l 521 521 l 434 521 m 521 87 l 521 174 l 608 174 l 608 87 l 521 87 m 434 87 l 347 87 l 347 174 l 434 174 l 434 87 m 608 174 l 608 260 l 694 260 l 694 174 l 608 174 m 347 174 l 260 174 l 260 260 l 347 260 l 347 174 m 694 260 l 694 347 l 781 347 l 781 260 l 694 260 m 260 260 l 174 260 l 174 347 l 260 347 l 260 260 m 781 347 l 781 434 l 868 434 l 868 347 l 781 347 m 174 347 l 87 347 l 87 434 l 174 434 l 174 347 m 868 434 l 868 521 l 868 608 l 868 694 l 955 694 l 955 608 l 955 521 l 955 434 l 868 434 m 87 434 l 0 434 l 0 521 l 0 608 l 0 694 l 87 694 l 87 608 l 87 521 l 87 434 m 521 608 l 521 694 l 608 694 l 608 608 l 521 608 m 434 608 l 347 608 l 347 694 l 434 694 l 434 608 m 868 694 l 781 694 l 694 694 l 608 694 l 608 781 l 694 781 l 781 781 l 868 781 l 868 694 m 347 694 l 260 694 l 174 694 l 87 694 l 87 781 l 174 781 l 260 781 l 347 781 l 347 694 z "},"ı":{"ha":1042,"x_min":0,"x_max":955,"o":"m 434 0 l 434 87 l 521 87 l 521 0 l 434 0 m 434 521 l 434 608 l 521 608 l 521 521 l 434 521 m 521 87 l 521 174 l 608 174 l 608 87 l 521 87 m 434 87 l 347 87 l 347 174 l 434 174 l 434 87 m 608 174 l 608 260 l 694 260 l 694 174 l 608 174 m 347 174 l 260 174 l 260 260 l 347 260 l 347 174 m 694 260 l 694 347 l 781 347 l 781 260 l 694 260 m 260 260 l 174 260 l 174 347 l 260 347 l 260 260 m 781 347 l 781 434 l 868 434 l 868 347 l 781 347 m 174 347 l 87 347 l 87 434 l 174 434 l 174 347 m 868 434 l 868 521 l 868 608 l 868 694 l 955 694 l 955 608 l 955 521 l 955 434 l 868 434 m 87 434 l 0 434 l 0 521 l 0 608 l 0 694 l 87 694 l 87 608 l 87 521 l 87 434 m 521 608 l 521 694 l 608 694 l 608 608 l 521 608 m 434 608 l 347 608 l 347 694 l 434 694 l 434 608 m 868 694 l 781 694 l 694 694 l 608 694 l 608 781 l 694 781 l 781 781 l 868 781 l 868 694 m 347 694 l 260 694 l 174 694 l 87 694 l 87 781 l 174 781 l 260 781 l 347 781 l 347 694 z "},"Ĳ":{"ha":1042,"x_min":0,"x_max":955,"o":"m 434 0 l 434 87 l 521 87 l 521 0 l 434 0 m 434 521 l 434 608 l 521 608 l 521 521 l 434 521 m 521 87 l 521 174 l 608 174 l 608 87 l 521 87 m 434 87 l 347 87 l 347 174 l 434 174 l 434 87 m 608 174 l 608 260 l 694 260 l 694 174 l 608 174 m 347 174 l 260 174 l 260 260 l 347 260 l 347 174 m 694 260 l 694 347 l 781 347 l 781 260 l 694 260 m 260 260 l 174 260 l 174 347 l 260 347 l 260 260 m 781 347 l 781 434 l 868 434 l 868 347 l 781 347 m 174 347 l 87 347 l 87 434 l 174 434 l 174 347 m 868 434 l 868 521 l 868 608 l 868 694 l 955 694 l 955 608 l 955 521 l 955 434 l 868 434 m 87 434 l 0 434 l 0 521 l 0 608 l 0 694 l 87 694 l 87 608 l 87 521 l 87 434 m 521 608 l 521 694 l 608 694 l 608 608 l 521 608 m 434 608 l 347 608 l 347 694 l 434 694 l 434 608 m 868 694 l 781 694 l 694 694 l 608 694 l 608 781 l 694 781 l 781 781 l 868 781 l 868 694 m 347 694 l 260 694 l 174 694 l 87 694 l 87 781 l 174 781 l 260 781 l 347 781 l 347 694 z "},"ĳ":{"ha":1042,"x_min":0,"x_max":955,"o":"m 434 0 l 434 87 l 521 87 l 521 0 l 434 0 m 434 521 l 434 608 l 521 608 l 521 521 l 434 521 m 521 87 l 521 174 l 608 174 l 608 87 l 521 87 m 434 87 l 347 87 l 347 174 l 434 174 l 434 87 m 608 174 l 608 260 l 694 260 l 694 174 l 608 174 m 347 174 l 260 174 l 260 260 l 347 260 l 347 174 m 694 260 l 694 347 l 781 347 l 781 260 l 694 260 m 260 260 l 174 260 l 174 347 l 260 347 l 260 260 m 781 347 l 781 434 l 868 434 l 868 347 l 781 347 m 174 347 l 87 347 l 87 434 l 174 434 l 174 347 m 868 434 l 868 521 l 868 608 l 868 694 l 955 694 l 955 608 l 955 521 l 955 434 l 868 434 m 87 434 l 0 434 l 0 521 l 0 608 l 0 694 l 87 694 l 87 608 l 87 521 l 87 434 m 521 608 l 521 694 l 608 694 l 608 608 l 521 608 m 434 608 l 347 608 l 347 694 l 434 694 l 434 608 m 868 694 l 781 694 l 694 694 l 608 694 l 608 781 l 694 781 l 781 781 l 868 781 l 868 694 m 347 694 l 260 694 l 174 694 l 87 694 l 87 781 l 174 781 l 260 781 l 347 781 l 347 694 z "},"Ĵ":{"ha":1042,"x_min":0,"x_max":955,"o":"m 434 0 l 434 87 l 521 87 l 521 0 l 434 0 m 434 521 l 434 608 l 521 608 l 521 521 l 434 521 m 521 87 l 521 174 l 608 174 l 608 87 l 521 87 m 434 87 l 347 87 l 347 174 l 434 174 l 434 87 m 608 174 l 608 260 l 694 260 l 694 174 l 608 174 m 347 174 l 260 174 l 260 260 l 347 260 l 347 174 m 694 260 l 694 347 l 781 347 l 781 260 l 694 260 m 260 260 l 174 260 l 174 347 l 260 347 l 260 260 m 781 347 l 781 434 l 868 434 l 868 347 l 781 347 m 174 347 l 87 347 l 87 434 l 174 434 l 174 347 m 868 434 l 868 521 l 868 608 l 868 694 l 955 694 l 955 608 l 955 521 l 955 434 l 868 434 m 87 434 l 0 434 l 0 521 l 0 608 l 0 694 l 87 694 l 87 608 l 87 521 l 87 434 m 521 608 l 521 694 l 608 694 l 608 608 l 521 608 m 434 608 l 347 608 l 347 694 l 434 694 l 434 608 m 868 694 l 781 694 l 694 694 l 608 694 l 608 781 l 694 781 l 781 781 l 868 781 l 868 694 m 347 694 l 260 694 l 174 694 l 87 694 l 87 781 l 174 781 l 260 781 l 347 781 l 347 694 z "},"ĵ":{"ha":1042,"x_min":0,"x_max":955,"o":"m 434 0 l 434 87 l 521 87 l 521 0 l 434 0 m 434 521 l 434 608 l 521 608 l 521 521 l 434 521 m 521 87 l 521 174 l 608 174 l 608 87 l 521 87 m 434 87 l 347 87 l 347 174 l 434 174 l 434 87 m 608 174 l 608 260 l 694 260 l 694 174 l 608 174 m 347 174 l 260 174 l 260 260 l 347 260 l 347 174 m 694 260 l 694 347 l 781 347 l 781 260 l 694 260 m 260 260 l 174 260 l 174 347 l 260 347 l 260 260 m 781 347 l 781 434 l 868 434 l 868 347 l 781 347 m 174 347 l 87 347 l 87 434 l 174 434 l 174 347 m 868 434 l 868 521 l 868 608 l 868 694 l 955 694 l 955 608 l 955 521 l 955 434 l 868 434 m 87 434 l 0 434 l 0 521 l 0 608 l 0 694 l 87 694 l 87 608 l 87 521 l 87 434 m 521 608 l 521 694 l 608 694 l 608 608 l 521 608 m 434 608 l 347 608 l 347 694 l 434 694 l 434 608 m 868 694 l 781 694 l 694 694 l 608 694 l 608 781 l 694 781 l 781 781 l 868 781 l 868 694 m 347 694 l 260 694 l 174 694 l 87 694 l 87 781 l 174 781 l 260 781 l 347 781 l 347 694 z "},"Ķ":{"ha":1042,"x_min":0,"x_max":955,"o":"m 434 0 l 434 87 l 521 87 l 521 0 l 434 0 m 434 521 l 434 608 l 521 608 l 521 521 l 434 521 m 521 87 l 521 174 l 608 174 l 608 87 l 521 87 m 434 87 l 347 87 l 347 174 l 434 174 l 434 87 m 608 174 l 608 260 l 694 260 l 694 174 l 608 174 m 347 174 l 260 174 l 260 260 l 347 260 l 347 174 m 694 260 l 694 347 l 781 347 l 781 260 l 694 260 m 260 260 l 174 260 l 174 347 l 260 347 l 260 260 m 781 347 l 781 434 l 868 434 l 868 347 l 781 347 m 174 347 l 87 347 l 87 434 l 174 434 l 174 347 m 868 434 l 868 521 l 868 608 l 868 694 l 955 694 l 955 608 l 955 521 l 955 434 l 868 434 m 87 434 l 0 434 l 0 521 l 0 608 l 0 694 l 87 694 l 87 608 l 87 521 l 87 434 m 521 608 l 521 694 l 608 694 l 608 608 l 521 608 m 434 608 l 347 608 l 347 694 l 434 694 l 434 608 m 868 694 l 781 694 l 694 694 l 608 694 l 608 781 l 694 781 l 781 781 l 868 781 l 868 694 m 347 694 l 260 694 l 174 694 l 87 694 l 87 781 l 174 781 l 260 781 l 347 781 l 347 694 z "},"ķ":{"ha":1042,"x_min":0,"x_max":955,"o":"m 434 0 l 434 87 l 521 87 l 521 0 l 434 0 m 434 521 l 434 608 l 521 608 l 521 521 l 434 521 m 521 87 l 521 174 l 608 174 l 608 87 l 521 87 m 434 87 l 347 87 l 347 174 l 434 174 l 434 87 m 608 174 l 608 260 l 694 260 l 694 174 l 608 174 m 347 174 l 260 174 l 260 260 l 347 260 l 347 174 m 694 260 l 694 347 l 781 347 l 781 260 l 694 260 m 260 260 l 174 260 l 174 347 l 260 347 l 260 260 m 781 347 l 781 434 l 868 434 l 868 347 l 781 347 m 174 347 l 87 347 l 87 434 l 174 434 l 174 347 m 868 434 l 868 521 l 868 608 l 868 694 l 955 694 l 955 608 l 955 521 l 955 434 l 868 434 m 87 434 l 0 434 l 0 521 l 0 608 l 0 694 l 87 694 l 87 608 l 87 521 l 87 434 m 521 608 l 521 694 l 608 694 l 608 608 l 521 608 m 434 608 l 347 608 l 347 694 l 434 694 l 434 608 m 868 694 l 781 694 l 694 694 l 608 694 l 608 781 l 694 781 l 781 781 l 868 781 l 868 694 m 347 694 l 260 694 l 174 694 l 87 694 l 87 781 l 174 781 l 260 781 l 347 781 l 347 694 z "},"ĸ":{"ha":1042,"x_min":0,"x_max":955,"o":"m 434 0 l 434 87 l 521 87 l 521 0 l 434 0 m 434 521 l 434 608 l 521 608 l 521 521 l 434 521 m 521 87 l 521 174 l 608 174 l 608 87 l 521 87 m 434 87 l 347 87 l 347 174 l 434 174 l 434 87 m 608 174 l 608 260 l 694 260 l 694 174 l 608 174 m 347 174 l 260 174 l 260 260 l 347 260 l 347 174 m 694 260 l 694 347 l 781 347 l 781 260 l 694 260 m 260 260 l 174 260 l 174 347 l 260 347 l 260 260 m 781 347 l 781 434 l 868 434 l 868 347 l 781 347 m 174 347 l 87 347 l 87 434 l 174 434 l 174 347 m 868 434 l 868 521 l 868 608 l 868 694 l 955 694 l 955 608 l 955 521 l 955 434 l 868 434 m 87 434 l 0 434 l 0 521 l 0 608 l 0 694 l 87 694 l 87 608 l 87 521 l 87 434 m 521 608 l 521 694 l 608 694 l 608 608 l 521 608 m 434 608 l 347 608 l 347 694 l 434 694 l 434 608 m 868 694 l 781 694 l 694 694 l 608 694 l 608 781 l 694 781 l 781 781 l 868 781 l 868 694 m 347 694 l 260 694 l 174 694 l 87 694 l 87 781 l 174 781 l 260 781 l 347 781 l 347 694 z "},"Ĺ":{"ha":1042,"x_min":0,"x_max":955,"o":"m 434 0 l 434 87 l 521 87 l 521 0 l 434 0 m 434 521 l 434 608 l 521 608 l 521 521 l 434 521 m 521 87 l 521 174 l 608 174 l 608 87 l 521 87 m 434 87 l 347 87 l 347 174 l 434 174 l 434 87 m 608 174 l 608 260 l 694 260 l 694 174 l 608 174 m 347 174 l 260 174 l 260 260 l 347 260 l 347 174 m 694 260 l 694 347 l 781 347 l 781 260 l 694 260 m 260 260 l 174 260 l 174 347 l 260 347 l 260 260 m 781 347 l 781 434 l 868 434 l 868 347 l 781 347 m 174 347 l 87 347 l 87 434 l 174 434 l 174 347 m 868 434 l 868 521 l 868 608 l 868 694 l 955 694 l 955 608 l 955 521 l 955 434 l 868 434 m 87 434 l 0 434 l 0 521 l 0 608 l 0 694 l 87 694 l 87 608 l 87 521 l 87 434 m 521 608 l 521 694 l 608 694 l 608 608 l 521 608 m 434 608 l 347 608 l 347 694 l 434 694 l 434 608 m 868 694 l 781 694 l 694 694 l 608 694 l 608 781 l 694 781 l 781 781 l 868 781 l 868 694 m 347 694 l 260 694 l 174 694 l 87 694 l 87 781 l 174 781 l 260 781 l 347 781 l 347 694 z "},"ĺ":{"ha":1042,"x_min":0,"x_max":955,"o":"m 434 0 l 434 87 l 347 87 l 347 174 l 260 174 l 260 260 l 174 260 l 174 347 l 87 347 l 87 434 l 0 434 l 0 521 l 0 608 l 0 694 l 87 694 l 87 781 l 174 781 l 260 781 l 347 781 l 347 694 l 434 694 l 434 608 l 521 608 l 521 694 l 608 694 l 608 781 l 694 781 l 781 781 l 868 781 l 868 694 l 955 694 l 955 608 l 955 521 l 955 434 l 868 434 l 868 347 l 781 347 l 781 260 l 694 260 l 694 174 l 608 174 l 608 87 l 521 87 l 521 0 l 434 0 z "},"Ļ":{"ha":1042,"x_min":0,"x_max":955,"o":"m 434 0 l 434 87 l 347 87 l 347 174 l 260 174 l 260 260 l 174 260 l 174 347 l 87 347 l 87 434 l 0 434 l 0 521 l 0 608 l 0 694 l 87 694 l 87 781 l 174 781 l 260 781 l 347 781 l 347 694 l 434 694 l 434 608 l 521 608 l 521 694 l 608 694 l 608 781 l 694 781 l 781 781 l 868 781 l 868 694 l 955 694 l 955 608 l 955 521 l 955 434 l 868 434 l 868 347 l 781 347 l 781 260 l 694 260 l 694 174 l 608 174 l 608 87 l 521 87 l 521 0 l 434 0 z "},"ļ":{"ha":1042,"x_min":0,"x_max":955,"o":"m 434 0 l 434 87 l 347 87 l 347 174 l 260 174 l 260 260 l 174 260 l 174 347 l 87 347 l 87 434 l 0 434 l 0 521 l 0 608 l 0 694 l 87 694 l 87 781 l 174 781 l 260 781 l 347 781 l 347 694 l 434 694 l 434 608 l 521 608 l 521 694 l 608 694 l 608 781 l 694 781 l 781 781 l 868 781 l 868 694 l 955 694 l 955 608 l 955 521 l 955 434 l 868 434 l 868 347 l 781 347 l 781 260 l 694 260 l 694 174 l 608 174 l 608 87 l 521 87 l 521 0 l 434 0 z "},"Ľ":{"ha":1042,"x_min":0,"x_max":955,"o":"m 434 0 l 434 87 l 347 87 l 347 174 l 260 174 l 260 260 l 174 260 l 174 347 l 87 347 l 87 434 l 0 434 l 0 521 l 0 608 l 0 694 l 87 694 l 87 781 l 174 781 l 260 781 l 347 781 l 347 694 l 434 694 l 434 608 l 521 608 l 521 694 l 608 694 l 608 781 l 694 781 l 781 781 l 868 781 l 868 694 l 955 694 l 955 608 l 955 521 l 955 434 l 868 434 l 868 347 l 781 347 l 781 260 l 694 260 l 694 174 l 608 174 l 608 87 l 521 87 l 521 0 l 434 0 z "},"ľ":{"ha":1042,"x_min":0,"x_max":955,"o":"m 434 0 l 434 87 l 347 87 l 347 174 l 260 174 l 260 260 l 174 260 l 174 347 l 87 347 l 87 434 l 0 434 l 0 521 l 0 608 l 0 694 l 87 694 l 87 781 l 174 781 l 260 781 l 347 781 l 347 694 l 434 694 l 434 608 l 521 608 l 521 694 l 608 694 l 608 781 l 694 781 l 781 781 l 868 781 l 868 694 l 955 694 l 955 608 l 955 521 l 955 434 l 868 434 l 868 347 l 781 347 l 781 260 l 694 260 l 694 174 l 608 174 l 608 87 l 521 87 l 521 0 l 434 0 z "},"Ŀ":{"ha":1042,"x_min":0,"x_max":955,"o":"m 434 0 l 434 87 l 347 87 l 347 174 l 260 174 l 260 260 l 174 260 l 174 347 l 87 347 l 87 434 l 0 434 l 0 521 l 0 608 l 0 694 l 87 694 l 87 781 l 174 781 l 260 781 l 347 781 l 347 694 l 434 694 l 434 608 l 521 608 l 521 694 l 608 694 l 608 781 l 694 781 l 781 781 l 868 781 l 868 694 l 955 694 l 955 608 l 955 521 l 955 434 l 868 434 l 868 347 l 781 347 l 781 260 l 694 260 l 694 174 l 608 174 l 608 87 l 521 87 l 521 0 l 434 0 z "},"ŀ":{"ha":1042,"x_min":0,"x_max":955,"o":"m 434 0 l 434 87 l 347 87 l 347 174 l 260 174 l 260 260 l 174 260 l 174 347 l 87 347 l 87 434 l 0 434 l 0 521 l 0 608 l 0 694 l 87 694 l 87 781 l 174 781 l 260 781 l 347 781 l 347 694 l 434 694 l 434 608 l 521 608 l 521 694 l 608 694 l 608 781 l 694 781 l 781 781 l 868 781 l 868 694 l 955 694 l 955 608 l 955 521 l 955 434 l 868 434 l 868 347 l 781 347 l 781 260 l 694 260 l 694 174 l 608 174 l 608 87 l 521 87 l 521 0 l 434 0 z "},"Ł":{"ha":1042,"x_min":0,"x_max":955,"o":"m 434 0 l 434 87 l 347 87 l 347 174 l 260 174 l 260 260 l 174 260 l 174 347 l 87 347 l 87 434 l 0 434 l 0 521 l 0 608 l 0 694 l 87 694 l 87 781 l 174 781 l 260 781 l 347 781 l 347 694 l 434 694 l 434 608 l 521 608 l 521 694 l 608 694 l 608 781 l 694 781 l 781 781 l 868 781 l 868 694 l 955 694 l 955 608 l 955 521 l 955 434 l 868 434 l 868 347 l 781 347 l 781 260 l 694 260 l 694 174 l 608 174 l 608 87 l 521 87 l 521 0 l 434 0 z "},"ł":{"ha":1042,"x_min":0,"x_max":955,"o":"m 434 0 l 434 87 l 347 87 l 347 174 l 260 174 l 260 260 l 174 260 l 174 347 l 87 347 l 87 434 l 0 434 l 0 521 l 0 608 l 0 694 l 87 694 l 87 781 l 174 781 l 260 781 l 347 781 l 347 694 l 434 694 l 434 608 l 521 608 l 521 694 l 608 694 l 608 781 l 694 781 l 781 781 l 868 781 l 868 694 l 955 694 l 955 608 l 955 521 l 955 434 l 868 434 l 868 347 l 781 347 l 781 260 l 694 260 l 694 174 l 608 174 l 608 87 l 521 87 l 521 0 l 434 0 z "},"Ń":{"ha":1042,"x_min":0,"x_max":955,"o":"m 434 0 l 434 87 l 347 87 l 347 174 l 260 174 l 260 260 l 174 260 l 174 347 l 87 347 l 87 434 l 0 434 l 0 521 l 0 608 l 0 694 l 87 694 l 87 781 l 174 781 l 260 781 l 347 781 l 347 694 l 434 694 l 434 608 l 521 608 l 521 694 l 608 694 l 608 781 l 694 781 l 781 781 l 868 781 l 868 694 l 955 694 l 955 608 l 955 521 l 955 434 l 868 434 l 868 347 l 781 347 l 781 260 l 694 260 l 694 174 l 608 174 l 608 87 l 521 87 l 521 0 l 434 0 z "},"ń":{"ha":1042,"x_min":0,"x_max":955,"o":"m 434 0 l 434 87 l 347 87 l 347 174 l 260 174 l 260 260 l 174 260 l 174 347 l 87 347 l 87 434 l 0 434 l 0 521 l 0 608 l 0 694 l 87 694 l 87 781 l 174 781 l 260 781 l 347 781 l 347 694 l 434 694 l 434 608 l 521 608 l 521 694 l 608 694 l 608 781 l 694 781 l 781 781 l 868 781 l 868 694 l 955 694 l 955 608 l 955 521 l 955 434 l 868 434 l 868 347 l 781 347 l 781 260 l 694 260 l 694 174 l 608 174 l 608 87 l 521 87 l 521 0 l 434 0 z "},"Ņ":{"ha":1042,"x_min":0,"x_max":955,"o":"m 434 0 l 434 87 l 347 87 l 347 174 l 260 174 l 260 260 l 174 260 l 174 347 l 87 347 l 87 434 l 0 434 l 0 521 l 0 608 l 0 694 l 87 694 l 87 781 l 174 781 l 260 781 l 347 781 l 347 694 l 434 694 l 434 608 l 521 608 l 521 694 l 608 694 l 608 781 l 694 781 l 781 781 l 868 781 l 868 694 l 955 694 l 955 608 l 955 521 l 955 434 l 868 434 l 868 347 l 781 347 l 781 260 l 694 260 l 694 174 l 608 174 l 608 87 l 521 87 l 521 0 l 434 0 z "},"ņ":{"ha":1042,"x_min":0,"x_max":955,"o":"m 434 0 l 434 87 l 347 87 l 347 174 l 260 174 l 260 260 l 174 260 l 174 347 l 87 347 l 87 434 l 0 434 l 0 521 l 0 608 l 0 694 l 87 694 l 87 781 l 174 781 l 260 781 l 347 781 l 347 694 l 434 694 l 434 608 l 521 608 l 521 694 l 608 694 l 608 781 l 694 781 l 781 781 l 868 781 l 868 694 l 955 694 l 955 608 l 955 521 l 955 434 l 868 434 l 868 347 l 781 347 l 781 260 l 694 260 l 694 174 l 608 174 l 608 87 l 521 87 l 521 0 l 434 0 z "},"Ň":{"ha":1042,"x_min":0,"x_max":955,"o":"m 434 0 l 434 87 l 347 87 l 347 174 l 260 174 l 260 260 l 174 260 l 174 347 l 87 347 l 87 434 l 0 434 l 0 521 l 0 608 l 0 694 l 87 694 l 87 781 l 174 781 l 260 781 l 347 781 l 347 694 l 434 694 l 434 608 l 521 608 l 521 694 l 608 694 l 608 781 l 694 781 l 781 781 l 868 781 l 868 694 l 955 694 l 955 608 l 955 521 l 955 434 l 868 434 l 868 347 l 781 347 l 781 260 l 694 260 l 694 174 l 608 174 l 608 87 l 521 87 l 521 0 l 434 0 z "},"ň":{"ha":1042,"x_min":0,"x_max":955,"o":"m 434 0 l 434 87 l 347 87 l 347 174 l 260 174 l 260 260 l 174 260 l 174 347 l 87 347 l 87 434 l 0 434 l 0 521 l 0 608 l 0 694 l 87 694 l 87 781 l 174 781 l 260 781 l 347 781 l 347 694 l 434 694 l 434 608 l 521 608 l 521 694 l 608 694 l 608 781 l 694 781 l 781 781 l 868 781 l 868 694 l 955 694 l 955 608 l 955 521 l 955 434 l 868 434 l 868 347 l 781 347 l 781 260 l 694 260 l 694 174 l 608 174 l 608 87 l 521 87 l 521 0 l 434 0 z "},"ŉ":{"ha":1042,"x_min":0,"x_max":955,"o":"m 434 0 l 434 87 l 347 87 l 347 174 l 260 174 l 260 260 l 174 260 l 174 347 l 87 347 l 87 434 l 0 434 l 0 521 l 0 608 l 0 694 l 87 694 l 87 781 l 174 781 l 260 781 l 347 781 l 347 694 l 434 694 l 434 608 l 521 608 l 521 694 l 608 694 l 608 781 l 694 781 l 781 781 l 868 781 l 868 694 l 955 694 l 955 608 l 955 521 l 955 434 l 868 434 l 868 347 l 781 347 l 781 260 l 694 260 l 694 174 l 608 174 l 608 87 l 521 87 l 521 0 l 434 0 z "},"Ŋ":{"ha":1042,"x_min":0,"x_max":955,"o":"m 434 0 l 434 87 l 347 87 l 347 174 l 260 174 l 260 260 l 174 260 l 174 347 l 87 347 l 87 434 l 0 434 l 0 521 l 0 608 l 0 694 l 87 694 l 87 781 l 174 781 l 260 781 l 347 781 l 347 694 l 434 694 l 434 608 l 521 608 l 521 694 l 608 694 l 608 781 l 694 781 l 781 781 l 868 781 l 868 694 l 955 694 l 955 608 l 955 521 l 955 434 l 868 434 l 868 347 l 781 347 l 781 260 l 694 260 l 694 174 l 608 174 l 608 87 l 521 87 l 521 0 l 434 0 z "},"ŋ":{"ha":1042,"x_min":0,"x_max":955,"o":"m 434 0 l 434 87 l 347 87 l 347 174 l 260 174 l 260 260 l 174 260 l 174 347 l 87 347 l 87 434 l 0 434 l 0 521 l 0 608 l 0 694 l 87 694 l 87 781 l 174 781 l 260 781 l 347 781 l 347 694 l 434 694 l 434 608 l 521 608 l 521 694 l 608 694 l 608 781 l 694 781 l 781 781 l 868 781 l 868 694 l 955 694 l 955 608 l 955 521 l 955 434 l 868 434 l 868 347 l 781 347 l 781 260 l 694 260 l 694 174 l 608 174 l 608 87 l 521 87 l 521 0 l 434 0 z "},"Ō":{"ha":1042,"x_min":0,"x_max":955,"o":"m 434 0 l 434 87 l 347 87 l 347 174 l 260 174 l 260 260 l 174 260 l 174 347 l 87 347 l 87 434 l 0 434 l 0 521 l 0 608 l 0 694 l 87 694 l 87 781 l 174 781 l 260 781 l 347 781 l 347 694 l 434 694 l 434 608 l 521 608 l 521 694 l 608 694 l 608 781 l 694 781 l 781 781 l 868 781 l 868 694 l 955 694 l 955 608 l 955 521 l 955 434 l 868 434 l 868 347 l 781 347 l 781 260 l 694 260 l 694 174 l 608 174 l 608 87 l 521 87 l 521 0 l 434 0 z "},"ō":{"ha":1042,"x_min":0,"x_max":955,"o":"m 434 0 l 434 87 l 347 87 l 347 174 l 260 174 l 260 260 l 174 260 l 174 347 l 87 347 l 87 434 l 0 434 l 0 521 l 0 608 l 0 694 l 87 694 l 87 781 l 174 781 l 260 781 l 347 781 l 347 694 l 434 694 l 434 608 l 521 608 l 521 694 l 608 694 l 608 781 l 694 781 l 781 781 l 868 781 l 868 694 l 955 694 l 955 608 l 955 521 l 955 434 l 868 434 l 868 347 l 781 347 l 781 260 l 694 260 l 694 174 l 608 174 l 608 87 l 521 87 l 521 0 l 434 0 z "},"Ŏ":{"ha":1042,"x_min":0,"x_max":955,"o":"m 434 0 l 434 87 l 347 87 l 347 174 l 260 174 l 260 260 l 174 260 l 174 347 l 87 347 l 87 434 l 0 434 l 0 521 l 0 608 l 0 694 l 87 694 l 87 781 l 174 781 l 260 781 l 347 781 l 347 694 l 434 694 l 434 608 l 521 608 l 521 694 l 608 694 l 608 781 l 694 781 l 781 781 l 868 781 l 868 694 l 955 694 l 955 608 l 955 521 l 955 434 l 868 434 l 868 347 l 781 347 l 781 260 l 694 260 l 694 174 l 608 174 l 608 87 l 521 87 l 521 0 l 434 0 z "},"ŏ":{"ha":1042,"x_min":0,"x_max":955,"o":"m 434 0 l 434 87 l 347 87 l 347 174 l 260 174 l 260 260 l 174 260 l 174 347 l 87 347 l 87 434 l 0 434 l 0 521 l 0 608 l 0 694 l 87 694 l 87 781 l 174 781 l 260 781 l 347 781 l 347 694 l 434 694 l 434 608 l 521 608 l 521 694 l 608 694 l 608 781 l 694 781 l 781 781 l 868 781 l 868 694 l 955 694 l 955 608 l 955 521 l 955 434 l 868 434 l 868 347 l 781 347 l 781 260 l 694 260 l 694 174 l 608 174 l 608 87 l 521 87 l 521 0 l 434 0 z "},"Ő":{"ha":1042,"x_min":0,"x_max":955,"o":"m 434 0 l 434 87 l 347 87 l 347 174 l 260 174 l 260 260 l 174 260 l 174 347 l 87 347 l 87 434 l 0 434 l 0 521 l 0 608 l 0 694 l 87 694 l 87 781 l 174 781 l 260 781 l 347 781 l 347 694 l 434 694 l 434 608 l 521 608 l 521 694 l 608 694 l 608 781 l 694 781 l 781 781 l 868 781 l 868 694 l 955 694 l 955 608 l 955 521 l 955 434 l 868 434 l 868 347 l 781 347 l 781 260 l 694 260 l 694 174 l 608 174 l 608 87 l 521 87 l 521 0 l 434 0 z "},"ő":{"ha":1042,"x_min":0,"x_max":955,"o":"m 434 0 l 434 87 l 347 87 l 347 174 l 260 174 l 260 260 l 174 260 l 174 347 l 87 347 l 87 434 l 0 434 l 0 521 l 0 608 l 0 694 l 87 694 l 87 781 l 174 781 l 260 781 l 347 781 l 347 694 l 434 694 l 434 608 l 521 608 l 521 694 l 608 694 l 608 781 l 694 781 l 781 781 l 868 781 l 868 694 l 955 694 l 955 608 l 955 521 l 955 434 l 868 434 l 868 347 l 781 347 l 781 260 l 694 260 l 694 174 l 608 174 l 608 87 l 521 87 l 521 0 l 434 0 z "},"Œ":{"ha":1042,"x_min":0,"x_max":955,"o":"m 434 0 l 434 87 l 347 87 l 347 174 l 260 174 l 260 260 l 174 260 l 174 347 l 87 347 l 87 434 l 0 434 l 0 521 l 0 608 l 0 694 l 87 694 l 87 781 l 174 781 l 260 781 l 347 781 l 347 694 l 434 694 l 434 608 l 521 608 l 521 694 l 608 694 l 608 781 l 694 781 l 781 781 l 868 781 l 868 694 l 955 694 l 955 608 l 955 521 l 955 434 l 868 434 l 868 347 l 781 347 l 781 260 l 694 260 l 694 174 l 608 174 l 608 87 l 521 87 l 521 0 l 434 0 z "},"œ":{"ha":1042,"x_min":0,"x_max":955,"o":"m 434 0 l 434 87 l 347 87 l 347 174 l 260 174 l 260 260 l 174 260 l 174 347 l 87 347 l 87 434 l 0 434 l 0 521 l 0 608 l 0 694 l 87 694 l 87 781 l 174 781 l 260 781 l 347 781 l 347 694 l 434 694 l 434 608 l 521 608 l 521 694 l 608 694 l 608 781 l 694 781 l 781 781 l 868 781 l 868 694 l 955 694 l 955 608 l 955 521 l 955 434 l 868 434 l 868 347 l 781 347 l 781 260 l 694 260 l 694 174 l 608 174 l 608 87 l 521 87 l 521 0 l 434 0 z "},"Ŕ":{"ha":1042,"x_min":0,"x_max":955,"o":"m 434 0 l 434 87 l 347 87 l 347 174 l 260 174 l 260 260 l 174 260 l 174 347 l 87 347 l 87 434 l 0 434 l 0 521 l 0 608 l 0 694 l 87 694 l 87 781 l 174 781 l 260 781 l 347 781 l 347 694 l 434 694 l 434 608 l 521 608 l 521 694 l 608 694 l 608 781 l 694 781 l 781 781 l 868 781 l 868 694 l 955 694 l 955 608 l 955 521 l 955 434 l 868 434 l 868 347 l 781 347 l 781 260 l 694 260 l 694 174 l 608 174 l 608 87 l 521 87 l 521 0 l 434 0 z "},"ŕ":{"ha":1042,"x_min":0,"x_max":955,"o":"m 434 0 l 434 87 l 347 87 l 347 174 l 260 174 l 260 260 l 174 260 l 174 347 l 87 347 l 87 434 l 0 434 l 0 521 l 0 608 l 0 694 l 87 694 l 87 781 l 174 781 l 260 781 l 347 781 l 347 694 l 434 694 l 434 608 l 521 608 l 521 694 l 608 694 l 608 781 l 694 781 l 781 781 l 868 781 l 868 694 l 955 694 l 955 608 l 955 521 l 955 434 l 868 434 l 868 347 l 781 347 l 781 260 l 694 260 l 694 174 l 608 174 l 608 87 l 521 87 l 521 0 l 434 0 z "},"Ŗ":{"ha":1042,"x_min":0,"x_max":955,"o":"m 434 0 l 434 87 l 347 87 l 347 174 l 260 174 l 260 260 l 174 260 l 174 347 l 87 347 l 87 434 l 0 434 l 0 521 l 0 608 l 0 694 l 87 694 l 87 781 l 174 781 l 260 781 l 347 781 l 347 694 l 434 694 l 434 608 l 521 608 l 521 694 l 608 694 l 608 781 l 694 781 l 781 781 l 868 781 l 868 694 l 955 694 l 955 608 l 955 521 l 955 434 l 868 434 l 868 347 l 781 347 l 781 260 l 694 260 l 694 174 l 608 174 l 608 87 l 521 87 l 521 0 l 434 0 z "},"ŗ":{"ha":1042,"x_min":0,"x_max":955,"o":"m 434 0 l 434 87 l 347 87 l 347 174 l 260 174 l 260 260 l 174 260 l 174 347 l 87 347 l 87 434 l 0 434 l 0 521 l 0 608 l 0 694 l 87 694 l 87 781 l 174 781 l 260 781 l 347 781 l 347 694 l 434 694 l 434 608 l 521 608 l 521 694 l 608 694 l 608 781 l 694 781 l 781 781 l 868 781 l 868 694 l 955 694 l 955 608 l 955 521 l 955 434 l 868 434 l 868 347 l 781 347 l 781 260 l 694 260 l 694 174 l 608 174 l 608 87 l 521 87 l 521 0 l 434 0 z "},"Ř":{"ha":1042,"x_min":0,"x_max":955,"o":"m 434 0 l 434 87 l 347 87 l 347 174 l 260 174 l 260 260 l 174 260 l 174 347 l 87 347 l 87 434 l 0 434 l 0 521 l 0 608 l 0 694 l 87 694 l 87 781 l 174 781 l 260 781 l 347 781 l 347 694 l 434 694 l 434 608 l 521 608 l 521 694 l 608 694 l 608 781 l 694 781 l 781 781 l 868 781 l 868 694 l 955 694 l 955 608 l 955 521 l 955 434 l 868 434 l 868 347 l 781 347 l 781 260 l 694 260 l 694 174 l 608 174 l 608 87 l 521 87 l 521 0 l 434 0 z "},"ř":{"ha":1042,"x_min":0,"x_max":955,"o":"m 434 0 l 434 87 l 347 87 l 347 174 l 260 174 l 260 260 l 174 260 l 174 347 l 87 347 l 87 434 l 0 434 l 0 521 l 0 608 l 0 694 l 87 694 l 87 781 l 174 781 l 260 781 l 347 781 l 347 694 l 434 694 l 434 608 l 521 608 l 521 694 l 608 694 l 608 781 l 694 781 l 781 781 l 868 781 l 868 694 l 955 694 l 955 608 l 955 521 l 955 434 l 868 434 l 868 347 l 781 347 l 781 260 l 694 260 l 694 174 l 608 174 l 608 87 l 521 87 l 521 0 l 434 0 z "},"Ś":{"ha":1042,"x_min":0,"x_max":955,"o":"m 434 0 l 434 87 l 347 87 l 347 174 l 260 174 l 260 260 l 174 260 l 174 347 l 87 347 l 87 434 l 0 434 l 0 521 l 0 608 l 0 694 l 87 694 l 87 781 l 174 781 l 260 781 l 347 781 l 347 694 l 434 694 l 434 608 l 521 608 l 521 694 l 608 694 l 608 781 l 694 781 l 781 781 l 868 781 l 868 694 l 955 694 l 955 608 l 955 521 l 955 434 l 868 434 l 868 347 l 781 347 l 781 260 l 694 260 l 694 174 l 608 174 l 608 87 l 521 87 l 521 0 l 434 0 z "},"ś":{"ha":1042,"x_min":0,"x_max":955,"o":"m 434 0 l 434 87 l 347 87 l 347 174 l 260 174 l 260 260 l 174 260 l 174 347 l 87 347 l 87 434 l 0 434 l 0 521 l 0 608 l 0 694 l 87 694 l 87 781 l 174 781 l 260 781 l 347 781 l 347 694 l 434 694 l 434 608 l 521 608 l 521 694 l 608 694 l 608 781 l 694 781 l 781 781 l 868 781 l 868 694 l 955 694 l 955 608 l 955 521 l 955 434 l 868 434 l 868 347 l 781 347 l 781 260 l 694 260 l 694 174 l 608 174 l 608 87 l 521 87 l 521 0 l 434 0 z "},"Ŝ":{"ha":1042,"x_min":0,"x_max":955,"o":"m 434 0 l 434 87 l 347 87 l 347 174 l 260 174 l 260 260 l 174 260 l 174 347 l 87 347 l 87 434 l 0 434 l 0 521 l 0 608 l 0 694 l 87 694 l 87 781 l 174 781 l 260 781 l 347 781 l 347 694 l 434 694 l 434 608 l 521 608 l 521 694 l 608 694 l 608 781 l 694 781 l 781 781 l 868 781 l 868 694 l 955 694 l 955 608 l 955 521 l 955 434 l 868 434 l 868 347 l 781 347 l 781 260 l 694 260 l 694 174 l 608 174 l 608 87 l 521 87 l 521 0 l 434 0 z "},"ŝ":{"ha":1042,"x_min":0,"x_max":955,"o":"m 434 0 l 434 87 l 347 87 l 347 174 l 260 174 l 260 260 l 174 260 l 174 347 l 87 347 l 87 434 l 0 434 l 0 521 l 0 608 l 0 694 l 87 694 l 87 781 l 174 781 l 260 781 l 347 781 l 347 694 l 434 694 l 434 608 l 521 608 l 521 694 l 608 694 l 608 781 l 694 781 l 781 781 l 868 781 l 868 694 l 955 694 l 955 608 l 955 521 l 955 434 l 868 434 l 868 347 l 781 347 l 781 260 l 694 260 l 694 174 l 608 174 l 608 87 l 521 87 l 521 0 l 434 0 z "},"Ş":{"ha":1042,"x_min":0,"x_max":955,"o":"m 434 0 l 434 87 l 347 87 l 347 174 l 260 174 l 260 260 l 174 260 l 174 347 l 87 347 l 87 434 l 0 434 l 0 521 l 0 608 l 0 694 l 87 694 l 87 781 l 174 781 l 260 781 l 347 781 l 347 694 l 434 694 l 434 608 l 521 608 l 521 694 l 608 694 l 608 781 l 694 781 l 781 781 l 868 781 l 868 694 l 955 694 l 955 608 l 955 521 l 955 434 l 868 434 l 868 347 l 781 347 l 781 260 l 694 260 l 694 174 l 608 174 l 608 87 l 521 87 l 521 0 l 434 0 z "},"ş":{"ha":1042,"x_min":0,"x_max":955,"o":"m 434 0 l 434 87 l 347 87 l 347 174 l 260 174 l 260 260 l 174 260 l 174 347 l 87 347 l 87 434 l 0 434 l 0 521 l 0 608 l 0 694 l 87 694 l 87 781 l 174 781 l 260 781 l 347 781 l 347 694 l 434 694 l 434 608 l 521 608 l 521 694 l 608 694 l 608 781 l 694 781 l 781 781 l 868 781 l 868 694 l 955 694 l 955 608 l 955 521 l 955 434 l 868 434 l 868 347 l 781 347 l 781 260 l 694 260 l 694 174 l 608 174 l 608 87 l 521 87 l 521 0 l 434 0 z "},"Š":{"ha":1042,"x_min":0,"x_max":955,"o":"m 434 0 l 434 87 l 347 87 l 347 174 l 260 174 l 260 260 l 174 260 l 174 347 l 87 347 l 87 434 l 0 434 l 0 521 l 0 608 l 0 694 l 87 694 l 87 781 l 174 781 l 260 781 l 347 781 l 347 694 l 434 694 l 434 608 l 521 608 l 521 694 l 608 694 l 608 781 l 694 781 l 781 781 l 868 781 l 868 694 l 955 694 l 955 608 l 955 521 l 955 434 l 868 434 l 868 347 l 781 347 l 781 260 l 694 260 l 694 174 l 608 174 l 608 87 l 521 87 l 521 0 l 434 0 z "},"š":{"ha":1042,"x_min":0,"x_max":955,"o":"m 434 0 l 434 87 l 347 87 l 347 174 l 260 174 l 260 260 l 174 260 l 174 347 l 87 347 l 87 434 l 0 434 l 0 521 l 0 608 l 0 694 l 87 694 l 87 781 l 174 781 l 260 781 l 347 781 l 347 694 l 434 694 l 434 608 l 521 608 l 521 694 l 608 694 l 608 781 l 694 781 l 781 781 l 868 781 l 868 694 l 955 694 l 955 608 l 955 521 l 955 434 l 868 434 l 868 347 l 781 347 l 781 260 l 694 260 l 694 174 l 608 174 l 608 87 l 521 87 l 521 0 l 434 0 z "},"Ţ":{"ha":1042,"x_min":0,"x_max":955,"o":"m 434 0 l 434 87 l 347 87 l 347 174 l 260 174 l 260 260 l 174 260 l 174 347 l 87 347 l 87 434 l 0 434 l 0 521 l 0 608 l 0 694 l 87 694 l 87 781 l 174 781 l 260 781 l 347 781 l 347 694 l 434 694 l 434 608 l 521 608 l 521 694 l 608 694 l 608 781 l 694 781 l 781 781 l 868 781 l 868 694 l 955 694 l 955 608 l 955 521 l 955 434 l 868 434 l 868 347 l 781 347 l 781 260 l 694 260 l 694 174 l 608 174 l 608 87 l 521 87 l 521 0 l 434 0 z "},"ţ":{"ha":1042,"x_min":0,"x_max":955,"o":"m 434 0 l 434 87 l 347 87 l 347 174 l 260 174 l 260 260 l 174 260 l 174 347 l 87 347 l 87 434 l 0 434 l 0 521 l 0 608 l 0 694 l 87 694 l 87 781 l 174 781 l 260 781 l 347 781 l 347 694 l 434 694 l 434 608 l 521 608 l 521 694 l 608 694 l 608 781 l 694 781 l 781 781 l 868 781 l 868 694 l 955 694 l 955 608 l 955 521 l 955 434 l 868 434 l 868 347 l 781 347 l 781 260 l 694 260 l 694 174 l 608 174 l 608 87 l 521 87 l 521 0 l 434 0 z "},"Ť":{"ha":1042,"x_min":0,"x_max":955,"o":"m 434 0 l 434 87 l 347 87 l 347 174 l 260 174 l 260 260 l 174 260 l 174 347 l 87 347 l 87 434 l 0 434 l 0 521 l 0 608 l 0 694 l 87 694 l 87 781 l 174 781 l 260 781 l 347 781 l 347 694 l 434 694 l 434 608 l 521 608 l 521 694 l 608 694 l 608 781 l 694 781 l 781 781 l 868 781 l 868 694 l 955 694 l 955 608 l 955 521 l 955 434 l 868 434 l 868 347 l 781 347 l 781 260 l 694 260 l 694 174 l 608 174 l 608 87 l 521 87 l 521 0 l 434 0 z "},"ť":{"ha":1042,"x_min":0,"x_max":955,"o":"m 434 0 l 434 87 l 347 87 l 347 174 l 260 174 l 260 260 l 174 260 l 174 347 l 87 347 l 87 434 l 0 434 l 0 521 l 0 608 l 0 694 l 87 694 l 87 781 l 174 781 l 260 781 l 347 781 l 347 694 l 434 694 l 434 608 l 521 608 l 521 694 l 608 694 l 608 781 l 694 781 l 781 781 l 868 781 l 868 694 l 955 694 l 955 608 l 955 521 l 955 434 l 868 434 l 868 347 l 781 347 l 781 260 l 694 260 l 694 174 l 608 174 l 608 87 l 521 87 l 521 0 l 434 0 z "},"Ŧ":{"ha":1042,"x_min":0,"x_max":955,"o":"m 434 0 l 434 87 l 347 87 l 347 174 l 260 174 l 260 260 l 174 260 l 174 347 l 87 347 l 87 434 l 0 434 l 0 521 l 0 608 l 0 694 l 87 694 l 87 781 l 174 781 l 260 781 l 347 781 l 347 694 l 434 694 l 434 608 l 521 608 l 521 694 l 608 694 l 608 781 l 694 781 l 781 781 l 868 781 l 868 694 l 955 694 l 955 608 l 955 521 l 955 434 l 868 434 l 868 347 l 781 347 l 781 260 l 694 260 l 694 174 l 608 174 l 608 87 l 521 87 l 521 0 l 434 0 z "},"ŧ":{"ha":1042,"x_min":0,"x_max":955,"o":"m 434 0 l 434 87 l 347 87 l 347 174 l 260 174 l 260 260 l 174 260 l 174 347 l 87 347 l 87 434 l 0 434 l 0 521 l 0 608 l 0 694 l 87 694 l 87 781 l 174 781 l 260 781 l 347 781 l 347 694 l 434 694 l 434 608 l 521 608 l 521 694 l 608 694 l 608 781 l 694 781 l 781 781 l 868 781 l 868 694 l 955 694 l 955 608 l 955 521 l 955 434 l 868 434 l 868 347 l 781 347 l 781 260 l 694 260 l 694 174 l 608 174 l 608 87 l 521 87 l 521 0 l 434 0 z "},"Ũ":{"ha":1042,"x_min":0,"x_max":955,"o":"m 434 0 l 434 87 l 347 87 l 347 174 l 260 174 l 260 260 l 174 260 l 174 347 l 87 347 l 87 434 l 0 434 l 0 521 l 0 608 l 0 694 l 87 694 l 87 781 l 174 781 l 260 781 l 347 781 l 347 694 l 434 694 l 434 608 l 521 608 l 521 694 l 608 694 l 608 781 l 694 781 l 781 781 l 868 781 l 868 694 l 955 694 l 955 608 l 955 521 l 955 434 l 868 434 l 868 347 l 781 347 l 781 260 l 694 260 l 694 174 l 608 174 l 608 87 l 521 87 l 521 0 l 434 0 z "},"ũ":{"ha":1042,"x_min":0,"x_max":955,"o":"m 434 0 l 434 87 l 347 87 l 347 174 l 260 174 l 260 260 l 174 260 l 174 347 l 87 347 l 87 434 l 0 434 l 0 521 l 0 608 l 0 694 l 87 694 l 87 781 l 174 781 l 260 781 l 347 781 l 347 694 l 434 694 l 434 608 l 521 608 l 521 694 l 608 694 l 608 781 l 694 781 l 781 781 l 868 781 l 868 694 l 955 694 l 955 608 l 955 521 l 955 434 l 868 434 l 868 347 l 781 347 l 781 260 l 694 260 l 694 174 l 608 174 l 608 87 l 521 87 l 521 0 l 434 0 z "},"Ū":{"ha":1042,"x_min":0,"x_max":955,"o":"m 434 0 l 434 87 l 347 87 l 347 174 l 260 174 l 260 260 l 174 260 l 174 347 l 87 347 l 87 434 l 0 434 l 0 521 l 0 608 l 0 694 l 87 694 l 87 781 l 174 781 l 260 781 l 347 781 l 347 694 l 434 694 l 434 608 l 521 608 l 521 694 l 608 694 l 608 781 l 694 781 l 781 781 l 868 781 l 868 694 l 955 694 l 955 608 l 955 521 l 955 434 l 868 434 l 868 347 l 781 347 l 781 260 l 694 260 l 694 174 l 608 174 l 608 87 l 521 87 l 521 0 l 434 0 z "},"ū":{"ha":1042,"x_min":0,"x_max":955,"o":"m 434 0 l 434 87 l 347 87 l 347 174 l 260 174 l 260 260 l 174 260 l 174 347 l 87 347 l 87 434 l 0 434 l 0 521 l 0 608 l 0 694 l 87 694 l 87 781 l 174 781 l 260 781 l 347 781 l 347 694 l 434 694 l 434 608 l 521 608 l 521 694 l 608 694 l 608 781 l 694 781 l 781 781 l 868 781 l 868 694 l 955 694 l 955 608 l 955 521 l 955 434 l 868 434 l 868 347 l 781 347 l 781 260 l 694 260 l 694 174 l 608 174 l 608 87 l 521 87 l 521 0 l 434 0 z "},"Ŭ":{"ha":1042,"x_min":0,"x_max":955,"o":"m 434 0 l 434 87 l 347 87 l 347 174 l 260 174 l 260 260 l 174 260 l 174 347 l 87 347 l 87 434 l 0 434 l 0 521 l 0 608 l 0 694 l 87 694 l 87 781 l 174 781 l 260 781 l 347 781 l 347 694 l 434 694 l 434 608 l 521 608 l 521 694 l 608 694 l 608 781 l 694 781 l 781 781 l 868 781 l 868 694 l 955 694 l 955 608 l 955 521 l 955 434 l 868 434 l 868 347 l 781 347 l 781 260 l 694 260 l 694 174 l 608 174 l 608 87 l 521 87 l 521 0 l 434 0 z "},"ŭ":{"ha":1042,"x_min":0,"x_max":955,"o":"m 434 0 l 434 87 l 347 87 l 347 174 l 260 174 l 260 260 l 174 260 l 174 347 l 87 347 l 87 434 l 0 434 l 0 521 l 0 608 l 0 694 l 87 694 l 87 781 l 174 781 l 260 781 l 347 781 l 347 694 l 434 694 l 434 608 l 521 608 l 521 694 l 608 694 l 608 781 l 694 781 l 781 781 l 868 781 l 868 694 l 955 694 l 955 608 l 955 521 l 955 434 l 868 434 l 868 347 l 781 347 l 781 260 l 694 260 l 694 174 l 608 174 l 608 87 l 521 87 l 521 0 l 434 0 z "},"Ů":{"ha":1042,"x_min":0,"x_max":955,"o":"m 434 0 l 434 87 l 347 87 l 347 174 l 260 174 l 260 260 l 174 260 l 174 347 l 87 347 l 87 434 l 0 434 l 0 521 l 0 608 l 0 694 l 87 694 l 87 781 l 174 781 l 260 781 l 347 781 l 347 694 l 434 694 l 434 608 l 521 608 l 521 694 l 608 694 l 608 781 l 694 781 l 781 781 l 868 781 l 868 694 l 955 694 l 955 608 l 955 521 l 955 434 l 868 434 l 868 521 l 868 608 l 781 608 l 781 521 l 781 434 l 868 434 l 868 347 l 781 347 l 781 434 l 694 434 l 694 347 l 781 347 l 781 260 l 694 260 l 694 174 l 608 174 l 608 87 l 521 87 l 521 0 l 434 0 z "},"ů":{"ha":1042,"x_min":0,"x_max":955,"o":"m 434 0 l 434 87 l 347 87 l 347 174 l 260 174 l 260 260 l 174 260 l 174 347 l 87 347 l 87 434 l 0 434 l 0 521 l 0 608 l 0 694 l 87 694 l 87 781 l 174 781 l 260 781 l 347 781 l 347 694 l 434 694 l 434 608 l 521 608 l 521 694 l 608 694 l 608 781 l 694 781 l 781 781 l 868 781 l 868 694 l 955 694 l 955 608 l 955 521 l 955 434 l 868 434 l 868 521 l 868 608 l 781 608 l 781 521 l 781 434 l 868 434 l 868 347 l 781 347 l 781 434 l 694 434 l 694 347 l 781 347 l 781 260 l 694 260 l 694 174 l 608 174 l 608 87 l 521 87 l 521 0 l 434 0 z "},"Ű":{"ha":1042,"x_min":0,"x_max":955,"o":"m 434 0 l 434 87 l 347 87 l 347 174 l 260 174 l 260 260 l 174 260 l 174 347 l 87 347 l 87 434 l 0 434 l 0 521 l 0 608 l 0 694 l 87 694 l 87 781 l 174 781 l 260 781 l 347 781 l 347 694 l 434 694 l 434 608 l 521 608 l 521 694 l 608 694 l 608 781 l 694 781 l 781 781 l 868 781 l 868 694 l 955 694 l 955 608 l 955 521 l 955 434 l 868 434 l 868 521 l 868 608 l 781 608 l 781 521 l 781 434 l 868 434 l 868 347 l 781 347 l 781 434 l 694 434 l 694 347 l 781 347 l 781 260 l 694 260 l 694 174 l 608 174 l 608 87 l 521 87 l 521 0 l 434 0 z "},"ű":{"ha":1042,"x_min":0,"x_max":955,"o":"m 434 0 l 434 87 l 347 87 l 347 174 l 260 174 l 260 260 l 174 260 l 174 347 l 87 347 l 87 434 l 0 434 l 0 521 l 0 608 l 0 694 l 87 694 l 87 781 l 174 781 l 260 781 l 347 781 l 347 694 l 434 694 l 434 608 l 521 608 l 521 694 l 608 694 l 608 781 l 694 781 l 781 781 l 868 781 l 868 694 l 955 694 l 955 608 l 955 521 l 955 434 l 868 434 l 868 521 l 868 608 l 781 608 l 781 521 l 781 434 l 868 434 l 868 347 l 781 347 l 781 434 l 694 434 l 694 347 l 781 347 l 781 260 l 694 260 l 694 174 l 608 174 l 608 87 l 521 87 l 521 0 l 434 0 z "},"Ų":{"ha":1042,"x_min":0,"x_max":955,"o":"m 434 0 l 434 87 l 347 87 l 347 174 l 260 174 l 260 260 l 174 260 l 174 347 l 87 347 l 87 434 l 0 434 l 0 521 l 0 608 l 0 694 l 87 694 l 87 781 l 174 781 l 260 781 l 347 781 l 347 694 l 434 694 l 434 608 l 521 608 l 521 694 l 608 694 l 608 781 l 694 781 l 781 781 l 868 781 l 868 694 l 955 694 l 955 608 l 955 521 l 955 434 l 868 434 l 868 521 l 868 608 l 781 608 l 781 521 l 781 434 l 868 434 l 868 347 l 781 347 l 781 434 l 694 434 l 694 347 l 781 347 l 781 260 l 694 260 l 694 174 l 608 174 l 608 87 l 521 87 l 521 0 l 434 0 z "},"ų":{"ha":1042,"x_min":0,"x_max":955,"o":"m 434 0 l 434 87 l 347 87 l 347 174 l 260 174 l 260 260 l 174 260 l 174 347 l 87 347 l 87 434 l 0 434 l 0 521 l 0 608 l 0 694 l 87 694 l 87 781 l 174 781 l 260 781 l 347 781 l 347 694 l 434 694 l 434 608 l 521 608 l 521 694 l 608 694 l 608 781 l 694 781 l 781 781 l 868 781 l 868 694 l 955 694 l 955 608 l 955 521 l 955 434 l 868 434 l 868 521 l 868 608 l 781 608 l 781 521 l 781 434 l 868 434 l 868 347 l 781 347 l 781 434 l 694 434 l 694 347 l 781 347 l 781 260 l 694 260 l 694 174 l 608 174 l 608 87 l 521 87 l 521 0 l 434 0 z "},"Ŵ":{"ha":1042,"x_min":0,"x_max":955,"o":"m 434 0 l 434 87 l 347 87 l 347 174 l 260 174 l 260 260 l 174 260 l 174 347 l 87 347 l 87 434 l 0 434 l 0 521 l 0 608 l 0 694 l 87 694 l 87 781 l 174 781 l 260 781 l 347 781 l 347 694 l 434 694 l 434 608 l 521 608 l 521 694 l 608 694 l 608 781 l 694 781 l 781 781 l 868 781 l 868 694 l 955 694 l 955 608 l 955 521 l 955 434 l 868 434 l 868 521 l 868 608 l 781 608 l 781 521 l 781 434 l 868 434 l 868 347 l 781 347 l 781 434 l 694 434 l 694 347 l 781 347 l 781 260 l 694 260 l 694 174 l 608 174 l 608 87 l 521 87 l 521 0 l 434 0 z "},"ŵ":{"ha":1042,"x_min":0,"x_max":955,"o":"m 434 0 l 434 87 l 347 87 l 347 174 l 260 174 l 260 260 l 174 260 l 174 347 l 87 347 l 87 434 l 0 434 l 0 521 l 0 608 l 0 694 l 87 694 l 87 781 l 174 781 l 260 781 l 347 781 l 347 694 l 434 694 l 434 608 l 521 608 l 521 694 l 608 694 l 608 781 l 694 781 l 781 781 l 868 781 l 868 694 l 955 694 l 955 608 l 955 521 l 955 434 l 868 434 l 868 521 l 868 608 l 781 608 l 781 521 l 781 434 l 868 434 l 868 347 l 781 347 l 781 434 l 694 434 l 694 347 l 781 347 l 781 260 l 694 260 l 694 174 l 608 174 l 608 87 l 521 87 l 521 0 l 434 0 z "},"Ŷ":{"ha":1042,"x_min":0,"x_max":955,"o":"m 434 0 l 434 87 l 347 87 l 347 174 l 260 174 l 260 260 l 174 260 l 174 347 l 87 347 l 87 434 l 0 434 l 0 521 l 0 608 l 0 694 l 87 694 l 87 781 l 174 781 l 260 781 l 347 781 l 347 694 l 434 694 l 434 608 l 521 608 l 521 694 l 608 694 l 608 781 l 694 781 l 781 781 l 868 781 l 868 694 l 955 694 l 955 608 l 955 521 l 955 434 l 868 434 l 868 521 l 868 608 l 781 608 l 781 521 l 781 434 l 868 434 l 868 347 l 781 347 l 781 434 l 694 434 l 694 347 l 781 347 l 781 260 l 694 260 l 694 174 l 608 174 l 608 87 l 521 87 l 521 0 l 434 0 z "},"ŷ":{"ha":1042,"x_min":0,"x_max":955,"o":"m 434 0 l 434 87 l 347 87 l 347 174 l 260 174 l 260 260 l 174 260 l 174 347 l 87 347 l 87 434 l 0 434 l 0 521 l 0 608 l 0 694 l 87 694 l 87 781 l 174 781 l 260 781 l 347 781 l 347 694 l 434 694 l 434 608 l 521 608 l 521 694 l 608 694 l 608 781 l 694 781 l 781 781 l 868 781 l 868 694 l 955 694 l 955 608 l 955 521 l 955 434 l 868 434 l 868 521 l 868 608 l 781 608 l 781 521 l 781 434 l 868 434 l 868 347 l 781 347 l 781 434 l 694 434 l 694 347 l 781 347 l 781 260 l 694 260 l 694 174 l 608 174 l 608 87 l 521 87 l 521 0 l 434 0 z "}}}
